<svg id="Layer_1" data-name="Layer 1" xmlns="http://www.w3.org/2000/svg" viewBox="0 0 415.74 278.12">
  <defs>
    <style>
      .cls-1 {
        fill: #096c37;
      }

      .cls-2 {
        fill: #414042;
      }

      .cls-3 {
        fill: #603913;
      }
    </style>
  </defs>
  <g id="iZvQjU.tif">
    <g>
      <path class="cls-1" d="M202.16,389.87H66.94l-3.23-1.07c-6.8-2.18-11.07-7.14-11.48-14-.85-13.94-1.5-27.89-2.23-41.83q-1.14-21.84-2.29-43.69-1.22-22.5-2.47-45-1-18.14-2-36.27c-.64-12.26-1.29-24.53-1.84-36.81-.22-4.9,1.77-7.65,6.56-8.86a34.64,34.64,0,0,1,8.35-1.08q78.21-.14,156.42-.07a58.45,58.45,0,0,1,12.31,1.26c4.48,1,6.36,3.92,6.24,8.54-.09,3.09-.36,6.17-.57,9.26q-1.15,16.53-2.33,33.05-1.47,20.63-3,41.24Q224,274.79,222.61,295q-1.49,20.88-3,41.77c-.92,12.87-1.79,25.74-2.75,38.6a13.44,13.44,0,0,1-7,11.21A66.58,66.58,0,0,1,202.16,389.87Z" transform="translate(-41.31 -111.76)"/>
      <path class="cls-1" d="M96.44,124.59a40.27,40.27,0,0,1,2-5.87,12.06,12.06,0,0,1,11.1-6.91q26.91-.12,53.82,0a12.61,12.61,0,0,1,12.37,10.65c.11.6.25,1.2.45,2.13H179q19.75,0,39.51,0c5.17,0,9.32,1.89,11.74,6.67A11.64,11.64,0,0,1,222,147.87a22.81,22.81,0,0,1-4.21.37q-81.39,0-162.79,0c-6.52,0-10.9-2.57-12.83-7.49-3.17-8.05,2.69-16.11,11.9-16.16,13.17-.08,26.34,0,39.51,0Z" transform="translate(-41.31 -111.76)"/>
    </g>
  </g>
  <g id="iZvQjU.tif-2" data-name="iZvQjU.tif">
    <g>
      <path class="cls-2" d="M427.76,389.87H292.54l-3.22-1.07c-6.81-2.18-11.07-7.14-11.49-14-.84-13.94-1.49-27.89-2.22-41.83q-1.14-21.84-2.29-43.69-1.21-22.5-2.47-45-1-18.14-2-36.27c-.64-12.26-1.29-24.53-1.83-36.81-.22-4.9,1.77-7.65,6.56-8.86a34.64,34.64,0,0,1,8.35-1.08q78.21-.14,156.42-.07a58.45,58.45,0,0,1,12.31,1.26c4.48,1,6.36,3.92,6.23,8.54-.08,3.09-.35,6.17-.57,9.26q-1.16,16.53-2.33,33.05-1.47,20.63-3,41.24-1.44,20.24-2.85,40.46-1.49,20.88-3,41.77c-.92,12.87-1.8,25.74-2.75,38.6a13.44,13.44,0,0,1-7,11.21A66,66,0,0,1,427.76,389.87Z" transform="translate(-41.31 -111.76)"/>
      <path class="cls-3" d="M322.05,124.59a39.1,39.1,0,0,1,2-5.87,12,12,0,0,1,11.1-6.91q26.91-.12,53.82,0a12.61,12.61,0,0,1,12.37,10.65c.1.6.25,1.2.44,2.13h2.84q19.76,0,39.5,0c5.17,0,9.33,1.89,11.74,6.67a11.63,11.63,0,0,1-8.2,16.61,22.81,22.81,0,0,1-4.21.37q-81.39,0-162.79,0c-6.53,0-10.9-2.57-12.83-7.49-3.17-8.05,2.69-16.11,11.9-16.16,13.17-.08,26.34,0,39.51,0Z" transform="translate(-41.31 -111.76)"/>
    </g>
  </g>
</svg>
