<svg id="Layer_1" data-name="Layer 1" xmlns="http://www.w3.org/2000/svg" viewBox="0 0 256.5 375.18">
  <defs>
    <style>
      .cls-1 {
        fill: #096c37;
      }

      .cls-2 {
        fill: #2b3990;
      }
    </style>
  </defs>
  <g id="iZvQjU.tif">
    <g>
      <path class="cls-1" d="M337.31,434.05H154.89c-1.45-.49-2.89-1-4.34-1.45-9.19-2.94-14.94-9.64-15.5-18.85-1.14-18.81-2-37.63-3-56.44q-1.55-29.46-3.1-58.94-1.62-30.35-3.32-60.71-1.34-24.47-2.64-48.93c-.87-16.55-1.74-33.1-2.48-49.66-.3-6.61,2.39-10.32,8.86-11.95a46.56,46.56,0,0,1,11.26-1.46q105.51-.18,211-.1a79.9,79.9,0,0,1,16.61,1.7c6,1.3,8.58,5.29,8.41,11.52-.12,4.17-.48,8.33-.77,12.49q-1.56,22.3-3.14,44.59-2,27.82-4,55.64c-1.3,18.19-2.55,36.38-3.85,54.58q-2,28.17-4,56.35c-1.23,17.36-2.42,34.72-3.7,52.07a18.15,18.15,0,0,1-9.44,15.12C344.47,431.48,340.79,432.6,337.31,434.05ZM271.63,299l-1-.51a40.47,40.47,0,0,0-3.4,2.83c-7.91,8.09-15.71,16.29-23.71,24.29-2.45,2.44-2.39,4.09.08,6.43,8.21,7.78,16.25,15.74,24.4,23.59a45.44,45.44,0,0,0,4.37,3.14V344.53h4.47c12.15,0,24.29.06,36.43-.09,1.33,0,3.5-1,3.81-2,2.7-8.6,5.13-17.29,7.5-26,1-3.62.5-4.08-3.35-4.08H271.63Zm21.94-59.45c-.71-1.13-1.35-2.1-1.93-3.11-6.14-10.73-12.23-21.5-18.46-32.18-.63-1.08-2.33-2.51-3.21-2.32-8.92,2-17.79,4.15-26.64,6.45-3.67,1-3.78,1.56-1.85,5q5.47,9.62,11,19.2L266,256.23l-12.55,7.36a47.32,47.32,0,0,0,4.89,2c11.14,2.9,22.31,5.7,33.45,8.63,2.85.75,4.4.13,5.15-3,2.77-11.3,5.75-22.56,8.59-33.84a31,31,0,0,0,.36-4.65Zm-103,37.89c-.65,1.42-1.22,2.69-1.81,4l-15.66,33.22c-.65,1.39-1.47,2.58.24,4,6.78,5.81,13.38,11.82,20.15,17.64,3.05,2.61,3.71,2.37,5.42-1.24q8.46-17.88,16.87-35.8c1.36-2.88,2.76-5.74,4.24-8.81l13.21,6a43.57,43.57,0,0,0-1.17-5.14c-4-10.69-8.09-21.33-12-32.06-1.15-3.2-2.63-4-5.84-2.73-10.61,4.15-21.32,8.07-32,12.13a42.52,42.52,0,0,0-4.38,2.43Zm27.13,63.38v.35l11.41.6c2,.1,3.21-.66,3.24-2.81q.15-10.89.27-21.79c0-2.45-1.31-3.26-3.66-3.12-3.32.2-6.66.34-10,.26s-5.6,1.54-7,4.49c-2.79,5.91-5.62,11.8-8.35,17.73-1.42,3.08-.84,4.08,2.67,4.25C210.1,340.9,213.92,340.77,217.72,340.77ZM248.85,238a17.16,17.16,0,0,0-1-3.57q-5.21-9.36-10.6-18.63c-1.21-2.07-2.71-2.07-4.19-.11q-7.12,9.41-14.3,18.77c-1.4,1.84-1,3.25.76,4.51,5.83,4.13,11.68,8.24,17.48,12.42,1.93,1.39,3.17.87,4.35-1,2-3.11,4.14-6.12,6.13-9.23A20.74,20.74,0,0,0,248.85,238Zm61.62,69.47h10.36c2.55,0,3.59-1.12,2.55-3.6-3-7.24-6.1-14.46-9.14-21.68-.87-2.06-2.32-2.59-4.3-1.67-6.48,3-12.94,6-19.41,9-2.06.95-2.41,2.28-1.34,4.3,1.62,3,3.11,6.16,4.53,9.3a6.9,6.9,0,0,0,6.74,4.34C303.8,307.46,307.13,307.42,310.47,307.42Z" transform="translate(-120.33 -58.86)"/>
      <path class="cls-2" d="M194.7,76.17c1-3,1.45-5.64,2.64-7.91,3.12-6,8.22-9.29,15-9.32q36.32-.16,72.61,0A17,17,0,0,1,301.6,73.3c.15.81.34,1.62.61,2.87h57.11c7,0,12.58,2.54,15.84,9a15.69,15.69,0,0,1-11.07,22.4,30.84,30.84,0,0,1-5.68.5q-109.8,0-219.61,0c-8.8,0-14.7-3.46-17.3-10.1-4.27-10.86,3.63-21.72,16.06-21.8,17.76-.11,35.52,0,53.29,0Z" transform="translate(-120.33 -58.86)"/>
    </g>
  </g>
</svg>
