<svg xmlns="http://www.w3.org/2000/svg" viewBox="0 0 380.83 587.5"><defs><style>.cls-1{fill:#1e1f28;}.cls-2,.cls-3,.cls-5,.cls-7,.cls-8,.cls-9{fill:none;stroke-miterlimit:10;}.cls-2,.cls-5,.cls-8{stroke:#22232d;}.cls-3{stroke:#f7f8fa;stroke-width:0.25px;}.cls-14,.cls-4{fill:#f7f8fa;}.cls-4{opacity:0.14;}.cls-5{stroke-width:0.5px;opacity:0.25;}.cls-6{fill:#00e4d7;opacity:0.3;}.cls-7{stroke:#00e4d7;stroke-width:2px;}.cls-8{stroke-width:3px;}.cls-9{stroke:#bcbec0;stroke-width:4px;}.cls-10{fill:#de3428;}.cls-11,.cls-12,.cls-16{fill:#22232d;}.cls-12{font-size:10px;}.cls-12,.cls-14{font-family:Helvetica;}.cls-13,.cls-17{fill:#231f20;}.cls-14{font-size:14px;}.cls-15{letter-spacing:-0.02em;}.cls-16,.cls-17{font-size:19.24px;font-family:HelveticaNeue-CondensedBold, Helvetica Neue;font-weight:700;}.cls-18{letter-spacing:-0.06em;}</style></defs><g id="Background"><rect class="cls-1" x="0.5" y="0.5" width="379.83" height="586.5"/><rect class="cls-2" x="0.5" y="0.5" width="379.83" height="586.5"/></g><g id="house-outline"><path id="house-border" class="cls-3" d="M327.55,532.27H160V344.56H87.73V64.34h34.76V30.65h114V64.34h91.06V532.27" transform="translate(0.5 0.48)"/><path id="house-fill" class="cls-4" d="M327.55,532.27H160V344.56H87.73V64.34h34.76V30.65h114V64.34h91.06V532.27" transform="translate(0.5 0.48)"/><path id="bedroom_2_border" class="cls-3" d="M87.73,206H241.56v138.6H87.73Z" transform="translate(0.5 0.48)"/><path id="landing_border" class="cls-3" d="M327.55,406.83H264.31v-31.9l-22.75-30.37V206h86Z" transform="translate(0.5 0.48)"/><path id="bedroom_3_border" class="cls-3" d="M160,532.27V445.74l104.29-.05V406.83h63.24V532.27H160Z" transform="translate(0.5 0.48)"/><path id="bedroom_1_border" class="cls-3" d="M217.66,206H87.73V64.34h34.76V30.65h114V64.34h91.06V206H217.66" transform="translate(0.5 0.48)"/><path id="bathroom_border" class="cls-3" d="M241.56,344.56l22.75,30.37v70.76H160V344.56h81.54" transform="translate(0.5 0.48)"/><rect id="stair_border" class="cls-3" x="281.32" y="249.53" width="47.32" height="97.55" rx="2.53"/></g><g id="misc"><rect class="cls-5" x="281.91" y="259.93" width="46.14" height="93.9"/></g><g id="motion_fill"><path id="binary_sensor.landing_motion_fill" class="cls-6" d="M327.55,406.83H264.31v-31.9l-22.75-30.37V206h86Z" transform="translate(0.5 0.48)"/><path id="binary_sensor.bedroom_3_motion_fill" class="cls-6" d="M160,532.27V445.74l104.29-.05V406.83h63.24V532.27H160Z" transform="translate(0.5 0.48)"/><path id="binary_sensor.bedroom_1_motion_fill" class="cls-6" d="M217.66,206H87.73V64.34h34.76V30.65h114V64.34h91.06V206H217.66" transform="translate(0.5 0.48)"/><path id="binary_sensor.bathroom_motion_fill" class="cls-6" d="M241.56,344.56l22.75,30.37v70.76H160V344.56h81.54" transform="translate(0.5 0.48)"/><path id="binary_sensor.bedroom_2_motion_fill" class="cls-6" d="M87.73,206H241.56v138.6H87.73Z" transform="translate(0.5 0.48)"/><text x="0.5" y="0.48"/></g><g id="motion_border"><path id="binary_sensor.landing_motion_border" class="cls-7" d="M243.26,346.83l-1.7-2.27V249.05m35.37,157.78H264.31v-31.9l-1.8-2.4M295.36,206h32.19V406.83H316.93M241.56,220.32V206h13.8" transform="translate(0.5 0.48)"/><path id="binary_sensor.bedroom_3_motion_border" class="cls-7" d="M316.93,406.93h10.62V532.27H160V445.69H264.31V406.83h12.63" transform="translate(0.5 0.48)"/><path id="binary_sensor.bedroom_2_motion_border" class="cls-7" d="M241.56,249.05v95.51H87.73V206H241.56v14.36" transform="translate(0.5 0.48)"/><path id="binary_sensor.bedroom_1_motion_border" class="cls-7" d="M255.36,206H87.73V64.34h34.76V30.65h114V64.34h91.06V206H295.36" transform="translate(0.5 0.48)"/><path id="binary_sensor.bathroom_motion_border" class="cls-7" d="M262.51,372.53l1.8,2.4v70.76H160V344.56h81.54m0,0,1.7,2.27" transform="translate(0.5 0.48)"/><line id="sensor.stair_led_strip_mid" class="cls-8" x1="321.43" y1="249.54" x2="321.43" y2="347.08"/><line id="sensor.stair_led_strip_top" class="cls-8" x1="321.43" y1="347.01" x2="321.43" y2="405.71"/></g><g id="openings"><path id="binary_sensor.bedroom_1_window_2" class="cls-9" d="M126.32,30.65h54.43" transform="translate(0.5 0.48)"/><path id="binary_sensor.bedroom_1_window_3" class="cls-9" d="M179.2,30.65h53.43" transform="translate(0.5 0.48)"/><path id="binary_sensor.bedroom_1_window_1" class="cls-9" d="M122.12,62.51V34.31" transform="translate(0.5 0.48)"/><path id="binary_sensor.bedroom_1_window_4" class="cls-9" d="M236.49,62.51V34.31" transform="translate(0.5 0.48)"/><path id="binary_sensor.bedroom_1_window_5" class="cls-9" d="M278.93,64.34h42" transform="translate(0.5 0.48)"/><path id="binary_sensor.bedroom_2_window_1" class="cls-9" d="M143.12,344.56h-42" transform="translate(0.5 0.48)"/><path id="binary_sensor.bathroom_window_1" class="cls-9" d="M160,353.42v35.86" transform="translate(0.5 0.48)"/><path id="binary_sensor.bedroom_3_window_1" class="cls-9" d="M273.28,532.27H209.84" transform="translate(0.5 0.48)"/></g><g id="sensor_battery_warnings"><path id="binary_sensor.bedroom_1_window_1_battery" class="cls-10" d="M138.7,40.51V42h1.13c.81,0,1.24.41,1.24,1.21,0,4,0,7.93,0,11.89a1,1,0,0,1-1.15,1.16q-3.6,0-7.2,0a1,1,0,0,1-1.15-1.16c0-4,0-7.93,0-11.89,0-.8.43-1.19,1.25-1.21h1.1V40.51Zm-1.61,5.54h-1.53v3.89h1.53Zm0,7.09V51.6h-1.5v1.54Z" transform="translate(0.5 0.48)"/><path id="binary_sensor.bedroom_1_window_4_battery" class="cls-10" d="M226.55,40.51V42h1.13c.82,0,1.25.41,1.25,1.21,0,4,0,7.93,0,11.89a1,1,0,0,1-1.15,1.16c-2.4,0-4.81,0-7.21,0a1,1,0,0,1-1.15-1.16c0-4,0-7.93,0-11.89A1.11,1.11,0,0,1,220.67,42h1.1V40.51ZM225,46.05h-1.54v3.89H225Zm0,7.09V51.6h-1.5v1.54Z" transform="translate(0.5 0.48)"/><path id="binary_sensor.bedroom_1_window_2_battery" class="cls-10" d="M156.75,24.61v1.52h1.13c.81,0,1.24.42,1.24,1.22,0,4,0,7.93,0,11.89A1,1,0,0,1,158,40.4q-3.6,0-7.2,0a1,1,0,0,1-1.15-1.16c0-4,0-7.93,0-11.89,0-.8.43-1.19,1.25-1.22H152V24.61Zm-1.61,5.54h-1.53V34h1.53Zm0,7.09V35.7h-1.5v1.54Z" transform="translate(0.5 0.48)"/><path id="binary_sensor.bedroom_1_window_3_battery" class="cls-10" d="M207.51,24v1.53h1.13c.81,0,1.24.41,1.24,1.21,0,4,0,7.93,0,11.9a1,1,0,0,1-1.15,1.15q-3.6,0-7.2,0a1,1,0,0,1-1.15-1.15c0-4,0-7.93,0-11.9,0-.8.43-1.19,1.25-1.21h1.1V24Zm-1.61,5.54h-1.53v3.89h1.53Zm0,7.09V35.1h-1.5v1.54Z" transform="translate(0.5 0.48)"/><path id="binary_sensor.bedroom_2_window_1_battery" class="cls-10" d="M124.5,337.79v1.53h1.13a1.11,1.11,0,0,1,1.24,1.21c0,4,0,7.93,0,11.9a1,1,0,0,1-1.15,1.16q-3.6,0-7.2,0a1,1,0,0,1-1.15-1.16c0-4,0-7.93,0-11.9,0-.8.43-1.19,1.25-1.21h1.1v-1.53Zm-1.61,5.55h-1.53v3.88h1.53Zm0,7.08v-1.54h-1.5v1.54Z" transform="translate(0.5 0.48)"/><path id="binary_sensor.bathroom_window_1_battery" class="cls-10" d="M176.33,363.44V365c.4,0,.76,0,1.13,0a1.12,1.12,0,0,1,1.25,1.22c0,4,0,7.93,0,11.89a1,1,0,0,1-1.15,1.16q-3.62,0-7.21,0a1,1,0,0,1-1.15-1.16c0-4,0-7.93,0-11.9a1.12,1.12,0,0,1,1.25-1.21c.35,0,.7,0,1.1,0v-1.53Zm-1.6,5.55h-1.54v3.89h1.54Zm0,7.09v-1.54h-1.5v1.54Z" transform="translate(0.5 0.48)"/><path id="binary_sensor.bedroom_3_window_1_battery" class="cls-10" d="M243.94,523.27v1.53h1.12c.82,0,1.25.41,1.25,1.21,0,4,0,7.93,0,11.89a1,1,0,0,1-1.15,1.16q-3.6,0-7.2,0a1,1,0,0,1-1.15-1.16c0-4,0-7.93,0-11.89,0-.8.43-1.19,1.25-1.21h1.1v-1.53Zm-1.61,5.54H240.8v3.89h1.53Zm0,7.09v-1.54h-1.5v1.54Z" transform="translate(0.5 0.48)"/><path id="binary_sensor.bedroom_1_window_5_battery" class="cls-10" d="M302.31,56.44V58h1.12c.82,0,1.25.41,1.25,1.21,0,4,0,7.93,0,11.89a1,1,0,0,1-1.15,1.16q-3.6,0-7.2,0a1,1,0,0,1-1.15-1.16c0-4,0-7.93,0-11.89,0-.8.43-1.19,1.25-1.21h1.1V56.44ZM300.7,62h-1.53v3.89h1.53Zm0,7.09V67.53h-1.49v1.54Z" transform="translate(0.5 0.48)"/></g><g id="icons"><path id="sensor.living_room_motion" class="cls-11" d="M96,88.9V86.29c8.62-.92,13.42-5.68,14.41-14.44h2.5C113.42,80,106.38,88.94,96,88.9Zm11.25-17h-2.67c-.55,5.23-3.43,8-8.57,8.56v2.74C103,83.13,107.55,77.26,107.25,71.92ZM96,77.5a5.51,5.51,0,0,0,5.55-5.59H96Z" transform="translate(0.5 0.48)"/><path id="light.shelly_shdm_1_db3e10" class="cls-11" d="M194,114.93v-7.66h3v7.66c1.34,0,2.57,0,3.8,0,.37,0,.93.16,1.06.43,2,3.89,4,7.81,6,11.85H183.22c.15-.36.27-.72.44-1,1.71-3.42,3.46-6.83,5.14-10.27a1.48,1.48,0,0,1,1.67-1C191.58,115,192.7,114.93,194,114.93Zm1.62,17a2.87,2.87,0,0,0,2.84-3H192.5C192.76,130.88,193.92,132,195.58,131.92Z" transform="translate(0.5 0.48)"/><path id="sensor.living_room_motion-2" data-name="sensor.living_room_motion" class="cls-11" d="M112.42,335.35h-2.61c-.92-8.62-5.68-13.42-14.44-14.4v-2.51C103.56,317.93,112.46,325,112.42,335.35Zm-17-11.25v2.67c5.23.55,8,3.43,8.56,8.57h2.74C106.65,328.36,100.78,323.81,95.44,324.1ZM101,335.31a5.51,5.51,0,0,0-5.59-5.55v5.55Z" transform="translate(0.5 0.48)"/><path id="light.shelly_shdm_1_f3a14a" class="cls-11" d="M163.08,269.13v-7.66h3v7.66c1.33,0,2.57,0,3.8,0,.37,0,.93.17,1.06.43,2,3.9,4,7.82,6,11.86H152.34c.15-.36.27-.72.44-1.05,1.71-3.42,3.46-6.83,5.14-10.27a1.49,1.49,0,0,1,1.67-1C160.7,269.19,161.81,269.13,163.08,269.13Zm1.62,17a2.88,2.88,0,0,0,2.84-3h-5.92C161.88,285.08,163,286.19,164.7,286.13Z" transform="translate(0.5 0.48)"/><path id="switch.shelly_shsw_1_c4e83e" class="cls-11" d="M283,289.1v-7.66h3v7.66c1.33,0,2.56,0,3.79,0,.37,0,.93.17,1.07.43,2,3.89,4,7.81,6,11.86H272.25c.15-.37.27-.72.43-1.05,1.72-3.42,3.47-6.83,5.14-10.27a1.51,1.51,0,0,1,1.68-1C280.61,289.16,281.72,289.1,283,289.1Zm1.62,17a2.88,2.88,0,0,0,2.83-3h-5.91C281.78,305.05,283,306.16,284.61,306.1Z" transform="translate(0.5 0.48)"/><path id="switch.shelly_shsw_1_ba6933" class="cls-11" d="M210.6,392.51v-7.65h3v7.66c1.33,0,2.57,0,3.79,0,.38,0,.94.17,1.07.44,2,3.89,4,7.81,6,11.85H199.86c.15-.36.27-.72.43-1.05,1.72-3.42,3.47-6.83,5.15-10.27a1.48,1.48,0,0,1,1.67-1C208.22,392.58,209.33,392.51,210.6,392.51Zm1.62,17a2.88,2.88,0,0,0,2.84-3h-5.92C209.39,408.46,210.56,409.58,212.22,409.51Z" transform="translate(0.5 0.48)"/><path id="switch.shelly_shsw_1_b90033" class="cls-11" d="M240,484.31v-7.66h3v7.66c1.33,0,2.56,0,3.79,0,.37,0,.93.16,1.07.43,2,3.89,4,7.81,6,11.86h-24.6c.15-.37.26-.73.43-1.06,1.72-3.42,3.46-6.83,5.14-10.27a1.51,1.51,0,0,1,1.68-1C237.61,484.37,238.73,484.31,240,484.31Zm1.63,17a2.87,2.87,0,0,0,2.83-3h-5.92C238.79,500.26,240,501.37,241.62,501.3Z" transform="translate(0.5 0.48)"/></g><g id="temp"><g id="sensor.living_room_therm"><path class="cls-11" d="M101.35,198.29H101a2.16,2.16,0,0,0-.49-.16,5,5,0,0,1-4.32-3.48,5.2,5.2,0,0,1,1.32-5.57A1.77,1.77,0,0,0,98,188c0-2.53,0-5.06,0-7.59s1.73-3.91,4-3.43a3.23,3.23,0,0,1,2.4,3.43c0,2.5,0,5,0,7.5a1.9,1.9,0,0,0,.52,1.21,5.2,5.2,0,0,1-.37,7.78A14.36,14.36,0,0,1,101.35,198.29Zm-1.26-15c0,2,0,3.86,0,5.73a1.07,1.07,0,0,1-.6,1.14,3.08,3.08,0,0,0-1.5,3.51,3.27,3.27,0,0,0,2.76,2.46,3.23,3.23,0,0,0,3.36-1.85,2.83,2.83,0,0,0-.78-3.69c-1.17-.73-1.11-1.64-1.09-2.7,0-1.28,0-2.56,0-3.84,0-.26,0-.52,0-.76Z" transform="translate(0.5 0.48)"/></g><text id="sensor.living_room_temp_text" class="cls-12" transform="translate(110.25 186.33)">TºC<tspan class="cls-13"><tspan x="0" y="12">H%</tspan></tspan></text><g id="sensor.living_room_therm-2" data-name="sensor.living_room_therm"><path class="cls-11" d="M101.73,234.52h-.35a3.22,3.22,0,0,0-.5-.16,5,5,0,0,1-4.32-3.48,5.2,5.2,0,0,1,1.32-5.56,1.74,1.74,0,0,0,.45-1.07c0-2.53,0-5.06,0-7.59s1.73-3.91,4-3.42a3.23,3.23,0,0,1,2.4,3.42c0,2.5,0,5,0,7.5a2,2,0,0,0,.52,1.21,5.2,5.2,0,0,1-.37,7.78A13.91,13.91,0,0,1,101.73,234.52Zm-1.26-15c0,2,0,3.86,0,5.74a1.08,1.08,0,0,1-.6,1.14,3.08,3.08,0,0,0-1.5,3.5,3.26,3.26,0,0,0,6.12.61,2.82,2.82,0,0,0-.78-3.69c-1.17-.73-1.11-1.64-1.09-2.7,0-1.28,0-2.56,0-3.84,0-.26,0-.51,0-.76Z" transform="translate(0.5 0.48)"/></g><text id="sensor.living_room_temp_text-2" data-name="sensor.living_room_temp_text" class="cls-12" transform="translate(110.63 222.57)">TºC<tspan class="cls-13"><tspan x="0" y="12">H%</tspan></tspan></text><g id="sensor.living_room_therm-3" data-name="sensor.living_room_therm"><path class="cls-11" d="M233.31,440H233a2.91,2.91,0,0,0-.5-.16,5,5,0,0,1-4.32-3.48,5.2,5.2,0,0,1,1.33-5.56,1.8,1.8,0,0,0,.45-1.07c0-2.53,0-5.06,0-7.59s1.72-3.91,4-3.42a3.23,3.23,0,0,1,2.41,3.42c0,2.5,0,5,0,7.5a1.92,1.92,0,0,0,.51,1.21,5.19,5.19,0,0,1-.36,7.78A13.91,13.91,0,0,1,233.31,440Zm-1.26-15c0,2,0,3.86,0,5.74a1.08,1.08,0,0,1-.6,1.14,3.05,3.05,0,0,0-1.5,3.5,3.26,3.26,0,0,0,6.12.62,2.84,2.84,0,0,0-.78-3.7c-1.17-.73-1.11-1.64-1.09-2.69,0-1.29,0-2.57,0-3.85,0-.26,0-.51-.05-.76Z" transform="translate(0.5 0.48)"/></g><text id="sensor.living_room_temp_text-3" data-name="sensor.living_room_temp_text" class="cls-12" transform="translate(242.21 428.03)">TºC<tspan class="cls-13"><tspan x="0" y="12">H%</tspan></tspan></text><g id="sensor.living_room_therm-4" data-name="sensor.living_room_therm"><path class="cls-11" d="M171.42,525.18h-.36a4.83,4.83,0,0,0-.5-.16,4.94,4.94,0,0,1-4.32-3.48,5.2,5.2,0,0,1,1.32-5.56,1.72,1.72,0,0,0,.45-1.06c0-2.53,0-5.06,0-7.59s1.73-3.91,4-3.43a3.25,3.25,0,0,1,2.41,3.43c0,2.5,0,5,0,7.5A2,2,0,0,0,175,516a5.21,5.21,0,0,1-.36,7.78A14.54,14.54,0,0,1,171.42,525.18Zm-1.27-15c0,2,0,3.86,0,5.74a1.11,1.11,0,0,1-.6,1.14,3.05,3.05,0,0,0-1.5,3.5,3.26,3.26,0,0,0,6.12.62,2.84,2.84,0,0,0-.79-3.7c-1.17-.72-1.1-1.63-1.09-2.69,0-1.28,0-2.57,0-3.85,0-.25,0-.51,0-.76Z" transform="translate(0.5 0.48)"/></g><text id="sensor.living_room_temp_text-4" data-name="sensor.living_room_temp_text" class="cls-12" transform="translate(180.31 513.23)">TºC<tspan class="cls-13"><tspan x="0" y="12">H%</tspan></tspan></text></g><g id="text"><text class="cls-14" transform="translate(361.83 172.62) rotate(-90)">FIRS<tspan class="cls-15" x="31.89" y="0">T</tspan><tspan x="40.2" y="0" xml:space="preserve"> FLOOR</tspan></text><text class="cls-16" transform="translate(321.43 137.31) rotate(-90)">MASTER</text><text class="cls-16" transform="translate(236.61 340.73) rotate(-89.55)">BEDROOM 2</text><text class="cls-16" transform="translate(321.43 504.46) rotate(-90)">BEDROOM 3</text><text class="cls-17" transform="translate(181.25 441.12) rotate(-90)">B<tspan class="cls-18" x="10.7" y="0">A</tspan><tspan x="20.34" y="0">TH</tspan></text><text class="cls-16" transform="translate(263.01 282.03) rotate(-90)">LANDING</text></g></svg>