<svg xmlns="http://www.w3.org/2000/svg" viewBox="0 0 365.93 634.09">
  <defs>
    <style>
      .cls-1, .cls-2, .cls-4, .cls-6, .cls-7 {
        fill: none;
        stroke-miterlimit: 10;
      }

      .cls-1 {
        stroke: #fff;
      }

      .cls-1, .cls-2 {
        stroke-width: 0.25px;
      }

      .cls-2 {
        stroke: #f7f8fa;
      }

      .cls-3, .cls-9 {
        fill: #f7f8fa;
      }

      .cls-3 {
        opacity: 0.14;
      }

      .cls-4 {
        stroke: #22232d;
        stroke-width: 0.5px;
        opacity: 0.25;
      }

      .cls-5 {
        fill: #39a3dc;
        opacity: 0.3;
      }

      .cls-6 {
        stroke: #5b71b6;
        stroke-width: 2px;
      }

      .cls-7 {
        stroke: #bcbec0;
        stroke-width: 4px;
      }

      .cls-8 {
        fill: #ababab;
      }

      .cls-10 {
        fill: #5b71b6;
      }
    </style>
  </defs>
  <g id="Background">
    <rect class="cls-1" x="0.13" y="0.13" width="365.68" height="633.84"/>
  </g>
  <g id="house-outline">
    <path id="house-border" class="cls-2" d="M327.55,582.44H160V394.74H87.73V114.52h34.76V80.82h114v33.7h91.06V582.44" transform="translate(-14.02 -32.51)"/>
    <path id="house-fill" class="cls-3" d="M327.55,582.44H160V394.74H87.73V114.52h34.76V80.82h114v33.7h91.06V582.44" transform="translate(-14.02 -32.51)"/>
    <path id="bedroom_2_border" class="cls-2" d="M87.73,256.14H241.56v138.6H87.73Z" transform="translate(-14.02 -32.51)"/>
    <path id="landing_border" class="cls-2" d="M327.55,457H264.31v-31.9l-22.75-30.37V256.14h86Z" transform="translate(-14.02 -32.51)"/>
    <path id="bedroom_3_border" class="cls-2" d="M160,582.44V495.92l104.29-.06V457h63.24V582.44H160Z" transform="translate(-14.02 -32.51)"/>
    <path id="bedroom_1_border" class="cls-2" d="M217.66,256.14H87.73V114.52h34.76V80.82h114v33.7h91.06V256.14H217.66" transform="translate(-14.02 -32.51)"/>
    <path id="bathroom_border" class="cls-2" d="M241.56,394.74l22.75,30.37v70.75H160V394.74h81.54" transform="translate(-14.02 -32.51)"/>
    <rect class="cls-4" x="267.38" y="277.12" width="46.14" height="93.9"/>
  </g>
  <g id="motion_fill">
    <path id="binary_sensor.landing_motion_fill" class="cls-5" d="M327.55,457H264.31v-31.9l-22.75-30.37V256.14h86Z" transform="translate(-14.02 -32.51)"/>
  </g>
  <g id="motion_border">
    <path id="binary_sensor.landing_motion_border" class="cls-6" d="M243.26,397l-1.7-2.27V299.23M276.93,457H264.31v-31.9l-1.8-2.41m32.85-166.56h32.19V457H316.93M241.56,270.5V256.14h13.8" transform="translate(-14.02 -32.51)"/>
    <path id="binary_sensor.bedroom_3_motion_border" class="cls-6" d="M316.93,457.11h10.62V582.44H160V495.86H264.31V457h12.63" transform="translate(-14.02 -32.51)"/>
    <path id="binary_sensor.bedroom_2_motion_border" class="cls-6" d="M241.56,299.23v95.51H87.73V256.14H241.56V270.5" transform="translate(-14.02 -32.51)"/>
    <path id="binary_sensor.bedroom_1_motion_border" class="cls-6" d="M255.36,256.14H87.73V114.52h34.76V80.82h114v33.7h91.06V256.14H295.36" transform="translate(-14.02 -32.51)"/>
    <path id="binary_sensor.bathroom_motion_border" class="cls-6" d="M262.51,422.7l1.8,2.41v70.75H160V394.74h81.54m0,0,1.7,2.27" transform="translate(-14.02 -32.51)"/>
  </g>
  <g id="openings">
    <path id="binary_sensor.bedroom_1_window_2" class="cls-7" d="M126.32,80.82h54.43" transform="translate(-14.02 -32.51)"/>
    <path id="binary_sensor.bedroom_1_window_3" class="cls-7" d="M179.2,80.82h53.43" transform="translate(-14.02 -32.51)"/>
    <path id="binary_sensor.bedroom_1_window_1" class="cls-7" d="M122.12,112.69V84.49" transform="translate(-14.02 -32.51)"/>
    <path id="binary_sensor.bedroom_1_window_4" class="cls-7" d="M236.49,112.69V84.49" transform="translate(-14.02 -32.51)"/>
    <path id="binary_sensor.bedroom_1_window_5" class="cls-7" d="M278.93,114.52h42" transform="translate(-14.02 -32.51)"/>
    <path id="binary_sensor.bedroom_2_window_1" class="cls-7" d="M143.12,394.74h-42" transform="translate(-14.02 -32.51)"/>
    <path id="binary_sensor.bathroom_window_1" class="cls-7" d="M160,403.59v35.87" transform="translate(-14.02 -32.51)"/>
    <path id="binary_sensor.bedroom_3_window_1" class="cls-7" d="M273.28,582.44H209.84" transform="translate(-14.02 -32.51)"/>
  </g>
  <g id="icons">
    <line id="light.wled_light" class="cls-7" x1="306.9" y1="277.12" x2="306.9" y2="422.49"/>
    <path id="light.shelly_shdm_1_db3e10" class="cls-8" d="M194,165.1v-7.66h3v7.66c1.34,0,2.57,0,3.8,0,.37,0,.93.17,1.06.43,2,3.89,4,7.82,6,11.86H183.22c.15-.36.27-.72.44-1,1.71-3.42,3.46-6.83,5.14-10.27a1.5,1.5,0,0,1,1.67-1C191.58,165.16,192.7,165.1,194,165.1Zm1.62,17a2.87,2.87,0,0,0,2.84-3H192.5C192.76,181.05,193.92,182.16,195.58,182.1Z" transform="translate(-14.02 -32.51)"/>
    <path id="light.shelly_shdm_1_f3a14a" class="cls-8" d="M163.08,319.31v-7.66h3v7.66c1.33,0,2.57,0,3.8,0,.37,0,.93.17,1.06.43,2,3.89,4,7.81,6,11.86H152.34c.15-.37.27-.72.44-1.05,1.71-3.43,3.46-6.83,5.14-10.27a1.49,1.49,0,0,1,1.67-1C160.7,319.37,161.81,319.31,163.08,319.31Zm1.62,17a2.89,2.89,0,0,0,2.84-3h-5.92C161.88,335.26,163,336.37,164.7,336.31Z" transform="translate(-14.02 -32.51)"/>
    <path id="light.shelly_shsw_1_c4e83e" class="cls-8" d="M283,339.28v-7.66h3v7.66c1.33,0,2.56,0,3.79,0,.37,0,.93.17,1.07.43,2,3.89,4,7.81,6,11.86H272.25c.15-.37.27-.72.43-1.06,1.72-3.42,3.47-6.82,5.14-10.27a1.51,1.51,0,0,1,1.68-1C280.61,339.34,281.72,339.28,283,339.28Zm1.62,17a2.88,2.88,0,0,0,2.83-3h-5.91C281.78,355.23,283,356.34,284.61,356.28Z" transform="translate(-14.02 -32.51)"/>
    <path id="light.shelly_shsw_1_ba6933" class="cls-8" d="M210.6,442.69V435h3v7.66c1.33,0,2.57,0,3.79,0,.38,0,.94.17,1.07.43,2,3.89,4,7.81,6,11.86H199.86c.15-.37.27-.72.43-1.05,1.72-3.43,3.47-6.83,5.15-10.27a1.49,1.49,0,0,1,1.67-1C208.22,442.75,209.33,442.69,210.6,442.69Zm1.62,17a2.89,2.89,0,0,0,2.84-3h-5.92C209.39,458.64,210.56,459.75,212.22,459.69Z" transform="translate(-14.02 -32.51)"/>
    <path id="light.shelly_shsw_1_b90033" class="cls-8" d="M240,534.48v-7.66h3v7.66c1.33,0,2.56,0,3.79,0,.37,0,.93.17,1.07.43,2,3.9,4,7.82,6,11.86h-24.6c.15-.36.26-.72.43-1,1.72-3.42,3.46-6.83,5.14-10.27a1.51,1.51,0,0,1,1.68-1C237.61,534.54,238.73,534.48,240,534.48Zm1.63,17a2.87,2.87,0,0,0,2.83-3h-5.92C238.79,550.43,240,551.54,241.62,551.48Z" transform="translate(-14.02 -32.51)"/>
    <path id="light.shelly_shsw_1_a4cf12f42d0b" class="cls-8" d="M236.82,240.24H217.1l5-14.79c3.12,0,6.2,0,9.28,0a.89.89,0,0,1,.66.44C233.62,230.66,235.21,235.43,236.82,240.24Zm-17.18,9.87h14.64v-2.42h-6.13V241.6h-2.43v6.15h-6.08Z" transform="translate(-14.02 -32.51)"/>
    <path id="light." class="cls-8" d="M139.61,240.24H119.89l5-14.79c3.11,0,6.19,0,9.27,0a.87.87,0,0,1,.66.44C136.4,230.66,138,235.43,139.61,240.24Zm-17.19,9.87h14.65v-2.42h-6.13V241.6H128.5v6.15h-6.08Z" transform="translate(-14.02 -32.51)"/>
    <path id="light.-2" data-name="light." class="cls-8" d="M301.24,566.27H281.53l5-14.79c3.12,0,6.2,0,9.28,0a.87.87,0,0,1,.66.44C298,556.69,299.63,561.45,301.24,566.27Zm-17.18,9.87H298.7v-2.42h-6.12v-6.09h-2.44v6.15h-6.08Z" transform="translate(-14.02 -32.51)"/>
  </g>
  <g id="text">
    <g>
      <path class="cls-9" d="M351.29,221.12v-7h1.23v5.6h3.05v-4.93h1.19v4.93h4.57v1.36Z" transform="translate(-14.02 -32.51)"/>
      <path class="cls-9" d="M351.29,212.39V211h10v1.37Z" transform="translate(-14.02 -32.51)"/>
      <path class="cls-9" d="M351.29,208.65v-4.57a4.56,4.56,0,0,1,.33-1.86,2.39,2.39,0,0,1,2.37-1.39,2.66,2.66,0,0,1,1.48.38,2.6,2.6,0,0,1,.92,1,2.1,2.1,0,0,1,.63-.89,2.23,2.23,0,0,1,1.27-.33l1.34-.05a4,4,0,0,0,.86-.09.82.82,0,0,0,.61-.44h.23v1.67a1.7,1.7,0,0,1-.34.11,6,6,0,0,1-.79.07l-1.67.08a1.41,1.41,0,0,0-1.32.71,2.74,2.74,0,0,0-.19,1.19v3h4.31v1.36Zm4.6-4.42a2.47,2.47,0,0,0-.39-1.47,1.55,1.55,0,0,0-1.38-.55,1.5,1.5,0,0,0-1.46.76,2.38,2.38,0,0,0-.2,1.09v3.23h3.43Z" transform="translate(-14.02 -32.51)"/>
      <path class="cls-9" d="M358.09,197.81a2.82,2.82,0,0,0,1.39-.39,2.53,2.53,0,0,0,1-2.29,3.86,3.86,0,0,0-.22-1.35,1.53,1.53,0,0,0-1.51-1.17,1.33,1.33,0,0,0-1.17.5,4.84,4.84,0,0,0-.6,1.57l-.3,1.32a6.17,6.17,0,0,1-.67,1.83,2.11,2.11,0,0,1-1.88.93,2.93,2.93,0,0,1-2.22-.92,3.56,3.56,0,0,1-.87-2.58,4.47,4.47,0,0,1,.76-2.61,2.81,2.81,0,0,1,2.44-1.07v1.28a2.41,2.41,0,0,0-1.23.42,2.35,2.35,0,0,0-.79,2,2.32,2.32,0,0,0,.5,1.66,1.6,1.6,0,0,0,1.18.5,1.17,1.17,0,0,0,1.08-.59,8.29,8.29,0,0,0,.55-1.77l.32-1.37a4.24,4.24,0,0,1,.63-1.52,2.41,2.41,0,0,1,2-.93,2.56,2.56,0,0,1,2.38,1.19,5.17,5.17,0,0,1,.72,2.75,4.1,4.1,0,0,1-.95,2.86,3.3,3.3,0,0,1-2.58,1Z" transform="translate(-14.02 -32.51)"/>
      <path class="cls-9" d="M351.29,182.06h1.19v3.39h8.85v1.37h-8.85v3.38h-1.19Z" transform="translate(-14.02 -32.51)"/>
      <path class="cls-9" d="M351.29,177v-7h1.23v5.61h3.05v-4.93h1.19v4.93h4.57V177Z" transform="translate(-14.02 -32.51)"/>
      <path class="cls-9" d="M351.29,168.62v-1.36h8.84v-5h1.2v6.4Z" transform="translate(-14.02 -32.51)"/>
      <path class="cls-9" d="M352.72,152.56a5.52,5.52,0,0,1,3.41-1,6,6,0,0,1,3.74,1.14,4.52,4.52,0,0,1,1.75,3.82,4.58,4.58,0,0,1-1.53,3.65,5.82,5.82,0,0,1-3.73,1.18,6,6,0,0,1-3.49-1A4.39,4.39,0,0,1,351,156.5,4.59,4.59,0,0,1,352.72,152.56Zm6.4,1.2a5.46,5.46,0,0,0-3-.81,4.22,4.22,0,0,0-2.86.93,3.16,3.16,0,0,0-1.08,2.53,3.33,3.33,0,0,0,1.07,2.55,4.56,4.56,0,0,0,3.16,1,4.66,4.66,0,0,0,2.82-.84,3.2,3.2,0,0,0,1.14-2.74A2.82,2.82,0,0,0,359.12,153.76Z" transform="translate(-14.02 -32.51)"/>
      <path class="cls-9" d="M352.72,141.67a5.52,5.52,0,0,1,3.41-1,6,6,0,0,1,3.74,1.14,4.52,4.52,0,0,1,1.75,3.82,4.58,4.58,0,0,1-1.53,3.65,5.76,5.76,0,0,1-3.73,1.18,6,6,0,0,1-3.49-1,4.39,4.39,0,0,1-1.86-3.84A4.59,4.59,0,0,1,352.72,141.67Zm6.4,1.2a5.46,5.46,0,0,0-3-.81,4.22,4.22,0,0,0-2.86.93,3.16,3.16,0,0,0-1.08,2.53,3.33,3.33,0,0,0,1.07,2.55,4.56,4.56,0,0,0,3.16,1,4.66,4.66,0,0,0,2.82-.84,3.2,3.2,0,0,0,1.14-2.74A2.82,2.82,0,0,0,359.12,142.87Z" transform="translate(-14.02 -32.51)"/>
      <path class="cls-9" d="M351.29,138.89v-4.57a4.56,4.56,0,0,1,.33-1.86,2.39,2.39,0,0,1,2.37-1.39,2.66,2.66,0,0,1,1.48.38,2.6,2.6,0,0,1,.92,1,2.1,2.1,0,0,1,.63-.89,2.23,2.23,0,0,1,1.27-.33l1.34-.05a4,4,0,0,0,.86-.09.82.82,0,0,0,.61-.44h.23v1.67a1.7,1.7,0,0,1-.34.11c-.13,0-.4.05-.79.07l-1.67.08a1.41,1.41,0,0,0-1.32.71,2.74,2.74,0,0,0-.19,1.19v3h4.31v1.36Zm4.6-4.42a2.47,2.47,0,0,0-.39-1.47,1.55,1.55,0,0,0-1.38-.55,1.5,1.5,0,0,0-1.46.76,2.37,2.37,0,0,0-.2,1.08v3.24h3.43Z" transform="translate(-14.02 -32.51)"/>
    </g>
    <g>
      <path class="cls-10" d="M307.19,181.87l9.7-2v0l-9.7-2v-4.1h13.74v2.54H310v0l11,2.44V181l-11,2.44v0h11V186H307.19Z" transform="translate(-14.02 -32.51)"/>
      <path class="cls-10" d="M307.19,165.71l13.74-3.64V165l-2.91.63v3.66l2.91.63v2.89l-13.74-3.64Zm8.56.36-6.17,1.33v0l6.17,1.33Z" transform="translate(-14.02 -32.51)"/>
      <path class="cls-10" d="M317,158.87a4.83,4.83,0,0,0,.88-.07,1.53,1.53,0,0,0,.66-.29,1.37,1.37,0,0,0,.42-.57,2.12,2.12,0,0,0,.16-.89,1.76,1.76,0,0,0-.42-1.15,1.54,1.54,0,0,0-1.28-.51,2.11,2.11,0,0,0-.79.13,1.53,1.53,0,0,0-.61.41,3,3,0,0,0-.49.76,9.67,9.67,0,0,0-.45,1.17,10,10,0,0,1-.68,1.59,4.35,4.35,0,0,1-.85,1.13,3.1,3.1,0,0,1-1.14.66,4.83,4.83,0,0,1-1.49.21,3.83,3.83,0,0,1-3-1.13,4.55,4.55,0,0,1-1-3.12,7,7,0,0,1,.2-1.7,3.55,3.55,0,0,1,.66-1.35,3,3,0,0,1,1.15-.88,3.94,3.94,0,0,1,1.68-.32H311v2.65a2.74,2.74,0,0,0-1.51.35,1.28,1.28,0,0,0-.53,1.15,1.9,1.9,0,0,0,.13.77,1.22,1.22,0,0,0,.87.75,2.91,2.91,0,0,0,.6.06,2,2,0,0,0,1.06-.27,2.37,2.37,0,0,0,.8-1.15l.93-2.14a6.9,6.9,0,0,1,.72-1.29,3.35,3.35,0,0,1,.81-.79,2.71,2.71,0,0,1,.95-.42,5.1,5.1,0,0,1,1.15-.11,3.79,3.79,0,0,1,3.17,1.26,5.55,5.55,0,0,1,1,3.51,4.63,4.63,0,0,1-1,3.36,4,4,0,0,1-2.93,1h-.55v-2.78Z" transform="translate(-14.02 -32.51)"/>
      <path class="cls-10" d="M309.46,143.08v3h11.47v2.77H309.46v3h-2.27v-8.77Z" transform="translate(-14.02 -32.51)"/>
      <path class="cls-10" d="M309.46,134.21v4.9h3.23V134.5H315v4.61h3.7V134h2.27v7.87H307.19v-7.67Z" transform="translate(-14.02 -32.51)"/>
      <path class="cls-10" d="M307.19,127.51a3.87,3.87,0,0,1,.87-2.69,3.43,3.43,0,0,1,2.67-1,4.16,4.16,0,0,1,2.26.56,2.61,2.61,0,0,1,1.13,1.73h0a2.54,2.54,0,0,1,.68-1.52,2.78,2.78,0,0,1,1.67-.59q.39,0,.84-.06l1,0c.73,0,1.29-.06,1.67-.11a1.09,1.09,0,0,0,.79-.5h.12v3a1.53,1.53,0,0,1-.67.27c-.25,0-.51.06-.78.07l-2.63.08a2.23,2.23,0,0,0-1.27.4,1.5,1.5,0,0,0-.46,1.24v1.48h5.81v2.77H307.19Zm6,1.19a2.25,2.25,0,0,0-.47-1.54,2,2,0,0,0-1.59-.54,1.69,1.69,0,0,0-1.9,1.93v1.31h4Z" transform="translate(-14.02 -32.51)"/>
    </g>
    <g>
      <path class="cls-10" d="M222.42,384.72a6.45,6.45,0,0,1,.18-1.57,3.32,3.32,0,0,1,.59-1.24,2.68,2.68,0,0,1,1.08-.8,4.13,4.13,0,0,1,1.66-.27,3.4,3.4,0,0,1,1.91.53,2.62,2.62,0,0,1,1.08,1.57h0a2.7,2.7,0,0,1,1-1.82,3.34,3.34,0,0,1,2.22-.66,5.57,5.57,0,0,1,1.54.23,3,3,0,0,1,1.27.73,3.52,3.52,0,0,1,.86,1.33,5.51,5.51,0,0,1,.32,2l0,4.68-13.74-.11Zm5.63,1.12a2.83,2.83,0,0,0-.4-1.69,2.17,2.17,0,0,0-2.78-.07,2.34,2.34,0,0,0-.42,1.52v1l3.6,0Zm6.06-.24a2.68,2.68,0,0,0-.43-1.62,1.86,1.86,0,0,0-1.63-.63,2.79,2.79,0,0,0-1,.15,1.69,1.69,0,0,0-.64.44,1.6,1.6,0,0,0-.34.66,3.72,3.72,0,0,0-.11.85v1.19l4.14,0Z" transform="translate(-14.02 -32.51)"/>
      <path class="cls-10" d="M224.79,371l0,4.9,3.23,0,0-4.62,2.27,0,0,4.62,3.69,0,0-5.1,2.27,0-.06,7.87-13.74-.1.06-7.68Z" transform="translate(-14.02 -32.51)"/>
      <path class="cls-10" d="M222.57,364.72a5,5,0,0,1,.49-2.32,3.38,3.38,0,0,1,1.36-1.37,6.09,6.09,0,0,1,2.11-.64,19.46,19.46,0,0,1,2.76-.15,19,19,0,0,1,3.14.24,6,6,0,0,1,2.2.78,3.3,3.3,0,0,1,1.27,1.45,5.33,5.33,0,0,1,.41,2.29l0,4.37-13.74-.1Zm11.7.63a2.48,2.48,0,0,0-.24-1.17,1.74,1.74,0,0,0-.83-.71,4.58,4.58,0,0,0-1.51-.36c-.63-.06-1.41-.1-2.35-.1-.78,0-1.47,0-2.06.06a5.07,5.07,0,0,0-1.47.3,1.83,1.83,0,0,0-.89.71,2.22,2.22,0,0,0-.31,1.26v1.17l9.66.08Z" transform="translate(-14.02 -32.51)"/>
      <path class="cls-10" d="M222.66,353.24a3.86,3.86,0,0,1,.9-2.69,3.41,3.41,0,0,1,2.67-.94,4.25,4.25,0,0,1,2.26.57,2.6,2.6,0,0,1,1.11,1.74h0a2.51,2.51,0,0,1,.68-1.51,2.84,2.84,0,0,1,1.68-.58c.26,0,.54,0,.84-.05s.64,0,1,0c.73,0,1.29-.06,1.67-.11a1.1,1.1,0,0,0,.8-.49h.11l0,3a1.53,1.53,0,0,1-.67.27c-.25,0-.51.06-.78.07l-2.63.05a2.19,2.19,0,0,0-1.28.4,1.49,1.49,0,0,0-.47,1.22v1.49l5.81,0,0,2.77-13.74-.1Zm6,1.24a2.33,2.33,0,0,0-.46-1.55,2.06,2.06,0,0,0-1.59-.55,1.69,1.69,0,0,0-1.92,1.91v1.31l4,0Z" transform="translate(-14.02 -32.51)"/>
      <path class="cls-10" d="M226.7,347.83a6.39,6.39,0,0,1-2.26-.65,3.53,3.53,0,0,1-1.46-1.43,4.9,4.9,0,0,1-.51-2.48,5,5,0,0,1,.55-2.48,3.57,3.57,0,0,1,1.48-1.4,6.24,6.24,0,0,1,2.27-.62,26,26,0,0,1,2.88-.12,27.74,27.74,0,0,1,2.88.16,6.39,6.39,0,0,1,2.25.66,3.38,3.38,0,0,1,1.43,1.42,6.43,6.43,0,0,1,0,5,3.38,3.38,0,0,1-1.45,1.4,6.51,6.51,0,0,1-2.26.62,25.94,25.94,0,0,1-2.89.12A25.19,25.19,0,0,1,226.7,347.83Zm5.25-2.65a6.55,6.55,0,0,0,1.58-.26,1.72,1.72,0,0,0,.89-.57,1.89,1.89,0,0,0,0-2,1.75,1.75,0,0,0-.88-.58,6.48,6.48,0,0,0-1.58-.29c-.65-.05-1.43-.07-2.36-.08s-1.7,0-2.34.05a6.7,6.7,0,0,0-1.58.25,1.8,1.8,0,0,0-.9.57,1.6,1.6,0,0,0-.29,1,1.69,1.69,0,0,0,.27,1,1.75,1.75,0,0,0,.89.58,6.63,6.63,0,0,0,1.58.28q1,.08,2.34.09C230.52,345.24,231.3,345.22,232,345.18Z" transform="translate(-14.02 -32.51)"/>
      <path class="cls-10" d="M226.78,337.13a6.39,6.39,0,0,1-2.26-.65,3.56,3.56,0,0,1-1.46-1.42,6.09,6.09,0,0,1,0-5,3.57,3.57,0,0,1,1.48-1.4,6.45,6.45,0,0,1,2.27-.62,26,26,0,0,1,2.88-.12,25.09,25.09,0,0,1,2.88.17,6.33,6.33,0,0,1,2.25.65,3.38,3.38,0,0,1,1.43,1.42,6.43,6.43,0,0,1,0,5,3.33,3.33,0,0,1-1.45,1.4,6.39,6.39,0,0,1-2.26.62,25.75,25.75,0,0,1-2.88.12A25.37,25.37,0,0,1,226.78,337.13Zm5.25-2.65a6.09,6.09,0,0,0,1.58-.26,1.68,1.68,0,0,0,.89-.57,1.56,1.56,0,0,0,.29-1,1.66,1.66,0,0,0-.27-1,1.81,1.81,0,0,0-.88-.58,6.44,6.44,0,0,0-1.58-.28c-.64-.05-1.43-.08-2.35-.09s-1.71,0-2.35,0a6.25,6.25,0,0,0-1.58.26,1.76,1.76,0,0,0-.9.57,1.89,1.89,0,0,0,0,2,1.8,1.8,0,0,0,.89.58,6.63,6.63,0,0,0,1.58.28c.64.05,1.42.08,2.35.09S231.39,334.52,232,334.48Z" transform="translate(-14.02 -32.51)"/>
      <path class="cls-10" d="M222.9,322.09l9.72-1.89v0l-9.69-2.06,0-4.1,13.74.11,0,2.54-11-.09v0l10.95,2.53,0,2.16-11,2.36v0l11,.09,0,2.54-13.74-.11Z" transform="translate(-14.02 -32.51)"/>
      <path class="cls-10" d="M236.75,308.13a7.53,7.53,0,0,1-1.69-.2,6.81,6.81,0,0,1-1.5-.57,7.92,7.92,0,0,1-1.38-.95,14.12,14.12,0,0,1-1.37-1.33l-1-1.13a6.42,6.42,0,0,0-.75-.74,2.71,2.71,0,0,0-.68-.44,3,3,0,0,0-.75-.21,8.41,8.41,0,0,0-.93-.05c-1.13,0-1.69.43-1.7,1.33a1.48,1.48,0,0,0,.2.82,1.42,1.42,0,0,0,.58.47,2.59,2.59,0,0,0,.84.21,8.23,8.23,0,0,0,1,.06l0,2.65h-.52a4,4,0,0,1-2.91-1,4.38,4.38,0,0,1-1-3.22,4.27,4.27,0,0,1,1-3.07,3.59,3.59,0,0,1,2.76-1,5.94,5.94,0,0,1,1.22.12,4.62,4.62,0,0,1,1.08.38,5.14,5.14,0,0,1,1,.66,9.26,9.26,0,0,1,1,1l1.41,1.55a5.82,5.82,0,0,0,1.08,1,3.44,3.44,0,0,0,.91.45l0-5.14,2.16,0Z" transform="translate(-14.02 -32.51)"/>
    </g>
    <g>
      <path class="cls-10" d="M307.19,548.56a7.06,7.06,0,0,1,.17-1.57,3.3,3.3,0,0,1,.58-1.24,2.62,2.62,0,0,1,1.08-.81,4.24,4.24,0,0,1,1.65-.29,3.51,3.51,0,0,1,1.92.52,2.62,2.62,0,0,1,1.08,1.56h0a2.76,2.76,0,0,1,1-1.83,3.42,3.42,0,0,1,2.22-.67,5.56,5.56,0,0,1,1.54.21,3.19,3.19,0,0,1,1.28.72,3.75,3.75,0,0,1,.87,1.33,5.46,5.46,0,0,1,.33,2v4.68H307.19Zm5.64,1.08a2.74,2.74,0,0,0-.42-1.69,1.66,1.66,0,0,0-1.39-.53,1.7,1.7,0,0,0-1.39.49,2.32,2.32,0,0,0-.4,1.52v1h3.6Zm6.06-.29a2.75,2.75,0,0,0-.44-1.62,1.9,1.9,0,0,0-1.64-.61,2.56,2.56,0,0,0-1,.16,1.87,1.87,0,0,0-.64.44,1.56,1.56,0,0,0-.33.67,3.12,3.12,0,0,0-.1.84v1.2h4.14Z" transform="translate(-14.02 -32.51)"/>
      <path class="cls-10" d="M309.46,534.82v4.91h3.23v-4.62H315v4.62h3.7v-5.1h2.27v7.87H307.19v-7.68Z" transform="translate(-14.02 -32.51)"/>
      <path class="cls-10" d="M307.19,528.57a5,5,0,0,1,.47-2.33,3.38,3.38,0,0,1,1.35-1.38,6,6,0,0,1,2.11-.66,22.43,22.43,0,0,1,5.89,0,6.11,6.11,0,0,1,2.21.76,3.45,3.45,0,0,1,1.29,1.44,5.45,5.45,0,0,1,.42,2.29v4.37H307.19Zm11.7.54a2.38,2.38,0,0,0-.25-1.18,1.72,1.72,0,0,0-.83-.7,4.94,4.94,0,0,0-1.52-.35c-.63,0-1.41-.08-2.35-.08-.78,0-1.47,0-2.06.07a5,5,0,0,0-1.47.32,1.85,1.85,0,0,0-.88.71,2.35,2.35,0,0,0-.3,1.26v1.18h9.66Z" transform="translate(-14.02 -32.51)"/>
      <path class="cls-10" d="M307.19,517.08a3.81,3.81,0,0,1,.88-2.69,3.39,3.39,0,0,1,2.66-1A4.16,4.16,0,0,1,313,514a2.58,2.58,0,0,1,1.13,1.73h0a2.48,2.48,0,0,1,.67-1.52,2.78,2.78,0,0,1,1.67-.59q.39,0,.84-.06l1,0a16.59,16.59,0,0,0,1.67-.12,1,1,0,0,0,.79-.5h.12v3a1.53,1.53,0,0,1-.67.27c-.25,0-.51.06-.77.07l-2.64.08a2.23,2.23,0,0,0-1.27.4,1.5,1.5,0,0,0-.46,1.24v1.48h5.81v2.77H307.19Zm6,1.19a2.25,2.25,0,0,0-.47-1.54,2,2,0,0,0-1.59-.54,1.69,1.69,0,0,0-1.9,1.93v1.31h4Z" transform="translate(-14.02 -32.51)"/>
      <path class="cls-10" d="M311.18,511.64a6.19,6.19,0,0,1-2.26-.63,3.53,3.53,0,0,1-1.47-1.42,6.07,6.07,0,0,1,0-5,3.45,3.45,0,0,1,1.47-1.41,6.39,6.39,0,0,1,2.26-.64,29.8,29.8,0,0,1,5.77,0,6.39,6.39,0,0,1,2.25.64,3.27,3.27,0,0,1,1.44,1.41,6.4,6.4,0,0,1,0,5A3.35,3.35,0,0,1,319.2,511a6.19,6.19,0,0,1-2.25.63,27.82,27.82,0,0,1-5.77,0Zm5.24-2.69a6,6,0,0,0,1.57-.27,1.73,1.73,0,0,0,.89-.58,1.89,1.89,0,0,0,0-2,1.8,1.8,0,0,0-.89-.58,7,7,0,0,0-1.57-.27c-.65,0-1.44-.06-2.36-.06s-1.71,0-2.35.06a7.23,7.23,0,0,0-1.58.27,1.75,1.75,0,0,0-.89.58,1.89,1.89,0,0,0,0,2,1.69,1.69,0,0,0,.89.58,6.2,6.2,0,0,0,1.58.27c.64.05,1.43.07,2.35.07S315.77,509,316.42,509Z" transform="translate(-14.02 -32.51)"/>
      <path class="cls-10" d="M311.18,501a6.39,6.39,0,0,1-2.26-.64,3.57,3.57,0,0,1-1.47-1.41,6.09,6.09,0,0,1,0-5,3.51,3.51,0,0,1,1.47-1.41,6.39,6.39,0,0,1,2.26-.64,29.8,29.8,0,0,1,5.77,0,6.39,6.39,0,0,1,2.25.64,3.32,3.32,0,0,1,1.44,1.41,6.43,6.43,0,0,1,0,5,3.38,3.38,0,0,1-1.44,1.41A6.39,6.39,0,0,1,317,501a29.8,29.8,0,0,1-5.77,0Zm5.24-2.7A6,6,0,0,0,318,498a1.73,1.73,0,0,0,.89-.58,1.89,1.89,0,0,0,0-2,1.8,1.8,0,0,0-.89-.58,6.55,6.55,0,0,0-1.57-.26c-.65-.05-1.44-.07-2.36-.07s-1.71,0-2.35.07a6.73,6.73,0,0,0-1.58.26,1.75,1.75,0,0,0-.89.58,1.89,1.89,0,0,0,0,2,1.69,1.69,0,0,0,.89.58,6.2,6.2,0,0,0,1.58.27c.64.05,1.43.07,2.35.07S315.77,498.3,316.42,498.25Z" transform="translate(-14.02 -32.51)"/>
      <path class="cls-10" d="M307.19,485.93l9.7-2v0l-9.7-2v-4.1h13.74v2.54H310v0l11,2.45V485l-11,2.45v0h11V490H307.19Z" transform="translate(-14.02 -32.51)"/>
      <path class="cls-10" d="M318.76,468.85a1.2,1.2,0,0,0,.63-1.2,1.64,1.64,0,0,0-.17-.8,1.29,1.29,0,0,0-.47-.46,2.11,2.11,0,0,0-.71-.22,7.63,7.63,0,0,0-.84,0,6.19,6.19,0,0,0-.88.06,2.4,2.4,0,0,0-.74.26,1.42,1.42,0,0,0-.52.54,1.89,1.89,0,0,0-.19.93v.92h-1.81v-.9a1.44,1.44,0,0,0-.18-.75,1.6,1.6,0,0,0-.49-.48,2.2,2.2,0,0,0-.68-.27,4.12,4.12,0,0,0-.81-.08,2.29,2.29,0,0,0-1.38.32,1.23,1.23,0,0,0-.41,1,1.42,1.42,0,0,0,.17.72,1.12,1.12,0,0,0,.46.43,2.05,2.05,0,0,0,.7.2,8.08,8.08,0,0,0,.89,0v2.54a4,4,0,0,1-3-1,4.11,4.11,0,0,1-1-3,4.47,4.47,0,0,1,.85-2.9,3.24,3.24,0,0,1,2.66-1,3.39,3.39,0,0,1,2,.55,2.44,2.44,0,0,1,1,1.53h0a2.54,2.54,0,0,1,1.07-1.88,3.93,3.93,0,0,1,2.14-.54,6,6,0,0,1,1.43.17,3.13,3.13,0,0,1,1.32.67,3.48,3.48,0,0,1,1,1.38,5.91,5.91,0,0,1,.37,2.3,3.79,3.79,0,0,1-1.08,3,4.36,4.36,0,0,1-3.06,1H317v-2.65A4.58,4.58,0,0,0,318.76,468.85Z" transform="translate(-14.02 -32.51)"/>
    </g>
    <g>
      <path class="cls-10" d="M167,485.22a6.45,6.45,0,0,1,.18-1.57,3.09,3.09,0,0,1,.58-1.24,2.58,2.58,0,0,1,1.07-.81,4.26,4.26,0,0,1,1.66-.29,3.39,3.39,0,0,1,1.91.52,2.64,2.64,0,0,1,1.09,1.56h0a2.72,2.72,0,0,1,1-1.83,3.39,3.39,0,0,1,2.21-.67,5.56,5.56,0,0,1,1.54.21,3.06,3.06,0,0,1,1.28.72,3.56,3.56,0,0,1,.88,1.33,5.44,5.44,0,0,1,.32,2v4.68H167Zm5.64,1.08a2.73,2.73,0,0,0-.41-1.69,1.68,1.68,0,0,0-1.4-.53,1.72,1.72,0,0,0-1.38.48,2.34,2.34,0,0,0-.41,1.52v1h3.6Zm6.06-.29a2.68,2.68,0,0,0-.44-1.62,1.88,1.88,0,0,0-1.63-.62,2.55,2.55,0,0,0-1,.17,1.69,1.69,0,0,0-.64.44,1.73,1.73,0,0,0-.34.66,3.76,3.76,0,0,0-.09.85v1.19h4.13Z" transform="translate(-14.02 -32.51)"/>
      <path class="cls-10" d="M167,473.06l13.74-3.64v2.89l-2.9.63v3.66l2.9.63v2.89L167,476.48Zm8.57.36-6.18,1.33v0l6.18,1.33Z" transform="translate(-14.02 -32.51)"/>
      <path class="cls-10" d="M169.29,461.47v3h11.46v2.78H169.29v3H167v-8.78Z" transform="translate(-14.02 -32.51)"/>
      <path class="cls-10" d="M167,457.51h5.26v-3.23H167v-2.77h13.74v2.77h-6.1v3.23h6.1v2.77H167Z" transform="translate(-14.02 -32.51)"/>
    </g>
    <g>
      <path class="cls-10" d="M248.77,330.76V328h11.47v-4.9h2.27v7.67Z" transform="translate(-14.02 -32.51)"/>
      <path class="cls-10" d="M248.77,315.75l13.74-3.63V315l-2.91.64v3.65l2.91.64v2.89l-13.74-3.64Zm8.56.37-6.17,1.33v0l6.17,1.32Z" transform="translate(-14.02 -32.51)"/>
      <path class="cls-10" d="M258.18,304.61v0h-9.41V302h13.74v3.16l-9.62,3.39v0h9.62v2.54H248.77V308Z" transform="translate(-14.02 -32.51)"/>
      <path class="cls-10" d="M248.77,295.43a5,5,0,0,1,.47-2.32,3.32,3.32,0,0,1,1.35-1.38,5.77,5.77,0,0,1,2.1-.66,19.28,19.28,0,0,1,2.76-.18,20.4,20.4,0,0,1,3.14.22,6.17,6.17,0,0,1,2.2.76,3.29,3.29,0,0,1,1.29,1.45,5.26,5.26,0,0,1,.43,2.29V300H248.77Zm11.7.54a2.45,2.45,0,0,0-.25-1.17,1.67,1.67,0,0,0-.83-.7,4.67,4.67,0,0,0-1.52-.35c-.63-.06-1.41-.09-2.35-.09-.78,0-1.47,0-2.06.08a5,5,0,0,0-1.47.32,1.85,1.85,0,0,0-.88.71,2.3,2.3,0,0,0-.3,1.26v1.17h9.66Z" transform="translate(-14.02 -32.51)"/>
      <path class="cls-10" d="M248.77,288.93v-2.77h13.74v2.77Z" transform="translate(-14.02 -32.51)"/>
      <path class="cls-10" d="M258.18,277.56v0h-9.41V275h13.74v3.15l-9.62,3.39v0h9.62v2.54H248.77v-3.19Z" transform="translate(-14.02 -32.51)"/>
      <path class="cls-10" d="M252.06,267a2.52,2.52,0,0,0-.74.28,1.77,1.77,0,0,0-.56.49,1.16,1.16,0,0,0-.22.72,1.51,1.51,0,0,0,1.12,1.45,11.07,11.07,0,0,0,3.69.44c.82,0,1.57,0,2.23-.08a8.23,8.23,0,0,0,1.71-.28,2.42,2.42,0,0,0,1.07-.57,1.33,1.33,0,0,0,.38-1,1.31,1.31,0,0,0-.14-.54,1.76,1.76,0,0,0-.4-.56,2.22,2.22,0,0,0-.68-.44,2.64,2.64,0,0,0-1-.17h-1.4v1.83h-2v-4.48h7.41v2h-1.27v0a2.91,2.91,0,0,1,1.14,1.21,3.79,3.79,0,0,1,.34,1.68,4.3,4.3,0,0,1-.44,2.07,3,3,0,0,1-1.37,1.25,7.19,7.19,0,0,1-2.28.61,28.92,28.92,0,0,1-3.15.15,18.27,18.27,0,0,1-3-.22,6.08,6.08,0,0,1-2.18-.76,3.6,3.6,0,0,1-1.32-1.42,5,5,0,0,1-.44-2.22,4.22,4.22,0,0,1,1.12-3.27,4.71,4.71,0,0,1,3.23-1V267A3.59,3.59,0,0,0,252.06,267Z" transform="translate(-14.02 -32.51)"/>
    </g>
  </g>
</svg>
