<svg xmlns="http://www.w3.org/2000/svg" viewBox="0 0 341.95 529.19">
  <defs>
    <style>
      .cls-1 {
        fill: #22232d;
      }

      .cls-2, .cls-3, .cls-6, .cls-7, .cls-8 {
        fill: none;
        stroke-miterlimit: 10;
      }

      .cls-2 {
        stroke: #22232d;
      }

      .cls-3, .cls-6 {
        stroke: #f7f8fa;
      }

      .cls-3 {
        stroke-width: 0.25px;
      }

      .cls-4 {
        fill: #f7f8fa;
        opacity: 0.14;
      }

      .cls-10, .cls-5 {
        fill: #00e4d7;
      }

      .cls-5 {
        opacity: 0.3;
      }

      .cls-7, .cls-8 {
        stroke: #00e4d7;
      }

      .cls-8 {
        stroke-width: 2px;
      }

      .cls-9 {
        fill: #fbce42;
      }
    </style>
  </defs>
  <title>first-floorplan-v1</title>
  <g id="Background">
    <rect class="cls-1" width="341.95" height="715"/>
    <rect class="cls-2" width="341.95" height="529.19"/>
  </g>
  <g id="house-outline">
    <path id="house-border" class="cls-3" d="M301.19,513.44H133.66V325.73H61.37V45.51H96.13V11.82h114V45.51h91.06V513.44"/>
    <path id="house-fill" class="cls-4" d="M73.88,673.88,301.19,513.44H133.66V325.73H61.37V45.51H96.13V11.82h114V45.51h91.06V513.44"/>
    <path id="bedroom-2-border" class="cls-3" d="M61.37,187.14H215.2V325.73H61.37Z"/>
    <path id="landing-border" class="cls-3" d="M301.19,388H238V356.1L215.2,325.73V187.14h86Z"/>
    <path id="bedroom-3-border" class="cls-3" d="M133.66,513.44V426.91L238,426.86V388h63.24V513.44H133.66Z"/>
    <path id="master-bedroom-border" class="cls-3" d="M191.3,187.14H61.37V45.51H96.13V11.82h114V45.51h91.06V187.14H191.3"/>
    <path id="bathroom-border" class="cls-3" d="M215.2,325.73,238,356.1v70.76H133.66V325.73H215.2"/>
  </g>
  <g id="light-fill">
    <path id="landing-fill" class="cls-5" d="M301.19,388H238V356.1L215.2,325.73V187.14h86Z"/>
    <path id="bedroom-2-fill" class="cls-5" d="M61.37,187.14H215.2V325.73H61.37Z"/>
  </g>
  <g id="motion">
    <g>
      <path id="landing-border-2" data-name="landing-border" class="cls-3" d="M216.9,328l-1.7-2.27V230.22M250.57,388H238V356.1l-1.8-2.4M269,187.14h32.19V388H290.57M215.2,201.49V187.14H229"/>
      <path id="bedroom-3-border-2" data-name="bedroom-3-border" class="cls-6" d="M290.57,388.1h10.62V513.44H133.66V426.86H238V388h12.64"/>
      <path id="bedroom-2-border-2" data-name="bedroom-2-border" class="cls-7" d="M215.2,230.22v95.51H61.37V187.14H215.2v14.35"/>
      <path id="master-bedroom-border-2" data-name="master-bedroom-border" class="cls-8" d="M229,187.14H61.37V45.51H96.13V11.82h114V45.51h91.06V187.14H269"/>
      <path id="bathroom-border-2" data-name="bathroom-border" class="cls-3" d="M236.15,353.7l1.8,2.4v70.76H133.66V325.73H215.2m0,0,1.7,2.27"/>
    </g>
    <g>
      <path id="landing-border-3" data-name="landing-border" class="cls-8" d="M216.9,328l-1.7-2.27V230.22M250.57,388H238V356.1l-1.8-2.4M269,187.14h32.19V388H290.57M215.2,201.49V187.14H229"/>
      <path id="bedroom-3-border-3" data-name="bedroom-3-border" class="cls-8" d="M290.57,388.1h10.62V513.44H133.66V426.86H238V388h12.64"/>
      <path id="bedroom-2-border-3" data-name="bedroom-2-border" class="cls-8" d="M215.2,230.22v95.51H61.37V187.14H215.2v14.35"/>
      <path id="master-bedroom-border-3" data-name="master-bedroom-border" class="cls-8" d="M229,187.14H61.37V45.51H96.13V11.82h114V45.51h91.06V187.14H269"/>
      <path id="bathroom-border-3" data-name="bathroom-border" class="cls-8" d="M236.15,353.7l1.8,2.4v70.76H133.66V325.73H215.2m0,0,1.7,2.27"/>
    </g>
  </g>
  <g id="Layer_7" data-name="Layer 7">
    <g id="ji3E1h">
      <g>
        <path class="cls-9" d="M136.85,264.74h1.52c2.71,0,2.84.16,2.8-2.8a1.5,1.5,0,0,1,.43-1.05,7.45,7.45,0,0,0,2.14-8.81,7.29,7.29,0,0,0-7.81-4.37A7.39,7.39,0,0,0,131.32,260a4,4,0,0,1,1.3,3.41c-.07,1,.37,1.31,1.37,1.32S135.9,264.74,136.85,264.74Zm-3.1,2.22c-.23,1.67.08,2.06,1.65,2.06h2.85c1.67,0,2-.33,1.76-2.06Z"/>
        <path class="cls-9" d="M136.85,264.74c-.95,0-1.91,0-2.86,0s-1.44-.36-1.37-1.32a4,4,0,0,0-1.3-3.41,7.39,7.39,0,0,1,4.61-12.29,7.29,7.29,0,0,1,7.81,4.37,7.45,7.45,0,0,1-2.14,8.81,1.5,1.5,0,0,0-.43,1.05c0,3-.09,2.83-2.8,2.8Z"/>
        <path class="cls-9" d="M133.75,267H140c.21,1.73-.09,2.06-1.76,2.06H135.4C133.83,269,133.52,268.63,133.75,267Z"/>
      </g>
    </g>
    <g id="ji3E1h-2" data-name="ji3E1h">
      <g>
        <path class="cls-10" d="M150.5,95.19H152c2.71,0,2.84.16,2.81-2.8a1.43,1.43,0,0,1,.43-1,7.46,7.46,0,0,0,2.13-8.81,7.28,7.28,0,0,0-7.81-4.37A7.39,7.39,0,0,0,145,90.46a4,4,0,0,1,1.3,3.4c-.07,1,.38,1.31,1.37,1.33S149.55,95.19,150.5,95.19Zm-3.09,2.22c-.24,1.67.08,2.06,1.64,2.07h2.85c1.68,0,2-.34,1.76-2.07Z"/>
        <path class="cls-10" d="M150.5,95.19c-.95,0-1.9,0-2.86,0s-1.44-.37-1.37-1.33a4,4,0,0,0-1.3-3.4,7.39,7.39,0,0,1,4.61-12.3,7.28,7.28,0,0,1,7.81,4.37,7.46,7.46,0,0,1-2.13,8.81,1.43,1.43,0,0,0-.43,1c0,3-.1,2.83-2.81,2.8Z"/>
        <path class="cls-10" d="M147.41,97.41h6.25c.21,1.73-.08,2.06-1.76,2.07h-2.85C147.49,99.47,147.17,99.08,147.41,97.41Z"/>
      </g>
    </g>
    <g id="ji3E1h-3" data-name="ji3E1h">
      <g>
        <path class="cls-9" d="M267.32,294h1.52c2.71,0,2.84.17,2.81-2.8a1.43,1.43,0,0,1,.43-1.05,7.43,7.43,0,0,0,2.13-8.8,7.27,7.27,0,0,0-7.81-4.38,7.39,7.39,0,0,0-4.61,12.3,4,4,0,0,1,1.31,3.4c-.08,1,.37,1.31,1.36,1.33Zm-3.09,2.22c-.24,1.68.08,2.06,1.64,2.07h2.85c1.68,0,2-.34,1.77-2.07Z"/>
        <path class="cls-9" d="M267.32,294h-2.86c-1,0-1.44-.37-1.36-1.33a4,4,0,0,0-1.31-3.4,7.39,7.39,0,0,1,4.61-12.3,7.27,7.27,0,0,1,7.81,4.38,7.43,7.43,0,0,1-2.13,8.8,1.43,1.43,0,0,0-.43,1.05c0,3-.1,2.83-2.81,2.8Z"/>
        <path class="cls-9" d="M264.23,296.19h6.26c.2,1.73-.09,2.07-1.77,2.07h-2.85C264.31,298.25,264,297.87,264.23,296.19Z"/>
      </g>
    </g>
    <g id="ji3E1h-4" data-name="ji3E1h">
      <g>
        <path class="cls-10" d="M185.81,387.94h1.52c2.7,0,2.84.17,2.8-2.8a1.52,1.52,0,0,1,.43-1.05,7.43,7.43,0,0,0,2.13-8.8,7.26,7.26,0,0,0-7.8-4.38,7.4,7.4,0,0,0-4.62,12.3,4,4,0,0,1,1.31,3.4c-.07,1,.37,1.32,1.37,1.33Zm-3.1,2.23c-.24,1.67.08,2.05,1.65,2.06h2.85c1.67,0,2-.34,1.76-2.06Z"/>
        <path class="cls-10" d="M185.81,387.94H183c-1,0-1.44-.37-1.37-1.33a4,4,0,0,0-1.31-3.4,7.4,7.4,0,0,1,4.62-12.3,7.26,7.26,0,0,1,7.8,4.38,7.43,7.43,0,0,1-2.13,8.8,1.52,1.52,0,0,0-.43,1.05c0,3-.1,2.83-2.8,2.8Z"/>
        <path class="cls-10" d="M182.71,390.17H189c.21,1.72-.09,2.06-1.76,2.06h-2.85C182.79,392.22,182.47,391.84,182.71,390.17Z"/>
      </g>
    </g>
    <g id="ji3E1h-5" data-name="ji3E1h">
      <g>
        <path class="cls-10" d="M222.1,479.33h1.52c2.71,0,2.84.16,2.81-2.8a1.46,1.46,0,0,1,.42-1,7.45,7.45,0,0,0,2.14-8.81,7.28,7.28,0,0,0-7.81-4.37,7.39,7.39,0,0,0-4.61,12.3,4,4,0,0,1,1.3,3.4c-.07,1,.37,1.31,1.37,1.33Zm-3.1,2.22c-.23,1.67.08,2.06,1.65,2.07h2.85c1.68,0,2-.34,1.76-2.07Z"/>
        <path class="cls-10" d="M222.1,479.33h-2.86c-1,0-1.44-.37-1.37-1.33a4,4,0,0,0-1.3-3.4,7.39,7.39,0,0,1,4.61-12.3,7.28,7.28,0,0,1,7.81,4.37,7.45,7.45,0,0,1-2.14,8.81,1.46,1.46,0,0,0-.42,1c0,3-.1,2.83-2.81,2.8Z"/>
        <path class="cls-10" d="M219,481.55h6.26c.21,1.73-.08,2.06-1.76,2.07h-2.85C219.08,483.61,218.77,483.22,219,481.55Z"/>
      </g>
    </g>
  </g>
</svg>
