<svg xmlns="http://www.w3.org/2000/svg" viewBox="0 0 350 529.19">
  <defs>
    <style>
      .cls-1 {
        fill: #22232d;
      }

      .cls-2, .cls-5, .cls-6, .cls-7 {
        fill: none;
        stroke-miterlimit: 10;
      }

      .cls-2, .cls-5 {
        stroke: #f7f8fa;
      }

      .cls-2 {
        stroke-width: 0.25px;
      }

      .cls-11, .cls-3, .cls-8 {
        fill: #f7f8fa;
      }

      .cls-3 {
        opacity: 0.14;
      }

      .cls-10, .cls-4 {
        fill: #00e4d7;
      }

      .cls-4 {
        opacity: 0.3;
      }

      .cls-6, .cls-7 {
        stroke: #00e4d7;
      }

      .cls-7 {
        stroke-width: 2px;
      }

      .cls-8 {
        font-size: 14px;
      }

      .cls-11, .cls-8 {
        font-family: Helvetica, Helvetica;
      }

      .cls-9 {
        letter-spacing: -0.02em;
      }

      .cls-11 {
        font-size: 10px;
      }

      .cls-12 {
        fill: #fbce42;
      }
    </style>
  </defs>
  <title>first-floorplan</title>
  <g id="Background">
    <rect class="cls-1" width="350" height="529.19"/>
  </g>
  <g id="house-outline">
    <path id="house-border" class="cls-2" d="M305.21,513.44H137.69V325.73H65.4V45.51h34.75V11.82h114V45.51h91.06V513.44"/>
    <path id="house-fill" class="cls-3" d="M305.21,513.44H137.69V325.73H65.4V45.51h34.75V11.82h114V45.51h91.06V513.44"/>
    <path id="bedroom-2-border" class="cls-2" d="M65.4,187.14H219.23V325.73H65.4Z"/>
    <path id="landing-border" class="cls-2" d="M305.21,388H242V356.1l-22.74-30.37V187.14h86Z"/>
    <path id="bedroom-3-border" class="cls-2" d="M137.69,513.44V426.91L242,426.86V388h63.24V513.44H137.69Z"/>
    <path id="master-bedroom-border" class="cls-2" d="M195.33,187.14H65.4V45.51h34.75V11.82h114V45.51h91.06V187.14H195.33"/>
    <path id="bathroom-border" class="cls-2" d="M219.23,325.73,242,356.1v70.76H137.69V325.73h81.54"/>
  </g>
  <g id="light-fill">
    <path id="landing-fill" class="cls-4" d="M305.21,388H242V356.1l-22.74-30.37V187.14h86Z"/>
    <path id="bedroom-2-fill" class="cls-4" d="M65.4,187.14H219.23V325.73H65.4Z"/>
  </g>
  <g id="motion">
    <g>
      <path id="landing-border-2" data-name="landing-border" class="cls-2" d="M220.93,328l-1.7-2.27V230.22M254.59,388H242V356.1l-1.79-2.4M273,187.14h32.19V388H294.59M219.23,201.49V187.14H233"/>
      <path id="bedroom-3-border-2" data-name="bedroom-3-border" class="cls-5" d="M294.59,388.1h10.62V513.44H137.69V426.86H242V388h12.64"/>
      <path id="bedroom-2-border-2" data-name="bedroom-2-border" class="cls-6" d="M219.23,230.22v95.51H65.4V187.14H219.23v14.35"/>
      <path id="master-bedroom-border-2" data-name="master-bedroom-border" class="cls-7" d="M233,187.14H65.4V45.51h34.75V11.82h114V45.51h91.06V187.14H273"/>
      <path id="bathroom-border-2" data-name="bathroom-border" class="cls-2" d="M240.18,353.7l1.79,2.4v70.76H137.69V325.73h81.54m0,0,1.7,2.27"/>
    </g>
    <g>
      <path id="landing-border-3" data-name="landing-border" class="cls-7" d="M220.93,328l-1.7-2.27V230.22M254.59,388H242V356.1l-1.79-2.4M273,187.14h32.19V388H294.59M219.23,201.49V187.14H233"/>
      <path id="bedroom-3-border-3" data-name="bedroom-3-border" class="cls-7" d="M294.59,388.1h10.62V513.44H137.69V426.86H242V388h12.64"/>
      <path id="bedroom-2-border-3" data-name="bedroom-2-border" class="cls-7" d="M219.23,230.22v95.51H65.4V187.14H219.23v14.35"/>
      <path id="master-bedroom-border-3" data-name="master-bedroom-border" class="cls-7" d="M233,187.14H65.4V45.51h34.75V11.82h114V45.51h91.06V187.14H273"/>
      <path id="bathroom-border-3" data-name="bathroom-border" class="cls-7" d="M240.18,353.7l1.79,2.4v70.76H137.69V325.73h81.54m0,0,1.7,2.27"/>
    </g>
  </g>
  <g id="text">
    <text class="cls-8" transform="translate(331.17 139.67) rotate(-90)">FIRS<tspan class="cls-9" x="31.89" y="0">T</tspan><tspan x="40.2" y="0" xml:space="preserve"> FLOOR</tspan></text>
  </g>
  <g id="temp">
    <g id="_0BCMNP" data-name="0BCMNP">
      <path class="cls-10" d="M82,178.28h-.36a2.66,2.66,0,0,0-.5-.16,5,5,0,0,1-4.31-3.48,5.18,5.18,0,0,1,1.32-5.56,1.8,1.8,0,0,0,.45-1.07c0-2.53,0-5.06,0-7.59s1.72-3.91,4-3.42a3.23,3.23,0,0,1,2.4,3.42c0,2.5,0,5,0,7.5a1.92,1.92,0,0,0,.51,1.21,5.19,5.19,0,0,1-.36,7.78A13.91,13.91,0,0,1,82,178.28Zm-1.26-15c0,2,0,3.86,0,5.74a1.08,1.08,0,0,1-.6,1.14,3.07,3.07,0,0,0-1.5,3.5,3.26,3.26,0,0,0,6.12.62,2.84,2.84,0,0,0-.78-3.7c-1.17-.73-1.11-1.64-1.09-2.69,0-1.29,0-2.57,0-3.85,0-.26,0-.51,0-.76Z"/>
    </g>
    <text class="cls-11" transform="translate(90.39 165.85)">19.6ºC<tspan x="0" y="12">10%</tspan></text>
    <g id="_0BCMNP-2" data-name="0BCMNP">
      <path class="cls-10" d="M80.36,318.57H80a2.24,2.24,0,0,0-.5-.16,5,5,0,0,1-4.32-3.48,5.22,5.22,0,0,1,1.33-5.57A1.77,1.77,0,0,0,77,308.3c0-2.53,0-5.06,0-7.59s1.72-3.91,4-3.43a3.23,3.23,0,0,1,2.41,3.43c0,2.5,0,5,0,7.5a1.94,1.94,0,0,0,.51,1.21,5.19,5.19,0,0,1-.36,7.78A14.36,14.36,0,0,1,80.36,318.57Zm-1.26-15c0,2,0,3.86,0,5.73a1.07,1.07,0,0,1-.6,1.14A3.07,3.07,0,0,0,77,314a3.26,3.26,0,0,0,6.12.61,2.83,2.83,0,0,0-.78-3.69c-1.17-.73-1.11-1.64-1.09-2.7,0-1.28,0-2.56,0-3.84,0-.26,0-.52-.05-.76Z"/>
    </g>
    <text class="cls-11" transform="translate(88.76 306.13)">19.6ºC<tspan x="0" y="12">10%</tspan></text>
    <g id="_0BCMNP-3" data-name="0BCMNP">
      <path class="cls-10" d="M149.91,421.2h-.36a2.91,2.91,0,0,0-.5-.16,5,5,0,0,1-4.32-3.48,5.18,5.18,0,0,1,1.33-5.56,1.78,1.78,0,0,0,.45-1.07c0-2.52,0-5.05,0-7.58s1.73-3.92,4-3.43a3.23,3.23,0,0,1,2.41,3.42c0,2.5,0,5,0,7.5a1.87,1.87,0,0,0,.51,1.21,5.19,5.19,0,0,1-.36,7.78A13.91,13.91,0,0,1,149.91,421.2Zm-1.26-15c0,2,0,3.86,0,5.74a1.1,1.1,0,0,1-.6,1.14,3.05,3.05,0,0,0-1.5,3.5,3.26,3.26,0,0,0,6.12.62,2.84,2.84,0,0,0-.78-3.7c-1.18-.73-1.11-1.64-1.09-2.69,0-1.29,0-2.57,0-3.85,0-.25,0-.51-.05-.76Z"/>
    </g>
    <text class="cls-11" transform="translate(158.31 408.77)">19.6ºC<tspan x="0" y="12">10%</tspan></text>
    <g id="_0BCMNP-4" data-name="0BCMNP">
      <path class="cls-10" d="M293.41,212.18h-.35a2.42,2.42,0,0,0-.5-.16,5,5,0,0,1-4.32-3.48,5.22,5.22,0,0,1,1.32-5.57,1.69,1.69,0,0,0,.45-1.06c0-2.53,0-5.06,0-7.59s1.73-3.91,4-3.43a3.23,3.23,0,0,1,2.4,3.43c0,2.5,0,5,0,7.5A1.9,1.9,0,0,0,297,203a5.2,5.2,0,0,1-.37,7.78A13.91,13.91,0,0,1,293.41,212.18Zm-1.26-15c0,2,0,3.86,0,5.74a1.06,1.06,0,0,1-.6,1.13,3.1,3.1,0,0,0-1.5,3.51,3.26,3.26,0,0,0,6.12.61,2.83,2.83,0,0,0-.78-3.69c-1.17-.73-1.11-1.64-1.09-2.7,0-1.28,0-2.56,0-3.84,0-.26,0-.51-.05-.76Z"/>
    </g>
    <text class="cls-11" transform="translate(258.57 199.19)">19.6ºC<tspan x="0" y="12">10%</tspan></text>
    <g id="_0BCMNP-5" data-name="0BCMNP">
      <path class="cls-10" d="M148.28,509.05h-.36a3.28,3.28,0,0,0-.5-.17,5,5,0,0,1-4.32-3.47,5.2,5.2,0,0,1,1.33-5.57,1.84,1.84,0,0,0,.45-1.06c0-2.53,0-5.06,0-7.59s1.73-3.91,4-3.43a3.25,3.25,0,0,1,2.41,3.43c0,2.5,0,5,0,7.5a1.89,1.89,0,0,0,.51,1.21,5.19,5.19,0,0,1-.36,7.78A14.36,14.36,0,0,1,148.28,509.05Zm-1.26-15c0,2,0,3.87,0,5.74a1.1,1.1,0,0,1-.6,1.14,3.06,3.06,0,0,0-1.5,3.51,3.29,3.29,0,0,0,2.75,2.46,3.25,3.25,0,0,0,3.37-1.85,2.84,2.84,0,0,0-.78-3.7c-1.18-.72-1.11-1.63-1.09-2.69,0-1.28,0-2.56,0-3.85,0-.25,0-.51-.05-.76Z"/>
    </g>
    <text class="cls-11" transform="translate(156.68 496.61)">19.6ºC<tspan x="0" y="12">10%</tspan></text>
  </g>
  <g id="Layer_7" data-name="Layer 7">
    <g id="ji3E1h">
      <g>
        <path class="cls-12" d="M140.88,264.74h1.51c2.71,0,2.84.16,2.81-2.8a1.5,1.5,0,0,1,.43-1.05,7.45,7.45,0,0,0,2.13-8.81,7.27,7.27,0,0,0-7.81-4.37A7.39,7.39,0,0,0,135.34,260a4,4,0,0,1,1.31,3.41c-.08,1,.37,1.31,1.37,1.32S139.92,264.74,140.88,264.74Zm-3.1,2.22c-.24,1.67.08,2.06,1.65,2.06h2.84c1.68,0,2-.33,1.77-2.06Z"/>
        <path class="cls-12" d="M140.88,264.74c-1,0-1.91,0-2.86,0s-1.45-.36-1.37-1.32a4,4,0,0,0-1.31-3.41A7.39,7.39,0,0,1,140,247.71a7.27,7.27,0,0,1,7.81,4.37,7.45,7.45,0,0,1-2.13,8.81,1.5,1.5,0,0,0-.43,1.05c0,3-.1,2.83-2.81,2.8Z"/>
        <path class="cls-12" d="M137.78,267H144c.21,1.73-.09,2.06-1.77,2.06h-2.84C137.86,269,137.54,268.63,137.78,267Z"/>
      </g>
    </g>
    <g id="ji3E1h-2" data-name="ji3E1h">
      <g>
        <path class="cls-10" d="M154.53,95.19h1.52c2.7,0,2.84.16,2.8-2.8a1.52,1.52,0,0,1,.43-1,7.45,7.45,0,0,0,2.13-8.81,7.27,7.27,0,0,0-7.8-4.37A7.4,7.4,0,0,0,149,90.46a4,4,0,0,1,1.31,3.4c-.07,1,.37,1.31,1.37,1.33S153.57,95.19,154.53,95.19Zm-3.1,2.22c-.24,1.67.08,2.06,1.65,2.07h2.85c1.67,0,2-.34,1.76-2.07Z"/>
        <path class="cls-10" d="M154.53,95.19c-1,0-1.91,0-2.86,0s-1.44-.37-1.37-1.33a4,4,0,0,0-1.31-3.4,7.4,7.4,0,0,1,4.62-12.3,7.27,7.27,0,0,1,7.8,4.37,7.45,7.45,0,0,1-2.13,8.81,1.52,1.52,0,0,0-.43,1c0,3-.1,2.83-2.8,2.8Z"/>
        <path class="cls-10" d="M151.43,97.41h6.26c.21,1.73-.09,2.06-1.76,2.07h-2.85C151.51,99.47,151.19,99.08,151.43,97.41Z"/>
      </g>
    </g>
    <g id="ji3E1h-3" data-name="ji3E1h">
      <g>
        <path class="cls-12" d="M271.35,294h1.52c2.71,0,2.84.17,2.8-2.8a1.52,1.52,0,0,1,.43-1.05,7.44,7.44,0,0,0,2.14-8.8,7.28,7.28,0,0,0-7.81-4.38,7.39,7.39,0,0,0-4.61,12.3,4,4,0,0,1,1.3,3.4c-.07,1,.37,1.31,1.37,1.33Zm-3.1,2.22c-.23,1.68.08,2.06,1.65,2.07h2.85c1.67,0,2-.34,1.76-2.07Z"/>
        <path class="cls-12" d="M271.35,294h-2.86c-1,0-1.44-.37-1.37-1.33a4,4,0,0,0-1.3-3.4,7.39,7.39,0,0,1,4.61-12.3,7.28,7.28,0,0,1,7.81,4.38,7.44,7.44,0,0,1-2.14,8.8,1.52,1.52,0,0,0-.43,1.05c0,3-.09,2.83-2.8,2.8Z"/>
        <path class="cls-12" d="M268.25,296.19h6.26c.21,1.73-.09,2.07-1.76,2.07H269.9C268.33,298.25,268,297.87,268.25,296.19Z"/>
      </g>
    </g>
    <g id="ji3E1h-4" data-name="ji3E1h">
      <g>
        <path class="cls-10" d="M189.83,387.94h1.52c2.71,0,2.84.17,2.81-2.8a1.43,1.43,0,0,1,.43-1.05,7.45,7.45,0,0,0,2.13-8.8,7.27,7.27,0,0,0-7.81-4.38,7.39,7.39,0,0,0-4.61,12.3,4,4,0,0,1,1.31,3.4c-.08,1,.37,1.32,1.36,1.33Zm-3.09,2.23c-.24,1.67.08,2.05,1.64,2.06h2.85c1.68,0,2-.34,1.77-2.06Z"/>
        <path class="cls-10" d="M189.83,387.94H187c-1,0-1.44-.37-1.36-1.33a4,4,0,0,0-1.31-3.4,7.39,7.39,0,0,1,4.61-12.3,7.27,7.27,0,0,1,7.81,4.38,7.45,7.45,0,0,1-2.13,8.8,1.43,1.43,0,0,0-.43,1.05c0,3-.1,2.83-2.81,2.8Z"/>
        <path class="cls-10" d="M186.74,390.17H193c.2,1.72-.09,2.06-1.77,2.06h-2.85C186.82,392.22,186.5,391.84,186.74,390.17Z"/>
      </g>
    </g>
    <g id="ji3E1h-5" data-name="ji3E1h">
      <g>
        <path class="cls-10" d="M226.13,479.33h1.52c2.7,0,2.83.16,2.8-2.8a1.52,1.52,0,0,1,.43-1,7.45,7.45,0,0,0,2.13-8.81,7.27,7.27,0,0,0-7.81-4.37,7.4,7.4,0,0,0-4.61,12.3,4,4,0,0,1,1.31,3.4c-.07,1,.37,1.31,1.37,1.33Zm-3.1,2.22c-.24,1.67.08,2.06,1.65,2.07h2.85c1.67,0,2-.34,1.76-2.07Z"/>
        <path class="cls-10" d="M226.13,479.33h-2.86c-1,0-1.44-.37-1.37-1.33a4,4,0,0,0-1.31-3.4,7.4,7.4,0,0,1,4.61-12.3,7.27,7.27,0,0,1,7.81,4.37,7.45,7.45,0,0,1-2.13,8.81,1.52,1.52,0,0,0-.43,1c0,3-.1,2.83-2.8,2.8Z"/>
        <path class="cls-10" d="M223,481.55h6.26c.21,1.73-.09,2.06-1.76,2.07h-2.85C223.11,483.61,222.79,483.22,223,481.55Z"/>
      </g>
    </g>
  </g>
</svg>
