<svg xmlns="http://www.w3.org/2000/svg" viewBox="0 0 350 529.19">
  <defs>
    <style>
      .cls-1 {
        fill: #22232d;
      }

      .cls-2, .cls-5, .cls-6, .cls-7, .cls-8 {
        fill: none;
        stroke-miterlimit: 10;
      }

      .cls-2, .cls-5 {
        stroke: #f7f8fa;
      }

      .cls-2 {
        stroke-width: 0.25px;
      }

      .cls-3, .cls-9 {
        fill: #f7f8fa;
      }

      .cls-3 {
        opacity: 0.14;
      }

      .cls-4 {
        fill: #00e4d7;
        opacity: 0.3;
      }

      .cls-6, .cls-7 {
        stroke: #00e4d7;
      }

      .cls-7 {
        stroke-width: 2px;
      }

      .cls-8 {
        stroke: #bcbec0;
        stroke-width: 4px;
      }

      .cls-9 {
        font-size: 14px;
        font-family: Helvetica, Helvetica;
      }

      .cls-10 {
        letter-spacing: -0.02em;
      }
    </style>
  </defs>
  <title>first-floorplan</title>
  <g id="Background">
    <rect class="cls-1" width="350" height="529.19"/>
  </g>
  <g id="house-outline">
    <path id="house-border" class="cls-2" d="M305.21,513.44H137.69V325.73H65.4V45.51h34.75V11.82h114V45.51h91.06V513.44"/>
    <path id="house-fill" class="cls-3" d="M305.21,513.44H137.69V325.73H65.4V45.51h34.75V11.82h114V45.51h91.06V513.44"/>
    <path id="bedroom-2-border" class="cls-2" d="M65.4,187.14H219.23V325.73H65.4Z"/>
    <path id="landing-border" class="cls-2" d="M305.21,388H242V356.1l-22.74-30.37V187.14h86Z"/>
    <path id="bedroom-3-border" class="cls-2" d="M137.69,513.44V426.91L242,426.86V388h63.24V513.44H137.69Z"/>
    <path id="master-bedroom-border" class="cls-2" d="M195.33,187.14H65.4V45.51h34.75V11.82h114V45.51h91.06V187.14H195.33"/>
    <path id="bathroom-border" class="cls-2" d="M219.23,325.73,242,356.1v70.76H137.69V325.73h81.54"/>
  </g>
  <g id="motion_fill">
    <path id="landing_fill" class="cls-4" d="M305.21,388H242V356.1l-22.74-30.37V187.14h86Z"/>
    <path id="bedroom-3_fill" class="cls-4" d="M137.69,513.44V426.91L242,426.86V388h63.24V513.44H137.69Z"/>
    <path id="master-bedroom_fiill" class="cls-4" d="M195.33,187.14H65.4V45.51h34.75V11.82h114V45.51h91.06V187.14H195.33"/>
    <path id="bathroom_fill" class="cls-4" d="M219.23,325.73,242,356.1v70.76H137.69V325.73h81.54"/>
    <path id="bedroom-2_fill" class="cls-4" d="M65.4,187.14H219.23V325.73H65.4Z"/>
  </g>
  <g id="motion">
    <g>
      <path id="landing-border-2" data-name="landing-border" class="cls-2" d="M220.93,328l-1.7-2.27V230.22M254.59,388H242V356.1l-1.79-2.4M273,187.14h32.19V388H294.59M219.23,201.49V187.14H233"/>
      <path id="bedroom-3-border-2" data-name="bedroom-3-border" class="cls-5" d="M294.59,388.1h10.62V513.44H137.69V426.86H242V388h12.64"/>
      <path id="bedroom-2-border-2" data-name="bedroom-2-border" class="cls-6" d="M219.23,230.22v95.51H65.4V187.14H219.23v14.35"/>
      <path id="master-bedroom-border-2" data-name="master-bedroom-border" class="cls-7" d="M233,187.14H65.4V45.51h34.75V11.82h114V45.51h91.06V187.14H273"/>
      <path id="bathroom-border-2" data-name="bathroom-border" class="cls-2" d="M240.18,353.7l1.79,2.4v70.76H137.69V325.73h81.54m0,0,1.7,2.27"/>
    </g>
    <g>
      <path id="landing-border-3" data-name="landing-border" class="cls-7" d="M220.93,328l-1.7-2.27V230.22M254.59,388H242V356.1l-1.79-2.4M273,187.14h32.19V388H294.59M219.23,201.49V187.14H233"/>
      <path id="bedroom-3-border-3" data-name="bedroom-3-border" class="cls-7" d="M294.59,388.1h10.62V513.44H137.69V426.86H242V388h12.64"/>
      <path id="bedroom-2-border-3" data-name="bedroom-2-border" class="cls-7" d="M219.23,230.22v95.51H65.4V187.14H219.23v14.35"/>
      <path id="master-bedroom-border-3" data-name="master-bedroom-border" class="cls-7" d="M233,187.14H65.4V45.51h34.75V11.82h114V45.51h91.06V187.14H273"/>
      <path id="bathroom-border-3" data-name="bathroom-border" class="cls-7" d="M240.18,353.7l1.79,2.4v70.76H137.69V325.73h81.54m0,0,1.7,2.27"/>
    </g>
  </g>
  <g id="openings">
    <line id="bedroom-1_window_2" class="cls-8" x1="103.99" y1="11.82" x2="158.42" y2="11.82"/>
    <line id="bedroom-1_window_3" class="cls-8" x1="156.87" y1="11.82" x2="210.29" y2="11.82"/>
    <line id="bedroom-1_window_1" class="cls-8" x1="99.79" y1="43.68" x2="99.79" y2="15.48"/>
    <line id="bedroom-1_window_4" class="cls-8" x1="214.16" y1="43.68" x2="214.16" y2="15.48"/>
    <line id="bedroom-1_window_5" class="cls-8" x1="298.6" y1="45.51" x2="256.6" y2="45.51"/>
    <line id="bedroom-2_window_1" class="cls-8" x1="120.79" y1="325.73" x2="78.79" y2="325.73"/>
    <line id="bathroom_window_1" class="cls-8" x1="137.71" y1="334.59" x2="137.71" y2="370.45"/>
    <line id="bedroom-3_window_1" class="cls-8" x1="240.23" y1="513.44" x2="198.23" y2="513.44"/>
  </g>
  <g id="text">
    <text class="cls-9" transform="translate(331.17 139.67) rotate(-90)">FIRS<tspan class="cls-10" x="31.89" y="0">T</tspan><tspan x="40.2" y="0" xml:space="preserve"> FLOOR</tspan></text>
  </g>
</svg>
