<svg xmlns="http://www.w3.org/2000/svg" viewBox="0 0 365.98 723.78">
  <defs>
    <style>
      .cls-1, .cls-2, .cls-7, .cls-8 {
        fill: none;
        stroke-miterlimit: 10;
      }

      .cls-1 {
        stroke: #22232d;
        opacity: 0.06;
      }

      .cls-1, .cls-2 {
        stroke-width: 0.25px;
      }

      .cls-2 {
        stroke: #f7f8fa;
      }

      .cls-11, .cls-3 {
        fill: #f7f8fa;
      }

      .cls-3 {
        opacity: 0.14;
      }

      .cls-4 {
        fill: #00e4d7;
        opacity: 0.3;
      }

      .cls-5, .cls-6, .cls-9 {
        fill: #22232d;
      }

      .cls-6 {
        font-size: 10px;
      }

      .cls-11, .cls-6 {
        font-family: Helvetica, Helvetica;
      }

      .cls-7 {
        stroke: #00e4d7;
        stroke-width: 2px;
      }

      .cls-8 {
        stroke: #bcbec0;
        stroke-width: 4px;
      }

      .cls-9 {
        font-size: 19.24px;
        font-family: HelveticaNeue-CondensedBold, Helvetica Neue;
        font-weight: 700;
      }

      .cls-10 {
        letter-spacing: -0.02em;
      }

      .cls-11 {
        font-size: 14px;
      }
    </style>
  </defs>
  <title>ground-floorplan</title>
  <g id="Background">
    <rect class="cls-1" x="0.13" y="0.13" width="365.73" height="723.53"/>
  </g>
  <g id="house-outline">
    <path id="house_border" class="cls-2" d="M97.66,693.53V468.92h59.78V345.39H85.15V65.16H119.9V31.47h114V65.16H325V539.32H308.28V693.53Z" transform="translate(0.13 -1.04)"/>
    <path id="house_fill" class="cls-3" d="M97.66,693.53V468.92h59.78V345.39H85.15V65.16H119.9V31.47h114V65.16H325V539.32H308.28V693.53Z" transform="translate(0.13 -1.04)"/>
    <polygon id="outdoor_border" class="cls-3" points="264.68 34.12 264.68 0.43 90.68 0.43 90.68 34.12 55.92 34.12 55.92 374.35 128.22 374.35 128.22 437.88 68.44 437.88 68.44 722.49 309.06 722.49 309.06 692.49 98.44 692.49 98.44 467.88 158.22 467.88 158.22 344.35 85.92 344.35 85.92 64.12 120.68 64.12 120.68 30.43 234.68 30.43 234.68 64.12 325.74 64.12 325.74 64.12 325.74 34.12 264.68 34.12"/>
    <path id="library_border" class="cls-2" d="M85.15,206.79H239v138.6H85.15Z" transform="translate(0.13 -1.04)"/>
    <path id="hallway_border" class="cls-2" d="M325,327.53H239V206.79l30.76-29.46V91.62H325Z" transform="translate(0.13 -1.04)"/>
    <path id="kitchen_border" class="cls-2" d="M157.44,498.51V345.39H239V327.53h86V539.32H308.28V693.53H97.66V570h74.15V498.51Z" transform="translate(0.13 -1.04)"/>
    <path id="downstairs_bathroom_border" class="cls-2" d="M97.66,468.92h59.78v29.59h14.37V570H97.66Z" transform="translate(0.13 -1.04)"/>
    <path id="living_room_border" class="cls-2" d="M215.08,206.79H85.15V65.16H119.9V31.47h114V65.16h35.84V177.33L239,206.79h-23.9" transform="translate(0.13 -1.04)"/>
    <rect id="front_door_border" class="cls-2" x="269.87" y="64.12" width="55.22" height="26.46"/>
  </g>
  <g id="motion_fill">
    <path id="binary_sensor.living_room_motion_fill" class="cls-4" d="M215.08,206.79H85.15V65.16H119.9V31.47h114V65.16h35.84V177.33L239,206.79h-23.9" transform="translate(0.13 -1.04)"/>
    <path id="binary_sensor.library_motion_fill" class="cls-4" d="M85.15,206.79H239v138.6H85.15Z" transform="translate(0.13 -1.04)"/>
    <path id="binary_sensor.hallway_motion_fill" class="cls-4" d="M325,327.53H239V206.79l30.76-29.46V91.62H325Z" transform="translate(0.13 -1.04)"/>
    <rect id="binary_sensor.front_door_motion_fill" class="cls-4" x="269.87" y="64.12" width="55.22" height="26.46"/>
    <path id="binary_sensor.kitchen_motion_fill" class="cls-4" d="M157.44,498.51V345.39H239V327.53h86V539.32H308.28V693.53H97.66V570h74.15V498.51Z" transform="translate(0.13 -1.04)"/>
    <path id="binary_sensor.downstairs_bathroom_motion_fill" class="cls-4" d="M97.66,468.92h59.78v29.59h14.37V570H97.66Z" transform="translate(0.13 -1.04)"/>
    <polyline id="binary_sensor.outdoor_back_motion_fill" class="cls-4" points="68.44 722.49 309.06 722.49 309.06 692.49 98.44 692.49 68.44 722.49"/>
    <polyline id="binary_sensor.outdoor_side_motion_fill" class="cls-4" points="55.92 34.12 55.92 34.12 55.92 34.12 55.92 34.12 55.92 374.35 128.22 374.35 128.22 437.88 68.44 437.88 68.44 722.49 68.44 722.49 98.44 692.49 98.44 692.49 98.44 467.88 158.22 467.88 158.22 344.35 85.92 344.35 85.92 64.12 55.92 34.12"/>
    <polyline id="binary_sensor.outdoor_front_motion_fill" class="cls-4" points="85.92 64.12 120.68 64.12 120.68 30.43 234.68 30.43 234.68 64.12 325.74 64.12 325.74 64.12 325.74 34.12 264.68 34.12 264.68 0.43 90.68 0.43 90.68 34.12 55.92 34.12 85.92 64.12"/>
  </g>
  <g id="icons">
    <g id="sensor.outdoor_back_light">
      <g>
        <path class="cls-5" d="M267.73,702.93a4.51,4.51,0,0,0-.07.53c0,2.17,0,4.35,0,6.52A5.17,5.17,0,0,0,278,710c0-2.18,0-4.35,0-6.53,0-.15-.05-.31-.07-.49ZM266,700.34a1.49,1.49,0,0,0,1.49,1.69c2,0,4.1,0,6.16,0,1.52,0,3.05,0,4.58,0a1.39,1.39,0,0,0,1.41-1.69Zm13.3,8.18a10,10,0,0,0,0,1.36c0,.16.25.42.39.42.71.05,1.42,0,2.14,0v-1.8Zm-12.95,1.77v-1.76h-2.5v1.76Zm13.37,5L278,713.5l-1.23,1,1.85,1.85Zm-12-1.85L266,715.09l1.09,1.18,1.88-1.74Zm6,5v-2.61H272v2.61Z" transform="translate(0.13 -1.04)"/>
        <path class="cls-5" d="M267.73,702.93h10.21c0,.18.07.34.07.49,0,2.18,0,4.35,0,6.53a5.17,5.17,0,0,1-10.33,0c0-2.17,0-4.35,0-6.52A4.51,4.51,0,0,1,267.73,702.93Z" transform="translate(0.13 -1.04)"/>
        <path class="cls-5" d="M266,700.34h13.64a1.39,1.39,0,0,1-1.41,1.69c-1.53,0-3.06,0-4.58,0-2.06,0-4.11,0-6.16,0A1.49,1.49,0,0,1,266,700.34Z" transform="translate(0.13 -1.04)"/>
        <path class="cls-5" d="M279.28,708.52h2.55v1.8c-.72,0-1.43,0-2.14,0-.14,0-.37-.26-.39-.42A10,10,0,0,1,279.28,708.52Z" transform="translate(0.13 -1.04)"/>
        <path class="cls-5" d="M266.33,710.29h-2.5v-1.76h2.5Z" transform="translate(0.13 -1.04)"/>
        <path class="cls-5" d="M279.7,715.32l-1.05,1-1.85-1.85,1.23-1Z" transform="translate(0.13 -1.04)"/>
        <path class="cls-5" d="M267.68,713.47l1.24,1.06L267,716.27,266,715.09Z" transform="translate(0.13 -1.04)"/>
        <path class="cls-5" d="M273.64,718.48H272v-2.61h1.62Z" transform="translate(0.13 -1.04)"/>
      </g>
      <g id="zefc6x">
        <g>
          <path class="cls-5" d="M127.91,703.46a4.81,4.81,0,0,0-.07.53c0,2.18,0,4.35,0,6.53a5.17,5.17,0,0,0,10.33,0c0-2.17,0-4.35,0-6.52a3.16,3.16,0,0,0-.07-.5Zm-1.75-2.58a1.49,1.49,0,0,0,1.49,1.69c2,0,4.1,0,6.15,0,1.53,0,3.06,0,4.59,0a1.38,1.38,0,0,0,1.41-1.68Zm13.29,8.18a11.86,11.86,0,0,0,0,1.35c0,.17.25.42.4.43.7,0,1.41,0,2.14,0v-1.8Zm-12.94,1.76v-1.75H124v1.75Zm13.37,5L138.2,714,137,715l1.85,1.84Zm-12-1.84-1.73,1.62,1.08,1.17,1.88-1.73Zm6,5v-2.61H132.2V719Z" transform="translate(0.13 -1.04)"/>
          <path class="cls-5" d="M127.91,703.46h10.2a3.16,3.16,0,0,1,.07.5c0,2.17,0,4.35,0,6.52a5.17,5.17,0,0,1-10.33,0c0-2.18,0-4.35,0-6.53A4.81,4.81,0,0,1,127.91,703.46Z" transform="translate(0.13 -1.04)"/>
          <path class="cls-5" d="M126.16,700.88H139.8a1.38,1.38,0,0,1-1.41,1.68c-1.53,0-3.06,0-4.59,0-2.05,0-4.1,0-6.15,0A1.49,1.49,0,0,1,126.16,700.88Z" transform="translate(0.13 -1.04)"/>
          <path class="cls-5" d="M139.45,709.06H142v1.8c-.73,0-1.44,0-2.14,0-.15,0-.37-.26-.4-.43A11.86,11.86,0,0,1,139.45,709.06Z" transform="translate(0.13 -1.04)"/>
          <path class="cls-5" d="M126.51,710.82H124v-1.75h2.5Z" transform="translate(0.13 -1.04)"/>
          <path class="cls-5" d="M139.88,715.85l-1,1L137,715l1.22-1Z" transform="translate(0.13 -1.04)"/>
          <path class="cls-5" d="M127.86,714l1.23,1.06-1.88,1.73-1.08-1.17Z" transform="translate(0.13 -1.04)"/>
          <path class="cls-5" d="M133.81,719H132.2v-2.61h1.61Z" transform="translate(0.13 -1.04)"/>
        </g>
      </g>
    </g>
    <g id="sensor.outdoor_front_light">
      <g>
        <path class="cls-5" d="M258.29,54.87a4.51,4.51,0,0,0,.07-.53c0-2.18,0-4.35,0-6.53a5.17,5.17,0,0,0-10.33,0c0,2.17,0,4.35,0,6.52a5,5,0,0,0,.07.5ZM260,57.46a1.49,1.49,0,0,0-1.49-1.69c-2.05,0-4.11,0-6.16,0-1.53,0-3,0-4.58,0a1.38,1.38,0,0,0-1.41,1.69Zm-13.3-8.18a10,10,0,0,0,0-1.36.63.63,0,0,0-.39-.43c-.71,0-1.42,0-2.14,0v1.81Zm12.95-1.77v1.76h2.5V47.51Zm-13.37-5L248,44.3l1.23-1-1.85-1.85Zm12,1.85,1.73-1.62L259,41.53l-1.88,1.74Zm-5.95-5v2.61H254V39.32Z" transform="translate(0.13 -1.04)"/>
        <path class="cls-5" d="M258.29,54.87H248.08a5,5,0,0,1-.07-.5c0-2.17,0-4.35,0-6.52a5.17,5.17,0,0,1,10.33,0c0,2.18,0,4.35,0,6.53A4.51,4.51,0,0,1,258.29,54.87Z" transform="translate(0.13 -1.04)"/>
        <path class="cls-5" d="M260,57.46H246.4a1.38,1.38,0,0,1,1.41-1.69c1.53,0,3.05,0,4.58,0,2.05,0,4.11,0,6.16,0A1.49,1.49,0,0,1,260,57.46Z" transform="translate(0.13 -1.04)"/>
        <path class="cls-5" d="M246.74,49.28h-2.55V47.47c.72,0,1.43,0,2.14,0a.63.63,0,0,1,.39.43A10,10,0,0,1,246.74,49.28Z" transform="translate(0.13 -1.04)"/>
        <path class="cls-5" d="M259.69,47.51h2.5v1.76h-2.5Z" transform="translate(0.13 -1.04)"/>
        <path class="cls-5" d="M246.32,42.48l1.05-1,1.85,1.85-1.23,1Z" transform="translate(0.13 -1.04)"/>
        <path class="cls-5" d="M258.33,44.33l-1.23-1.06L259,41.53l1.08,1.18Z" transform="translate(0.13 -1.04)"/>
        <path class="cls-5" d="M252.38,39.32H254v2.61h-1.62Z" transform="translate(0.13 -1.04)"/>
      </g>
    </g>
    <g id="sensor.outdoor_side_light">
      <g>
        <path class="cls-5" d="M147.72,405.05a4.51,4.51,0,0,0-.53-.07c-2.17,0-4.35,0-6.52,0a5.17,5.17,0,0,0,0,10.33c2.18,0,4.35,0,6.53,0a4.81,4.81,0,0,0,.49-.07Zm2.59-1.75a1.49,1.49,0,0,0-1.69,1.49c0,2,0,4.11,0,6.16,0,1.53,0,3.06,0,4.58a1.39,1.39,0,0,0,1.69,1.41Zm-8.18,13.3a10,10,0,0,0-1.36,0c-.16,0-.42.25-.42.39,0,.71,0,1.42,0,2.14h1.8Zm-1.76-13h1.75v-2.5h-1.75Zm-5,13.37,1.82-1.67-1-1.23L134.32,416Zm1.85-12-1.62-1.73-1.17,1.08,1.73,1.88Zm-5,5.95h2.61v-1.62h-2.61Z" transform="translate(0.13 -1.04)"/>
        <path class="cls-5" d="M147.72,405.05v10.21a4.81,4.81,0,0,1-.49.07c-2.18,0-4.35,0-6.53,0a5.17,5.17,0,0,1,0-10.33c2.17,0,4.35,0,6.52,0A4.51,4.51,0,0,1,147.72,405.05Z" transform="translate(0.13 -1.04)"/>
        <path class="cls-5" d="M150.31,403.3v13.64a1.39,1.39,0,0,1-1.69-1.41c0-1.52,0-3,0-4.58,0-2.05,0-4.11,0-6.16A1.49,1.49,0,0,1,150.31,403.3Z" transform="translate(0.13 -1.04)"/>
        <path class="cls-5" d="M142.13,416.6v2.55h-1.8c0-.72,0-1.43,0-2.14,0-.14.26-.37.42-.39A10,10,0,0,1,142.13,416.6Z" transform="translate(0.13 -1.04)"/>
        <path class="cls-5" d="M140.37,403.65v-2.5h1.75v2.5Z" transform="translate(0.13 -1.04)"/>
        <path class="cls-5" d="M135.33,417l-1-1,1.85-1.85,1,1.23Z" transform="translate(0.13 -1.04)"/>
        <path class="cls-5" d="M137.18,405l-1.06,1.23-1.73-1.88,1.17-1.08Z" transform="translate(0.13 -1.04)"/>
        <path class="cls-5" d="M132.17,411v-1.62h2.61V411Z" transform="translate(0.13 -1.04)"/>
      </g>
    </g>
    <path id="sensor.living_room_motion" class="cls-5" d="M247.12,71.44h2.61c.92,8.62,5.68,13.42,14.44,14.41v2.5C256,88.86,247.08,81.82,247.12,71.44Zm17,11.25V80c-5.22-.55-8-3.43-8.56-8.57H252.8C252.89,78.43,258.76,83,264.09,82.69Zm-5.58-11.21a5.53,5.53,0,0,0,5.6,5.55V71.48Z" transform="translate(0.13 -1.04)"/>
    <path id="sensor.library_motion" class="cls-5" d="M232,319.93v2.61c-8.62.93-13.42,5.68-14.41,14.45H215.1C214.6,328.79,221.64,319.89,232,319.93Zm-11.25,17h2.66c.55-5.22,3.44-8,8.58-8.56v-2.74C225,325.71,220.47,331.58,220.77,336.91ZM232,331.33a5.52,5.52,0,0,0-5.55,5.6H232Z" transform="translate(0.13 -1.04)"/>
    <path id="sensor.hall_motion" class="cls-5" d="M276.58,116.07v-2.61C285.2,112.54,290,107.78,291,99h2.5C294,107.21,287,116.11,276.58,116.07Zm11.25-17h-2.67c-.55,5.22-3.43,8-8.57,8.55v2.74C283.57,110.3,288.13,104.43,287.83,99.1Zm-11.21,5.57a5.51,5.51,0,0,0,5.55-5.59h-5.55Z" transform="translate(0.13 -1.04)"/>
    <path id="sensor.kitchen_motion" class="cls-5" d="M179.46,493.4h-2.61c-.92-8.62-5.68-13.42-14.44-14.41v-2.5C170.6,476,179.5,483,179.46,493.4Zm-17-11.25v2.67c5.22.55,8,3.43,8.56,8.57h2.73C173.69,486.41,167.82,481.85,162.49,482.15Zm5.58,11.21a5.53,5.53,0,0,0-5.6-5.55v5.55Z" transform="translate(0.13 -1.04)"/>
    <path id="sensor.kitchen_motion_2" class="cls-5" d="M304.93,673.06v2.61c-8.62.93-13.42,5.69-14.41,14.45H288C287.51,681.93,294.55,673,304.93,673.06Zm-11.25,17h2.67c.54-5.22,3.43-8,8.57-8.56v-2.74C297.93,678.84,293.38,684.71,293.68,690Zm11.21-5.58a5.52,5.52,0,0,0-5.55,5.6h5.55Z" transform="translate(0.13 -1.04)"/>
    <path id="sensor.downstairs_bathroom_motion" class="cls-5" d="M119.18,565h-2.61c-.92-8.62-5.68-13.42-14.44-14.41v-2.5C110.32,547.57,119.22,554.61,119.18,565Zm-17-11.25v2.67c5.22.55,8,3.43,8.56,8.57h2.73C113.41,558,107.54,553.44,102.21,553.74ZM107.79,565a5.53,5.53,0,0,0-5.6-5.55V565Z" transform="translate(0.13 -1.04)"/>
    <g id="sensor.living_room_ceiling">
      <path class="cls-5" d="M176.83,114.46V106.8h3v7.66c1.33,0,2.56,0,3.79,0,.37,0,.93.17,1.07.43,2,3.89,4,7.81,6,11.86H166.1c.15-.37.27-.72.43-1.06,1.72-3.42,3.47-6.82,5.14-10.27a1.51,1.51,0,0,1,1.68-1C174.46,114.52,175.57,114.46,176.83,114.46Z" transform="translate(0.13 -1.04)"/>
      <path class="cls-5" d="M175.38,128.47h5.91a2.88,2.88,0,0,1-2.83,3C176.79,131.52,175.63,130.41,175.38,128.47Z" transform="translate(0.13 -1.04)"/>
    </g>
    <g id="sensor.library_light">
      <path class="cls-5" d="M155.33,268.39v-7.66h3v7.66c1.33,0,2.56,0,3.79,0,.37,0,.93.16,1.07.43,2,3.89,4,7.81,6,11.86H144.6c.15-.37.27-.73.43-1.06,1.72-3.42,3.47-6.83,5.14-10.27a1.51,1.51,0,0,1,1.68-1C153,268.45,154.07,268.39,155.33,268.39Z" transform="translate(0.13 -1.04)"/>
      <path class="cls-5" d="M153.88,282.4h5.91a2.86,2.86,0,0,1-2.83,3C155.29,285.45,154.13,284.34,153.88,282.4Z" transform="translate(0.13 -1.04)"/>
    </g>
    <g id="sensor.hallway_light">
      <path class="cls-5" d="M297.09,175.06V167.4h3v7.66c1.33,0,2.56,0,3.79,0,.37,0,.93.16,1.07.43,2,3.89,3.95,7.81,6,11.86h-24.6c.15-.37.26-.73.43-1.06,1.72-3.42,3.46-6.83,5.14-10.27a1.51,1.51,0,0,1,1.68-1C294.71,175.12,295.83,175.06,297.09,175.06Z" transform="translate(0.13 -1.04)"/>
      <path class="cls-5" d="M295.63,189.07h5.92a2.87,2.87,0,0,1-2.83,3C297.05,192.12,295.89,191,295.63,189.07Z" transform="translate(0.13 -1.04)"/>
    </g>
    <g id="sensor.downstairs_bathroom_light">
      <path class="cls-5" d="M237.41,413.32v-7.66h3v7.66c1.33,0,2.56,0,3.79,0,.37,0,.93.16,1.07.43,2,3.89,3.95,7.81,6,11.85h-24.6a11,11,0,0,1,.43-1.05c1.71-3.42,3.46-6.83,5.14-10.27a1.49,1.49,0,0,1,1.68-1C235,413.38,236.15,413.32,237.41,413.32Z" transform="translate(0.13 -1.04)"/>
      <path class="cls-5" d="M236,427.33h5.92a2.87,2.87,0,0,1-2.83,3C237.37,430.38,236.21,429.26,236,427.33Z" transform="translate(0.13 -1.04)"/>
    </g>
    <g id="sensor.kitchen_light_2">
      <path class="cls-5" d="M205.3,607.93v-7.66h3v7.66c1.33,0,2.56,0,3.79,0,.37,0,.93.17,1.07.43,2,3.89,3.95,7.81,6,11.86h-24.6c.15-.37.26-.73.43-1.06,1.72-3.42,3.46-6.83,5.14-10.27a1.51,1.51,0,0,1,1.68-1C202.92,608,204,607.93,205.3,607.93Z" transform="translate(0.13 -1.04)"/>
      <path class="cls-5" d="M203.84,621.94h5.92a2.87,2.87,0,0,1-2.83,3C205.26,625,204.1,623.88,203.84,621.94Z" transform="translate(0.13 -1.04)"/>
    </g>
    <g id="sensor.downstairs_bathroom_light-2" data-name="sensor.downstairs_bathroom_light">
      <path class="cls-5" d="M132.25,516.72v-7.66h3v7.66c1.33,0,2.56,0,3.79,0,.37,0,.93.16,1.07.43,2,3.89,4,7.81,6,11.86H121.51c.15-.37.27-.73.43-1.06,1.72-3.42,3.47-6.83,5.14-10.27a1.51,1.51,0,0,1,1.68-1C129.87,516.78,131,516.72,132.25,516.72Z" transform="translate(0.13 -1.04)"/>
      <path class="cls-5" d="M130.79,530.73h5.91a2.86,2.86,0,0,1-2.83,3C132.21,533.78,131,532.67,130.79,530.73Z" transform="translate(0.13 -1.04)"/>
    </g>
    <g id="sensor.hallway_light-2" data-name="sensor.hallway_light">
      <path class="cls-5" d="M296,72.36V64.7h3v7.66c1.33,0,2.56,0,3.79,0,.37,0,.93.17,1.07.43,2,3.89,4,7.81,6,11.86H285.27c.15-.37.27-.72.44-1.06,1.71-3.42,3.46-6.82,5.14-10.27a1.51,1.51,0,0,1,1.68-1C293.63,72.42,294.75,72.36,296,72.36Z" transform="translate(0.13 -1.04)"/>
      <path class="cls-5" d="M294.55,86.37h5.92a2.88,2.88,0,0,1-2.83,3C296,89.42,294.81,88.31,294.55,86.37Z" transform="translate(0.13 -1.04)"/>
    </g>
    <path id="sensor.library_motion-2" data-name="sensor.library_motion" class="cls-5" d="M319.44,40.71v2.61C310.81,44.24,306,49,305,57.76h-2.51C302,49.57,309.05,40.67,319.44,40.71Zm-11.26,17h2.67c.55-5.22,3.43-8,8.58-8.55V46.39C312.44,46.48,307.89,52.35,308.18,57.68Zm11.21-5.57a5.51,5.51,0,0,0-5.55,5.59h5.55Z" transform="translate(0.13 -1.04)"/>
  </g>
  <g id="temp">
    <g id="sensor.living_room_therm">
      <path class="cls-5" d="M101.74,197.94h-.36a2.84,2.84,0,0,0-.49-.17,4.94,4.94,0,0,1-4.32-3.48,5.18,5.18,0,0,1,1.32-5.56,1.77,1.77,0,0,0,.45-1.06c0-2.53,0-5.06,0-7.59s1.73-3.91,4-3.43a3.23,3.23,0,0,1,2.4,3.43c0,2.5,0,5,0,7.5a1.9,1.9,0,0,0,.52,1.21,5.2,5.2,0,0,1-.37,7.78A14.84,14.84,0,0,1,101.74,197.94Zm-1.26-15c0,2,0,3.86,0,5.74a1.07,1.07,0,0,1-.6,1.14,3.07,3.07,0,0,0-1.5,3.51,3.29,3.29,0,0,0,2.76,2.46,3.25,3.25,0,0,0,3.36-1.85,2.84,2.84,0,0,0-.78-3.7c-1.17-.72-1.11-1.63-1.09-2.69,0-1.28,0-2.57,0-3.85,0-.25,0-.51,0-.76Z" transform="translate(0.13 -1.04)"/>
    </g>
    <text class="cls-6" transform="translate(110.27 184.46)">TºC<tspan x="0" y="12">H%</tspan></text>
    <g id="sensor.library_therm">
      <path class="cls-5" d="M100.11,336.22h-.36a2.66,2.66,0,0,0-.5-.16,5,5,0,0,1-4.31-3.48A5.18,5.18,0,0,1,96.26,327a1.8,1.8,0,0,0,.45-1.07c0-2.53,0-5.06,0-7.59s1.72-3.91,4-3.42a3.23,3.23,0,0,1,2.4,3.42c0,2.5,0,5,0,7.5a1.94,1.94,0,0,0,.51,1.21,5.19,5.19,0,0,1-.36,7.78A13.91,13.91,0,0,1,100.11,336.22Zm-1.26-15c0,2,0,3.86,0,5.74a1.08,1.08,0,0,1-.6,1.14,3.07,3.07,0,0,0-1.5,3.5,3.26,3.26,0,0,0,6.12.62,2.84,2.84,0,0,0-.78-3.7c-1.17-.73-1.11-1.64-1.09-2.7,0-1.28,0-2.56,0-3.84,0-.26,0-.51-.05-.76Z" transform="translate(0.13 -1.04)"/>
    </g>
    <text class="cls-6" transform="translate(108.63 322.74)">TºC<tspan x="0" y="12">H%</tspan></text>
    <g id="sensor.kitchen_therm">
      <path class="cls-5" d="M110.83,683.72h-.36a2.42,2.42,0,0,0-.5-.16,5,5,0,0,1-4.32-3.48,5.22,5.22,0,0,1,1.32-5.57,1.69,1.69,0,0,0,.45-1.06c0-2.53,0-5.06,0-7.59s1.73-3.91,4-3.43a3.23,3.23,0,0,1,2.4,3.43c0,2.5,0,5,0,7.5a2,2,0,0,0,.52,1.21,5.21,5.21,0,0,1-.36,7.78A14.1,14.1,0,0,1,110.83,683.72Zm-1.27-15c0,2,0,3.86,0,5.74a1.07,1.07,0,0,1-.59,1.13,3.09,3.09,0,0,0-1.51,3.51,3.27,3.27,0,0,0,6.13.61,2.83,2.83,0,0,0-.79-3.69c-1.17-.73-1.1-1.64-1.09-2.7,0-1.28,0-2.56,0-3.84,0-.26,0-.51,0-.76Z" transform="translate(0.13 -1.04)"/>
    </g>
    <text class="cls-6" transform="translate(119.35 670.24)">TºC<tspan x="0" y="12">H%</tspan></text>
    <g id="sensor.downstairs_bathroom_therm">
      <path class="cls-5" d="M109.21,497.62h-.36a3.22,3.22,0,0,0-.5-.16A5,5,0,0,1,104,494a5.22,5.22,0,0,1,1.32-5.57,1.69,1.69,0,0,0,.45-1.06c0-2.53,0-5.06,0-7.59s1.73-3.91,4-3.43a3.26,3.26,0,0,1,2.41,3.43c0,2.5,0,5,0,7.5a2,2,0,0,0,.52,1.21,5.21,5.21,0,0,1-.36,7.78A14.1,14.1,0,0,1,109.21,497.62Zm-1.27-15c0,2,0,3.86,0,5.74a1.09,1.09,0,0,1-.6,1.13,3.07,3.07,0,0,0-1.5,3.51,3.26,3.26,0,0,0,6.12.61,2.83,2.83,0,0,0-.79-3.69c-1.17-.73-1.1-1.64-1.09-2.7,0-1.28,0-2.56,0-3.84,0-.26,0-.51,0-.76Z" transform="translate(0.13 -1.04)"/>
    </g>
    <text class="cls-6" transform="translate(117.73 484.14)">TºC<tspan x="0" y="12">H%</tspan></text>
    <g id="sensor.hallway_therm">
      <path class="cls-5" d="M250.91,323.54h-.35a3.22,3.22,0,0,0-.5-.16,5,5,0,0,1-4.32-3.48,5.2,5.2,0,0,1,1.32-5.56,1.74,1.74,0,0,0,.45-1.07c0-2.53,0-5.06,0-7.59s1.73-3.91,4-3.42a3.23,3.23,0,0,1,2.4,3.42c0,2.5,0,5,0,7.5a1.9,1.9,0,0,0,.52,1.21,5.2,5.2,0,0,1-.37,7.78A13.91,13.91,0,0,1,250.91,323.54Zm-1.26-15c0,2,0,3.86,0,5.74a1.08,1.08,0,0,1-.6,1.14,3.08,3.08,0,0,0-1.5,3.5,3.26,3.26,0,0,0,6.12.62,2.84,2.84,0,0,0-.78-3.7c-1.17-.73-1.11-1.64-1.09-2.7,0-1.28,0-2.56,0-3.84,0-.26,0-.51-.05-.76Z" transform="translate(0.13 -1.04)"/>
    </g>
    <text class="cls-6" transform="translate(258.76 309.06)">TºC<tspan x="0" y="12">H%</tspan></text>
  </g>
  <g id="motion_border">
    <g>
      <path id="binary_sensor.library_motion_border" class="cls-7" d="M239,249.87v95.52H85.15V206.79h25m104.92,0H239v14.35" transform="translate(0.13 -1.04)"/>
      <polygon id="binary_sensor.front_door_motion_border" class="cls-7" points="269.87 64.12 269.87 90.58 276.7 90.58 318.7 90.58 325.09 90.58 325.09 64.12 269.87 64.12"/>
      <path id="binary_sensor.hallway_motion_border" class="cls-7" d="M242.82,327.53H239V249.87M319.56,91.62H325V327.53H286.83M239,221.14V206.79l30.76-29.46V91.62h49.82" transform="translate(0.13 -1.04)"/>
      <path id="binary_sensor.kitchen_motion_border" class="cls-7" d="M286.83,327.53H325V539.32H308.28V693.53H97.66V570h74.15V498.51H157.44V345.39H239V327.53h3.84" transform="translate(0.13 -1.04)"/>
      <path id="binary_sensor.downstairs_bathroom_motion_border" class="cls-7" d="M97.66,468.92h59.78v29.59h14.37V570H97.66Z" transform="translate(0.13 -1.04)"/>
      <path id="binary_sensor.living_room_motion_border" class="cls-7" d="M110.16,206.79h-25V65.16H119.9V31.47h114V65.16h35.84V177.33L239,206.79h-23.9" transform="translate(0.13 -1.04)"/>
    </g>
  </g>
  <g id="openings">
    <line id="sensor.living_room_window_2" class="cls-8" x1="124.09" y1="30.43" x2="178.53" y2="30.43"/>
    <line id="sensor.living_room_window_3" class="cls-8" x1="176.98" y1="30.43" x2="230.4" y2="30.43"/>
    <line id="sensor.living_room_window_1" class="cls-8" x1="119.9" y1="62.29" x2="119.9" y2="34.09"/>
    <line id="sensor.living_room_window_4" class="cls-8" x1="234.26" y1="62.29" x2="234.26" y2="34.09"/>
    <line id="sensor.library_door_1" class="cls-8" x1="142.37" y1="344.34" x2="100.37" y2="344.34"/>
    <line id="sensor.kitchen_window_1" class="cls-8" x1="157.58" y1="359.08" x2="157.58" y2="401.07"/>
    <line id="sensor.kitchen_window_2" class="cls-8" x1="157.58" y1="416.94" x2="157.58" y2="458.94"/>
    <line id="sensor.downstairs_bathroom_window_1" class="cls-8" x1="97.79" y1="502.41" x2="97.79" y2="538.28"/>
    <line id="sensor.kitchen_door_1" class="cls-8" x1="141.68" y1="692.49" x2="266.11" y2="692.49"/>
    <line id="sensor.hallway_door_1" class="cls-8" x1="318.7" y1="90.58" x2="276.7" y2="90.58"/>
  </g>
  <g id="text">
    <text class="cls-9" transform="translate(318.43 401.07) rotate(-90)">KITCHEN</text>
    <text class="cls-9" transform="translate(232.26 279.28) rotate(-90)">LIBRA<tspan class="cls-10" x="45.97" y="0">R</tspan><tspan x="56.32" y="0">Y</tspan></text>
    <text class="cls-9" transform="translate(103.35 118.82) rotate(-90)">LIVING<tspan x="4.23" y="15">ROOM</tspan></text>
    <text class="cls-9" transform="translate(320.88 135.19) rotate(-90)">HALL</text>
    <text class="cls-11" transform="translate(351.05 158.8) rotate(-90)">GROUND FLOOR</text>
  </g>
</svg>
