<svg xmlns="http://www.w3.org/2000/svg" viewBox="0 0 381.25 731.77"><defs><style>.cls-1,.cls-11,.cls-8{fill:#22232d;}.cls-10,.cls-2,.cls-3,.cls-9{fill:none;stroke-miterlimit:10;}.cls-2{stroke:#22232d;opacity:0.06;}.cls-2,.cls-3{stroke-width:0.25px;}.cls-3{stroke:#f7f8fa;}.cls-13,.cls-4{fill:#f7f8fa;}.cls-4{opacity:0.14;}.cls-5,.cls-6{fill:#00e4d7;}.cls-5{opacity:0.3;}.cls-7,.cls-8{font-size:13px;}.cls-7{fill:#fff;}.cls-13,.cls-7,.cls-8{font-family:Helvetica;}.cls-9{stroke:#00e4d7;stroke-width:2px;}.cls-10{stroke:#bcbec0;stroke-width:4px;}.cls-11{font-size:19.24px;font-family:HelveticaNeue-CondensedBold, Helvetica Neue;font-weight:700;}.cls-12{letter-spacing:-0.02em;}.cls-13{font-size:14px;}.cls-14{fill:#de3428;}</style></defs><title>ground-floorplan</title><g id="Background"><rect class="cls-1" x="0.13" y="0.13" width="381" height="731.52"/><rect class="cls-2" x="0.13" y="0.13" width="381" height="731.52"/></g><g id="house-outline"><path id="house_border" class="cls-3" d="M99.54,696.36V471.75h59.78V348.22H87V68h34.75V34.3h114V68h91.06V542.15H310.16V696.36Z" transform="translate(0.13 0.13)"/><path id="house_fill" class="cls-4" d="M99.54,696.36V471.75h59.78V348.22H87V68h34.75V34.3h114V68h91.06V542.15H310.16V696.36Z" transform="translate(0.13 0.13)"/><polygon id="outdoor_border" class="cls-4" points="266.56 38.12 266.56 4.42 92.56 4.42 92.56 38.12 57.8 38.12 57.8 378.34 130.09 378.34 130.09 441.88 70.31 441.88 70.31 726.48 310.93 726.48 310.93 696.48 100.31 696.48 100.31 471.88 160.09 471.88 160.09 348.34 87.8 348.34 87.8 68.12 122.56 68.12 122.56 34.42 236.56 34.42 236.56 68.12 327.62 68.12 327.62 68.12 327.62 38.12 266.56 38.12"/><path id="library_border" class="cls-3" d="M87,209.62H240.86v138.6H87Z" transform="translate(0.13 0.13)"/><path id="hallway_border" class="cls-3" d="M326.84,330.36h-86V209.62l30.76-29.46V94.45h55.22Z" transform="translate(0.13 0.13)"/><path id="kitchen_border" class="cls-3" d="M159.32,501.34V348.22h81.54V330.36h86V542.15H310.16V696.36H99.54V572.82h74.14V501.34Z" transform="translate(0.13 0.13)"/><path id="downstairs_bathroom_border" class="cls-3" d="M99.54,471.75h59.78v29.59h14.36v71.48H99.54Z" transform="translate(0.13 0.13)"/><path id="living_room_border" class="cls-3" d="M217,209.62H87V68h34.75V34.3h114V68h35.84V180.16l-30.76,29.46H217" transform="translate(0.13 0.13)"/><rect id="front_door_border" class="cls-3" x="271.74" y="68.12" width="55.22" height="26.46"/></g><g id="motion_fill"><path id="binary_sensor.living_room_motion_fill" class="cls-5" d="M217,209.62H87V68h34.75V34.3h114V68h35.84V180.16l-30.76,29.46H217" transform="translate(0.13 0.13)"/><path id="binary_sensor.library_motion_fill" class="cls-5" d="M87,209.62H240.86v138.6H87Z" transform="translate(0.13 0.13)"/><path id="binary_sensor.hallway_motion_fill" class="cls-5" d="M326.84,330.36h-86V209.62l30.76-29.46V94.45h55.22Z" transform="translate(0.13 0.13)"/><rect id="binary_sensor.front_door_motion_fill" class="cls-5" x="271.74" y="68.12" width="55.22" height="26.46"/><path id="binary_sensor.kitchen_motion_fill" class="cls-5" d="M159.32,501.34V348.22h81.54V330.36h86V542.15H310.16V696.36H99.54V572.82h74.14V501.34Z" transform="translate(0.13 0.13)"/><path id="binary_sensor.downstairs_bathroom_motion_fill" class="cls-5" d="M99.54,471.75h59.78v29.59h14.36v71.48H99.54Z" transform="translate(0.13 0.13)"/><polyline id="binary_sensor.outdoor_back_motion_fill" class="cls-5" points="70.31 726.48 310.93 726.48 310.93 696.48 100.31 696.48 70.31 726.48"/><polyline id="binary_sensor.outdoor_side_motion_fill" class="cls-5" points="57.8 38.12 57.8 38.12 57.8 38.12 57.8 38.12 57.8 378.34 130.09 378.34 130.09 441.88 70.31 441.88 70.31 726.48 70.31 726.48 100.31 696.48 100.31 696.48 100.31 471.88 160.09 471.88 160.09 348.34 87.8 348.34 87.8 68.12 57.8 38.12"/><polyline id="binary_sensor.outdoor_front_motion_fill" class="cls-5" points="87.8 68.12 122.56 68.12 122.56 34.42 236.56 34.42 236.56 68.12 327.62 68.12 327.62 68.12 327.62 38.12 266.56 38.12 266.56 4.42 92.56 4.42 92.56 38.12 57.8 38.12 87.8 68.12"/></g><g id="icons"><g id="sensor.outdoor_back_light"><path class="cls-1" d="M269.61,705.76a4.51,4.51,0,0,0-.07.53c0,2.17,0,4.35,0,6.52a5.17,5.17,0,0,0,10.33,0c0-2.18,0-4.35,0-6.53a3,3,0,0,0-.07-.49Zm-1.75-2.59a1.49,1.49,0,0,0,1.49,1.69c2,0,4.1,0,6.15,0,1.53,0,3.06,0,4.59,0a1.39,1.39,0,0,0,1.41-1.69Zm13.29,8.18a12,12,0,0,0,0,1.36c0,.16.25.42.4.42.7,0,1.41,0,2.14,0v-1.8Zm-12.94,1.76v-1.75h-2.5v1.75Zm13.37,5-1.67-1.82-1.23,1,1.85,1.85Zm-12-1.85-1.73,1.62,1.09,1.17,1.87-1.73Zm5.95,5V718.7H273.9v2.61Z" transform="translate(0.13 0.13)"/><path class="cls-1" d="M269.61,705.76h10.2a3,3,0,0,1,.07.49c0,2.18,0,4.35,0,6.53a5.17,5.17,0,0,1-10.33,0c0-2.17,0-4.35,0-6.52A4.51,4.51,0,0,1,269.61,705.76Z" transform="translate(0.13 0.13)"/><path class="cls-1" d="M267.86,703.17H281.5a1.39,1.39,0,0,1-1.41,1.69c-1.53,0-3.06,0-4.59,0-2.05,0-4.1,0-6.15,0A1.49,1.49,0,0,1,267.86,703.17Z" transform="translate(0.13 0.13)"/><path class="cls-1" d="M281.15,711.35h2.56v1.8c-.73,0-1.44,0-2.14,0-.15,0-.37-.26-.4-.42A12,12,0,0,1,281.15,711.35Z" transform="translate(0.13 0.13)"/><path class="cls-1" d="M268.21,713.11h-2.5v-1.75h2.5Z" transform="translate(0.13 0.13)"/><path class="cls-1" d="M281.58,718.15l-1.05,1-1.85-1.85,1.23-1Z" transform="translate(0.13 0.13)"/><path class="cls-1" d="M269.56,716.3l1.23,1.06-1.87,1.73-1.09-1.17Z" transform="translate(0.13 0.13)"/><path class="cls-1" d="M275.51,721.31H273.9V718.7h1.61Z" transform="translate(0.13 0.13)"/><g id="zefc6x"><path class="cls-1" d="M129.79,706.29a3.21,3.21,0,0,0-.07.53c0,2.18,0,4.35,0,6.53a5.17,5.17,0,0,0,10.33,0c0-2.17,0-4.35,0-6.52a3.16,3.16,0,0,0-.07-.5ZM128,703.71a1.49,1.49,0,0,0,1.48,1.69c2.06,0,4.11,0,6.16,0,1.53,0,3.06,0,4.58,0a1.39,1.39,0,0,0,1.42-1.68Zm13.29,8.18a9.92,9.92,0,0,0,0,1.35.6.6,0,0,0,.4.43c.7,0,1.41,0,2.14,0v-1.8Zm-12.94,1.76V711.9h-2.5v1.75Zm13.36,5-1.67-1.81-1.22,1,1.85,1.84Zm-12-1.84L128,718.46l1.08,1.17L131,717.9Zm5.95,5v-2.61h-1.62v2.61Z" transform="translate(0.13 0.13)"/><path class="cls-1" d="M129.79,706.29H140a3.16,3.16,0,0,1,.07.5c0,2.17,0,4.35,0,6.52a5.17,5.17,0,0,1-10.33,0c0-2.18,0-4.35,0-6.53A3.21,3.21,0,0,1,129.79,706.29Z" transform="translate(0.13 0.13)"/><path class="cls-1" d="M128,703.71h13.64a1.39,1.39,0,0,1-1.42,1.68c-1.52,0-3,0-4.58,0-2.05,0-4.1,0-6.16,0A1.49,1.49,0,0,1,128,703.71Z" transform="translate(0.13 0.13)"/><path class="cls-1" d="M141.33,711.89h2.56v1.8c-.73,0-1.44,0-2.14,0a.6.6,0,0,1-.4-.43A9.92,9.92,0,0,1,141.33,711.89Z" transform="translate(0.13 0.13)"/><path class="cls-1" d="M128.39,713.65h-2.5V711.9h2.5Z" transform="translate(0.13 0.13)"/><path class="cls-1" d="M141.75,718.68l-1,1-1.85-1.84,1.22-1Z" transform="translate(0.13 0.13)"/><path class="cls-1" d="M129.74,716.84,131,717.9l-1.88,1.73L128,718.46Z" transform="translate(0.13 0.13)"/><path class="cls-1" d="M135.69,721.85h-1.62v-2.61h1.62Z" transform="translate(0.13 0.13)"/></g></g><g id="sensor.outdoor_front_light"><path class="cls-1" d="M260.17,57.7a4.51,4.51,0,0,0,.07-.53c0-2.18,0-4.35,0-6.53a5.17,5.17,0,0,0-10.33,0c0,2.17,0,4.35,0,6.52a5,5,0,0,0,.07.5Zm1.75,2.59a1.49,1.49,0,0,0-1.49-1.69c-2.05,0-4.11,0-6.16,0-1.53,0-3.06,0-4.58,0a1.38,1.38,0,0,0-1.41,1.69Zm-13.3-8.19a9.92,9.92,0,0,0,0-1.35.63.63,0,0,0-.39-.43c-.71,0-1.42,0-2.14,0v1.8Zm12.95-1.76V52.1h2.5V50.34Zm-13.37-5,1.67,1.82,1.23-1-1.85-1.85Zm12,1.85,1.73-1.62-1.08-1.18L259,46.09Zm-5.95-5v2.6h1.62v-2.6Z" transform="translate(0.13 0.13)"/><path class="cls-1" d="M260.17,57.7H250a5,5,0,0,1-.07-.5c0-2.17,0-4.35,0-6.52a5.17,5.17,0,0,1,10.33,0c0,2.18,0,4.35,0,6.53A4.51,4.51,0,0,1,260.17,57.7Z" transform="translate(0.13 0.13)"/><path class="cls-1" d="M261.92,60.29H248.28a1.38,1.38,0,0,1,1.41-1.69c1.52,0,3.05,0,4.58,0,2,0,4.11,0,6.16,0A1.49,1.49,0,0,1,261.92,60.29Z" transform="translate(0.13 0.13)"/><path class="cls-1" d="M248.62,52.1h-2.55V50.3c.72,0,1.43,0,2.14,0a.63.63,0,0,1,.39.43A9.92,9.92,0,0,1,248.62,52.1Z" transform="translate(0.13 0.13)"/><path class="cls-1" d="M261.57,50.34h2.5V52.1h-2.5Z" transform="translate(0.13 0.13)"/><path class="cls-1" d="M248.2,45.31l1.05-1,1.85,1.85-1.23,1Z" transform="translate(0.13 0.13)"/><path class="cls-1" d="M260.21,47.16,259,46.09l1.88-1.73,1.08,1.18Z" transform="translate(0.13 0.13)"/><path class="cls-1" d="M254.26,42.15h1.62v2.6h-1.62Z" transform="translate(0.13 0.13)"/></g><g id="sensor.outdoor_side_light"><path class="cls-1" d="M149.6,407.88a4.51,4.51,0,0,0-.53-.07c-2.18,0-4.35,0-6.53,0a5.17,5.17,0,0,0,0,10.33c2.17,0,4.35,0,6.52,0a5,5,0,0,0,.5-.07Zm2.59-1.75a1.49,1.49,0,0,0-1.69,1.49c0,2.05,0,4.11,0,6.16,0,1.53,0,3.06,0,4.58a1.38,1.38,0,0,0,1.69,1.41ZM144,419.43a10,10,0,0,0-1.36,0,.63.63,0,0,0-.43.39c0,.71,0,1.42,0,2.14H144Zm-1.77-12.95H144V404h-1.76Zm-5,13.37,1.82-1.67-1-1.23-1.85,1.85Zm1.85-12-1.62-1.73-1.18,1.08,1.74,1.88Zm-5,6h2.6v-1.62h-2.6Z" transform="translate(0.13 0.13)"/><path class="cls-1" d="M149.6,407.88v10.21a5,5,0,0,1-.5.07c-2.17,0-4.35,0-6.52,0a5.17,5.17,0,0,1,0-10.33c2.18,0,4.35,0,6.53,0A4.51,4.51,0,0,1,149.6,407.88Z" transform="translate(0.13 0.13)"/><path class="cls-1" d="M152.19,406.13v13.64a1.38,1.38,0,0,1-1.69-1.41c0-1.52,0-3.05,0-4.58,0-2,0-4.11,0-6.16A1.49,1.49,0,0,1,152.19,406.13Z" transform="translate(0.13 0.13)"/><path class="cls-1" d="M144,419.43V422H142.2c0-.72,0-1.43,0-2.14a.63.63,0,0,1,.43-.39A10,10,0,0,1,144,419.43Z" transform="translate(0.13 0.13)"/><path class="cls-1" d="M142.24,406.48V404H144v2.5Z" transform="translate(0.13 0.13)"/><path class="cls-1" d="M137.21,419.85l-1-1.05,1.85-1.85,1,1.23Z" transform="translate(0.13 0.13)"/><path class="cls-1" d="M139.06,407.84,138,409.07l-1.74-1.88,1.18-1.08Z" transform="translate(0.13 0.13)"/><path class="cls-1" d="M134.05,413.79v-1.62h2.6v1.62Z" transform="translate(0.13 0.13)"/></g><path id="sensor.day_room_motion" class="cls-6" d="M121.06,692.89h-2.61c-.92-8.62-5.68-13.42-14.44-14.41V676C112.2,675.47,121.1,682.51,121.06,692.89Zm-17-11.25v2.67c5.22.54,8,3.43,8.55,8.57h2.74C115.29,685.9,109.42,681.34,104.09,681.64Zm5.57,11.21a5.51,5.51,0,0,0-5.59-5.55v5.55Z" transform="translate(0.13 0.13)"/><g id="sensor.living_room_ceiling"><path class="cls-1" d="M178.71,117.29v-7.66h3v7.66c1.33,0,2.56,0,3.79,0,.37,0,.93.17,1.07.43,2,3.89,4,7.81,6,11.86H168a11.17,11.17,0,0,1,.43-1.06c1.71-3.42,3.46-6.82,5.14-10.27a1.51,1.51,0,0,1,1.68-1C176.33,117.35,177.45,117.29,178.71,117.29Z" transform="translate(0.13 0.13)"/><path class="cls-1" d="M177.25,131.3h5.92a2.88,2.88,0,0,1-2.83,3C178.67,134.35,177.51,133.24,177.25,131.3Z" transform="translate(0.13 0.13)"/></g><g id="sensor.library_light"><path class="cls-1" d="M157.21,271.22v-7.66h3v7.66c1.33,0,2.56,0,3.79,0,.37,0,.93.16,1.07.43,2,3.89,4,7.81,6,11.86h-24.6c.15-.37.26-.73.43-1.06,1.72-3.42,3.46-6.83,5.14-10.27a1.51,1.51,0,0,1,1.68-1C154.83,271.28,156,271.22,157.21,271.22Z" transform="translate(0.13 0.13)"/><path class="cls-1" d="M155.75,285.23h5.92a2.87,2.87,0,0,1-2.83,3C157.17,288.28,156,287.17,155.75,285.23Z" transform="translate(0.13 0.13)"/></g><g id="sensor.hallway_light"><path class="cls-1" d="M299,177.89v-7.66h3v7.66c1.33,0,2.56,0,3.79,0,.37,0,.93.16,1.07.43,2,3.89,3.95,7.81,6,11.86H288.23c.15-.37.27-.73.44-1.06,1.71-3.42,3.46-6.83,5.14-10.27a1.51,1.51,0,0,1,1.68-1C296.59,178,297.71,177.89,299,177.89Z" transform="translate(0.13 0.13)"/><path class="cls-1" d="M297.51,191.9h5.92a2.87,2.87,0,0,1-2.83,3C298.93,195,297.77,193.84,297.51,191.9Z" transform="translate(0.13 0.13)"/></g><g id="sensor.downstairs_bathroom_light"><path class="cls-1" d="M239.29,416.15v-7.66h3v7.66c1.33,0,2.57,0,3.8,0,.37,0,.93.16,1.06.43,2,3.89,4,7.81,6,11.85H228.55c.15-.36.27-.72.44-1.05,1.71-3.42,3.46-6.83,5.14-10.27a1.48,1.48,0,0,1,1.67-1C236.91,416.21,238,416.15,239.29,416.15Z" transform="translate(0.13 0.13)"/><path class="cls-1" d="M237.83,430.16h5.92a2.87,2.87,0,0,1-2.84,3C239.25,433.21,238.09,432.09,237.83,430.16Z" transform="translate(0.13 0.13)"/></g><g id="sensor.kitchen_light_2"><path class="cls-1" d="M207.18,610.76V603.1h3v7.66c1.34,0,2.57,0,3.8,0,.37,0,.93.16,1.06.43,2,3.89,4,7.81,6,11.86H196.44c.15-.37.27-.73.44-1.06,1.71-3.42,3.46-6.83,5.14-10.27a1.5,1.5,0,0,1,1.67-1C204.8,610.82,205.92,610.76,207.18,610.76Z" transform="translate(0.13 0.13)"/><path class="cls-1" d="M205.72,624.77h5.92a2.87,2.87,0,0,1-2.83,3C207.14,627.82,206,626.71,205.72,624.77Z" transform="translate(0.13 0.13)"/></g><g id="sensor.downstairs_bathroom_light-2" data-name="sensor.downstairs_bathroom_light"><path class="cls-1" d="M134.12,519.55v-7.66h3v7.66c1.33,0,2.56,0,3.79,0,.37,0,.93.16,1.07.43,2,3.89,4,7.81,6,11.86H123.39c.15-.37.27-.73.43-1.06,1.72-3.42,3.47-6.83,5.14-10.27a1.51,1.51,0,0,1,1.68-1C131.74,519.61,132.86,519.55,134.12,519.55Z" transform="translate(0.13 0.13)"/><path class="cls-1" d="M132.67,533.56h5.91a2.86,2.86,0,0,1-2.83,3C134.08,536.61,132.92,535.5,132.67,533.56Z" transform="translate(0.13 0.13)"/></g><g id="sensor.hallway_light-2" data-name="sensor.hallway_light"><path class="cls-1" d="M297.89,75.19V67.53h3v7.66c1.33,0,2.57,0,3.8,0,.37,0,.93.17,1.06.43,2,3.89,4,7.81,6,11.86H287.15c.15-.37.27-.72.44-1.06,1.71-3.42,3.46-6.82,5.14-10.27a1.5,1.5,0,0,1,1.67-1C295.51,75.25,296.63,75.19,297.89,75.19Z" transform="translate(0.13 0.13)"/><path class="cls-1" d="M296.43,89.2h5.92a2.88,2.88,0,0,1-2.84,3C297.85,92.25,296.69,91.14,296.43,89.2Z" transform="translate(0.13 0.13)"/></g></g><g id="temp"><path id="sensor.living_room_therm" class="cls-1" d="M103.62,200.77h-.36a3,3,0,0,0-.5-.17,5,5,0,0,1-4.32-3.48,5.18,5.18,0,0,1,1.33-5.56,1.77,1.77,0,0,0,.45-1.06c0-2.53,0-5.06,0-7.59s1.73-3.91,4-3.43a3.23,3.23,0,0,1,2.41,3.43c0,2.5,0,5,0,7.5a1.89,1.89,0,0,0,.51,1.21,5.19,5.19,0,0,1-.36,7.78A14.84,14.84,0,0,1,103.62,200.77Zm-1.26-15c0,2,0,3.86,0,5.74a1.07,1.07,0,0,1-.6,1.14,3.06,3.06,0,0,0-1.5,3.51,3.26,3.26,0,0,0,6.12.61,2.84,2.84,0,0,0-.78-3.7c-1.17-.72-1.11-1.63-1.09-2.69,0-1.28,0-2.57,0-3.85,0-.25,0-.51,0-.76Z" transform="translate(0.13 0.13)"/><path id="sensor.library_therm" class="cls-1" d="M102,339.05h-.36a2.91,2.91,0,0,0-.5-.16,5,5,0,0,1-4.32-3.48,5.18,5.18,0,0,1,1.33-5.56,1.8,1.8,0,0,0,.45-1.07c0-2.53,0-5.06,0-7.59s1.73-3.91,4-3.42a3.23,3.23,0,0,1,2.41,3.42c0,2.5,0,5,0,7.5a1.89,1.89,0,0,0,.51,1.21,5.19,5.19,0,0,1-.36,7.78A13.91,13.91,0,0,1,102,339.05Zm-1.26-15c0,2,0,3.86,0,5.74a1.1,1.1,0,0,1-.6,1.14,3.05,3.05,0,0,0-1.5,3.5,3.26,3.26,0,0,0,6.12.61,2.83,2.83,0,0,0-.78-3.69c-1.18-.73-1.11-1.64-1.09-2.7,0-1.28,0-2.56,0-3.84,0-.26,0-.51,0-.76Z" transform="translate(0.13 0.13)"/><path id="sensor.day_room_therm" class="cls-6" d="M250.74,688.86h-.46a4.2,4.2,0,0,0-.66-.21,6.52,6.52,0,0,1-5.66-4.56,6.83,6.83,0,0,1,1.74-7.29,2.35,2.35,0,0,0,.59-1.39c.05-3.31,0-6.63,0-9.94s2.27-5.12,5.23-4.49c1.9.41,3.13,2.12,3.15,4.49,0,3.27,0,6.55,0,9.82a2.6,2.6,0,0,0,.68,1.59,6.81,6.81,0,0,1-.47,10.19A19,19,0,0,1,250.74,688.86Zm-1.65-19.64c0,2.6,0,5.06,0,7.52a1.44,1.44,0,0,1-.79,1.49,4,4,0,0,0-2,4.59,4.27,4.27,0,0,0,8,.81c.8-1.75.59-3.84-1-4.84s-1.45-2.15-1.43-3.53c0-1.68,0-3.36,0-5,0-.34,0-.67-.06-1Z" transform="translate(0.13 0.13)"/><text id="sensor.day_room_temperature" class="cls-7" transform="translate(262.23 671.35)">TºC</text><text id="sensor.day_room_humidity" class="cls-7" transform="translate(262.23 686.55)">H%</text><text id="sensor.downstairs_bathroom_temperature" class="cls-8" transform="translate(119.82 488.56)">TºC</text><text id="sensor.downstairs_bathroom_humidity" class="cls-8" transform="translate(120.11 500.87)">H%</text><path id="sensor.downstairs_bathroom_therm" class="cls-1" d="M111.1,501.26h-.39a2.72,2.72,0,0,0-.53-.17,5.34,5.34,0,0,1-4.65-3.75,5.57,5.57,0,0,1,1.42-6,1.92,1.92,0,0,0,.49-1.15c0-2.72,0-5.44,0-8.16s1.86-4.21,4.29-3.69c1.56.33,2.57,1.74,2.59,3.69,0,2.69,0,5.38,0,8.07a2.06,2.06,0,0,0,.55,1.3,5.6,5.6,0,0,1-.39,8.37A15.37,15.37,0,0,1,111.1,501.26Zm-1.36-16.13c0,2.14,0,4.16,0,6.17a1.17,1.17,0,0,1-.64,1.23,3.3,3.3,0,0,0-1.62,3.77,3.51,3.51,0,0,0,6.59.66,3,3,0,0,0-.84-4c-1.27-.79-1.2-1.77-1.18-2.9,0-1.38,0-2.76,0-4.14,0-.28,0-.55-.06-.82Z" transform="translate(0.13 0.13)"/><path id="sensor.hallway_therm" class="cls-1" d="M252.79,326.37h-.36a2.91,2.91,0,0,0-.5-.16,5,5,0,0,1-4.32-3.48,5.18,5.18,0,0,1,1.33-5.56,1.8,1.8,0,0,0,.45-1.07c0-2.53,0-5.06,0-7.59s1.73-3.91,4-3.42a3.23,3.23,0,0,1,2.41,3.42c0,2.5,0,5,0,7.5a1.94,1.94,0,0,0,.51,1.21A5.19,5.19,0,0,1,256,325,13.91,13.91,0,0,1,252.79,326.37Zm-1.26-15c0,2,0,3.86,0,5.74a1.08,1.08,0,0,1-.6,1.14,3.05,3.05,0,0,0-1.5,3.5,3.26,3.26,0,0,0,6.12.62,2.84,2.84,0,0,0-.78-3.7c-1.17-.73-1.11-1.64-1.09-2.7,0-1.28,0-2.56,0-3.84,0-.26,0-.51-.05-.76Z" transform="translate(0.13 0.13)"/><path id="sensor.kitchen_therm" class="cls-6" d="M179,384.88h-.47a4.09,4.09,0,0,0-.65-.21,6.49,6.49,0,0,1-5.66-4.56,6.79,6.79,0,0,1,1.73-7.28,2.24,2.24,0,0,0,.59-1.4c.05-3.31,0-6.62,0-9.94s2.26-5.12,5.22-4.48c1.9.4,3.14,2.12,3.15,4.48,0,3.28,0,6.55,0,9.83a2.47,2.47,0,0,0,.68,1.58,6.81,6.81,0,0,1-.48,10.19C182,384,180.4,384.3,179,384.88Zm-1.65-19.63c0,2.6,0,5.06,0,7.51a1.41,1.41,0,0,1-.78,1.49,4,4,0,0,0-2,4.6,4.28,4.28,0,0,0,8,.8c.8-1.75.58-3.84-1-4.84s-1.45-2.15-1.42-3.53c0-1.68,0-3.36,0-5,0-.33,0-.67-.07-1Z" transform="translate(0.13 0.13)"/><text id="sensor.kitchen_temperature" class="cls-7" transform="translate(189.78 369.18)">TºC</text><text id="sensor.kitchen_humidity" class="cls-7" transform="translate(189.77 383.49)">H%</text></g><g id="motion_border"><path id="binary_sensor.library_motion_border" class="cls-9" d="M240.86,252.7v95.52H87V209.62h25m104.91,0h23.91V224" transform="translate(0.13 0.13)"/><polygon id="binary_sensor.front_door_motion_border" class="cls-9" points="271.74 68.11 271.74 94.58 278.58 94.58 320.58 94.58 326.97 94.58 326.97 68.11 271.74 68.11"/><path id="binary_sensor.hallway_motion_border" class="cls-9" d="M244.7,330.36h-3.84V252.7M321.43,94.45h5.41V330.36H288.71M240.86,224V209.62l30.76-29.46V94.45h49.81" transform="translate(0.13 0.13)"/><path id="binary_sensor.kitchen_motion_border" class="cls-9" d="M288.71,330.36h38.13V542.15H310.16V696.36H99.54V572.82h74.14V501.34H159.32V348.22h81.54V330.36h3.84" transform="translate(0.13 0.13)"/><path id="binary_sensor.downstairs_bathroom_motion_border" class="cls-9" d="M99.54,471.75h59.78v29.59h14.36v71.48H99.54Z" transform="translate(0.13 0.13)"/><path id="binary_sensor.living_room_motion_border" class="cls-9" d="M112,209.62H87V68h34.75V34.3h114V68h35.84V180.16l-30.76,29.46H217" transform="translate(0.13 0.13)"/></g><g id="openings"><path id="binary_sensor.living_room_window_2" class="cls-10" d="M125.84,34.3h54.44" transform="translate(0.13 0.13)"/><path id="binary_sensor.living_room_window_3" class="cls-10" d="M178.73,34.3h53.42" transform="translate(0.13 0.13)"/><path id="binary_sensor.living_room_window_1" class="cls-10" d="M121.65,66.17V38" transform="translate(0.13 0.13)"/><path id="binary_sensor.living_room_window_4" class="cls-10" d="M236,66.17V38" transform="translate(0.13 0.13)"/><path id="binary_sensor.library_door_1" class="cls-10" d="M144.12,348.22h-42" transform="translate(0.13 0.13)"/><path id="binary_sensor.kitchen_window_1" class="cls-10" d="M159.34,363v42" transform="translate(0.13 0.13)"/><path id="binary_sensor.kitchen_window_2" class="cls-10" d="M159.34,420.81v42" transform="translate(0.13 0.13)"/><path id="binary_sensor.downstairs_bathroom_window_1" class="cls-10" d="M99.54,506.28v35.87" transform="translate(0.13 0.13)"/><line id="binary_sensor.kitchen_door_1" class="cls-10" x1="143.56" y1="696.48" x2="267.98" y2="696.48"/><path id="binary_sensor.hallway_door_1" class="cls-10" d="M278.46,94.45h42" transform="translate(0.13 0.13)"/></g><g id="text"><text class="cls-11" transform="translate(320.3 405.07) rotate(-90)">KITCHEN</text><text class="cls-11" transform="translate(234.14 283.27) rotate(-90)">LIBRA<tspan class="cls-12" x="45.97" y="0">R</tspan><tspan x="56.32" y="0">Y</tspan></text><text class="cls-11" transform="translate(105.23 122.81) rotate(-90)">LIVING<tspan x="4.23" y="15">ROOM</tspan></text><text class="cls-11" transform="translate(322.76 139.19) rotate(-90)">HALL</text><text class="cls-13" transform="translate(352.92 181.99) rotate(-90)">GROUND FLOOR</text></g><g id="sensor_battery_warnings"><path id="binary_sensor.living_room_window_4_battery" class="cls-14" d="M227.36,40.77V43c.56,0,1.09,0,1.61,0,1.16,0,1.78.59,1.78,1.73,0,5.66,0,11.33,0,17a1.49,1.49,0,0,1-1.64,1.66q-5.15,0-10.29,0a1.49,1.49,0,0,1-1.65-1.66q0-8.49,0-17c0-1.14.62-1.7,1.79-1.73.5,0,1,0,1.57,0V40.77Zm-2.29,7.92h-2.2v5.56h2.2Zm0,10.13v-2.2H222.9v2.2Z" transform="translate(0.13 0.13)"/><path id="binary_sensor.living_room_window_1_battery" class="cls-14" d="M136,40.18v2.18h1.61c1.16,0,1.78.59,1.78,1.73q0,8.5,0,17a1.48,1.48,0,0,1-1.64,1.66q-5.14,0-10.29,0a1.48,1.48,0,0,1-1.64-1.66q0-8.49,0-17c0-1.14.61-1.7,1.78-1.73h1.57V40.18Zm-2.29,7.92h-2.19v5.55h2.19Zm0,10.12V56h-2.14v2.2Z" transform="translate(0.13 0.13)"/><path id="binary_sensor.living_room_window_2_battery" class="cls-14" d="M158.06,21.12V23.3c.57,0,1.09,0,1.61,0,1.17,0,1.78.59,1.78,1.74q0,8.49,0,17a1.48,1.48,0,0,1-1.64,1.65q-5.15,0-10.29,0A1.48,1.48,0,0,1,147.88,42q0-8.51,0-17c0-1.14.62-1.7,1.78-1.73.5,0,1,0,1.57,0V21.12ZM155.77,29h-2.19v5.55h2.19Zm0,10.13V37h-2.13v2.21Z" transform="translate(0.13 0.13)"/><path id="binary_sensor.hallway_door_1_battery" class="cls-14" d="M302.63,83.16v2.18c.56,0,1.08,0,1.61,0A1.58,1.58,0,0,1,306,87.07q0,8.5,0,17a1.49,1.49,0,0,1-1.65,1.65q-5.14,0-10.29,0a1.48,1.48,0,0,1-1.64-1.65q0-8.5,0-17c0-1.14.62-1.7,1.79-1.73.49,0,1,0,1.57,0V83.16Zm-2.3,7.92h-2.19v5.55h2.19Zm0,10.12V99h-2.14v2.2Z" transform="translate(0.13 0.13)"/><path id="binary_sensor.library_door_1_battery" class="cls-14" d="M126.52,336.93v2.18h1.6c1.17,0,1.78.59,1.79,1.73q0,8.49,0,17a1.49,1.49,0,0,1-1.65,1.66q-5.14,0-10.29,0a1.48,1.48,0,0,1-1.64-1.66q0-8.49,0-17c0-1.14.62-1.7,1.78-1.73h1.58v-2.18Zm-2.3,7.91H122v5.56h2.19Zm0,10.13v-2.2h-2.14V355Z" transform="translate(0.13 0.13)"/><path id="binary_sensor.kitchen_window_1_battery" class="cls-14" d="M151.72,370.88v2.19c.56,0,1.08,0,1.6,0,1.17,0,1.78.59,1.79,1.73q0,8.49,0,17a1.49,1.49,0,0,1-1.65,1.66q-5.15,0-10.29,0a1.49,1.49,0,0,1-1.64-1.66q0-8.49,0-17c0-1.14.62-1.7,1.78-1.73.5,0,1,0,1.58,0v-2.19Zm-2.3,7.92h-2.19v5.56h2.19Zm0,10.13v-2.2h-2.14v2.2Z" transform="translate(0.13 0.13)"/><path id="binary_sensor.kitchen_window_2_battery" class="cls-14" d="M151.72,430.52v2.18c.56,0,1.08,0,1.6,0,1.17,0,1.78.59,1.79,1.73q0,8.49,0,17a1.49,1.49,0,0,1-1.65,1.66q-5.15,0-10.29,0a1.49,1.49,0,0,1-1.64-1.66q0-8.49,0-17c0-1.14.62-1.7,1.78-1.73.5,0,1,0,1.58,0v-2.18Zm-2.3,7.92h-2.19V444h2.19Zm0,10.13v-2.2h-2.14v2.2Z" transform="translate(0.13 0.13)"/><path id="binary_sensor.downstairs_bathroom_window_1_battery" class="cls-14" d="M90.42,512.93v2.18H92c1.17,0,1.78.59,1.78,1.73q0,8.49,0,17a1.48,1.48,0,0,1-1.64,1.66c-3.43,0-6.86,0-10.29,0a1.48,1.48,0,0,1-1.64-1.66q0-8.49,0-17c0-1.14.62-1.7,1.78-1.73h1.57v-2.18Zm-2.29,7.91H85.94v5.56h2.19Zm0,10.13v-2.2H86V531Z" transform="translate(0.13 0.13)"/><path id="binary_sensor.kitchen_door_1_battery" class="cls-14" d="M209.12,685.07v2.18h1.61c1.16,0,1.78.59,1.78,1.73q0,8.5,0,17a1.48,1.48,0,0,1-1.64,1.66q-5.15,0-10.29,0a1.49,1.49,0,0,1-1.65-1.66q0-8.49,0-17c0-1.14.62-1.7,1.79-1.73h1.57v-2.18ZM206.83,693h-2.2v5.55h2.2Zm0,10.12v-2.2h-2.14v2.2Z" transform="translate(0.13 0.13)"/><path id="binary_sensor.living_room_window_3_battery" class="cls-14" d="M210.38,21.12V23.3c.56,0,1.08,0,1.6,0,1.17,0,1.78.59,1.78,1.74q0,8.49,0,17a1.48,1.48,0,0,1-1.64,1.65q-5.15,0-10.29,0A1.48,1.48,0,0,1,200.19,42q0-8.51,0-17c0-1.14.62-1.7,1.78-1.73.5,0,1,0,1.57,0V21.12ZM208.08,29h-2.19v5.55h2.19Zm0,10.13V37h-2.13v2.21Z" transform="translate(0.13 0.13)"/><path id="binary_sensor.kitchen_temp_battery" class="cls-14" d="M170.74,352.13v1.26h.93c.67,0,1,.34,1,1q0,4.94,0,9.85a.86.86,0,0,1-.95,1h-6a.86.86,0,0,1-.95-1q0-4.92,0-9.85c0-.66.36-1,1-1h.91v-1.26Zm-1.33,4.58h-1.27v3.22h1.27Zm0,5.87V361.3h-1.23v1.28Z" transform="translate(0.13 0.13)"/><path id="binary_sensor.day_room_temp_battery" class="cls-14" d="M242.69,657.14v1.27h.93c.67,0,1,.34,1,1q0,4.92,0,9.84a.86.86,0,0,1-1,1q-3,0-6,0a.85.85,0,0,1-1-1q0-4.92,0-9.84c0-.66.35-1,1-1h.91v-1.27Zm-1.33,4.59h-1.27V665h1.27Zm0,5.87v-1.28H240.1v1.28Z" transform="translate(0.13 0.13)"/><path id="binary_sensor.day_room_motion_battery" class="cls-14" d="M120.67,670.11v1.26h.93c.67,0,1,.34,1,1q0,4.93,0,9.85a.86.86,0,0,1-.95,1c-2,0-4,0-6,0a.86.86,0,0,1-1-1q0-4.92,0-9.85c0-.66.35-1,1-1h.91v-1.26Zm-1.33,4.58h-1.27v3.22h1.27Zm0,5.87v-1.28h-1.24v1.28Z" transform="translate(0.13 0.13)"/></g></svg>