<svg xmlns="http://www.w3.org/2000/svg" viewBox="0 0 350.11 737.12">
  <defs>
    <style>
      .cls-1, .cls-2, .cls-5, .cls-8 {
        fill: none;
      }

      .cls-1 {
        stroke: #22232d;
        stroke-width: 0.25px;
        opacity: 0.06;
      }

      .cls-1, .cls-2, .cls-3, .cls-5, .cls-8 {
        stroke-miterlimit: 10;
      }

      .cls-2, .cls-3 {
        stroke: #5b71b6;
        stroke-width: 2px;
      }

      .cls-3, .cls-4 {
        fill: #f7f8fa;
        opacity: 0.14;
      }

      .cls-5 {
        stroke: #000;
        stroke-width: 0.5px;
        opacity: 0.25;
      }

      .cls-6 {
        fill: #38a4dd;
        opacity: 0.3;
      }

      .cls-7 {
        fill: #bcbec0;
      }

      .cls-8 {
        stroke: #bcbec0;
        stroke-width: 4px;
      }

      .cls-9 {
        fill: #5b71b6;
      }
    </style>
  </defs>
  <g id="Background">
    <rect class="cls-1" x="0.13" y="0.13" width="349.86" height="736.87"/>
  </g>
  <g id="house-outline">
    <path id="house_border" class="cls-2" d="M99.54,735.83V511.22h59.78V387.69H87V107.46h34.75V73.77h114v33.69h91.06V581.62H310.16V735.83Z" transform="translate(-18.88 -35.58)"/>
    <path id="house_fill" class="cls-3" d="M99.54,735.83V511.22h59.78V387.69H87V107.46h34.75V73.77h114v33.69h91.06V581.62H310.16V735.83Z" transform="translate(-18.88 -35.58)"/>
    <polygon id="outdoor_border" class="cls-4" points="247.55 41.88 247.55 8.19 73.55 8.19 73.55 41.88 38.79 41.88 38.79 382.1 111.08 382.1 111.08 445.64 51.3 445.64 51.3 730.25 291.92 730.25 291.92 700.24 81.3 700.24 81.3 475.64 141.08 475.64 141.08 352.1 68.79 352.1 68.79 71.88 103.55 71.88 103.55 38.19 217.55 38.19 217.55 71.88 308.61 71.88 308.61 71.88 308.61 41.88 247.55 41.88"/>
    <path id="library_border" class="cls-2" d="M87,249.09H240.86v138.6H87Z" transform="translate(-18.88 -35.58)"/>
    <path id="hallway_border" class="cls-2" d="M326.84,369.83h-86V249.09l30.76-29.46V133.92h55.22Z" transform="translate(-18.88 -35.58)"/>
    <path id="kitchen_border" class="cls-2" d="M159.32,540.81V387.69h81.54V369.83h86V581.62H310.16V735.83H99.54V612.29h74.14V540.81Z" transform="translate(-18.88 -35.58)"/>
    <path id="downstairs_bathroom_border" class="cls-2" d="M99.54,511.22h59.78v29.59h14.36v71.48H99.54Z" transform="translate(-18.88 -35.58)"/>
    <path id="living_room_border" class="cls-2" d="M217,249.09H87V107.46h34.75V73.77h114v33.69h35.84V219.63l-30.76,29.46H217" transform="translate(-18.88 -35.58)"/>
    <rect id="front_door_border" class="cls-2" x="252.73" y="71.88" width="55.22" height="26.46"/>
    <rect id="stair_border" class="cls-5" x="259.57" y="203.65" width="48.39" height="130.6"/>
  </g>
  <g id="motion_fill">
    <path id="binary_sensor.living_room_motion_fill" class="cls-6" d="M217,249.09H87V107.46h34.75V73.77h114v33.69h35.84V219.63l-30.76,29.46H217" transform="translate(-18.88 -35.58)"/>
    <path id="binary_sensor.library_motion_fill" class="cls-6" d="M87,249.09H240.86v138.6H87Z" transform="translate(-18.88 -35.58)"/>
    <path id="binary_sensor.hallway_motion_fill" class="cls-6" d="M326.84,369.83h-86V249.09l30.76-29.46V133.92h55.22Z" transform="translate(-18.88 -35.58)"/>
    <path id="binary_sensor.kitchen_motion_fill" class="cls-6" d="M159.32,540.81V387.69h81.54V369.83h86V581.62H310.16V735.83H99.54V612.29h74.14V540.81Z" transform="translate(-18.88 -35.58)"/>
    <path id="binary_sensor.downstairs_bathroom_motion_fill" class="cls-6" d="M99.54,511.22h59.78v29.59h14.36v71.48H99.54Z" transform="translate(-18.88 -35.58)"/>
    <polyline id="binary_sensor.outdoor_back_motion_fill" class="cls-6" points="51.3 730.25 291.92 730.25 291.92 700.24 81.3 700.24 51.3 730.25"/>
  </g>
  <g id="icons">
    <path id="light.shelly_shsw_1_c4ef56" class="cls-7" d="M269.61,745.23a4.51,4.51,0,0,0-.07.53c0,2.17,0,4.35,0,6.52a5.17,5.17,0,0,0,10.33,0c0-2.18,0-4.35,0-6.53a3,3,0,0,0-.07-.49Zm-1.75-2.59a1.49,1.49,0,0,0,1.49,1.69c2,0,4.1,0,6.15,0,1.53,0,3.06,0,4.59,0a1.39,1.39,0,0,0,1.41-1.69Zm13.29,8.18a12,12,0,0,0,0,1.36c0,.16.25.42.4.42.7,0,1.41,0,2.14,0v-1.8Zm-12.94,1.76v-1.75h-2.5v1.75Zm13.37,5-1.67-1.82-1.23,1,1.85,1.85Zm-12-1.85-1.73,1.62,1.09,1.17,1.87-1.73Zm5.95,5v-2.61H273.9v2.61Zm-145.72-15a3.21,3.21,0,0,0-.07.53c0,2.18,0,4.35,0,6.53a5.17,5.17,0,0,0,10.33,0c0-2.17,0-4.35,0-6.52a3.16,3.16,0,0,0-.07-.5ZM128,743.18a1.49,1.49,0,0,0,1.48,1.69c2.06,0,4.11,0,6.16,0,1.53,0,3.06,0,4.58,0a1.39,1.39,0,0,0,1.42-1.68Zm13.29,8.18a9.92,9.92,0,0,0,0,1.35.6.6,0,0,0,.4.43c.7,0,1.41,0,2.14,0v-1.8Zm-12.94,1.76v-1.75h-2.5v1.75Zm13.36,5-1.67-1.81-1.22,1,1.85,1.84Zm-12-1.84L128,757.93l1.08,1.17,1.88-1.73Zm5.95,5v-2.61h-1.62v2.61Zm-9.8-10,2.5,1.75,12.32,6" transform="translate(-18.88 -35.58)"/>
    <path id="light.shelly_shsw_1_b8eff2" class="cls-7" d="M304.49,97.17a4.51,4.51,0,0,0,.07-.53c0-2.18,0-4.35,0-6.53a5.17,5.17,0,0,0-10.33,0c0,2.17,0,4.35,0,6.52a5,5,0,0,0,.07.5Zm1.75,2.59a1.49,1.49,0,0,0-1.49-1.69c-2.05,0-4.1,0-6.16,0-1.53,0-3,0-4.58,0a1.38,1.38,0,0,0-1.41,1.69Zm-13.3-8.18a10,10,0,0,0,0-1.36.63.63,0,0,0-.39-.43c-.71,0-1.42,0-2.14,0v1.81Zm12.95-1.77v1.76h2.5V89.81Zm-13.37-5,1.67,1.82,1.23-1-1.85-1.85Zm12,1.85L306.27,85l-1.09-1.18-1.88,1.73Zm-6-5v2.6h1.62v-2.6Z" transform="translate(-18.88 -35.58)"/>
    <path id="light.shelly_shdm_1_f3a24c" class="cls-7" d="M178.71,156.76V149.1h3v7.66c1.33,0,2.56,0,3.79,0,.37,0,.93.17,1.07.43,2,3.89,4,7.81,6,11.86H168a11.17,11.17,0,0,1,.43-1.06c1.71-3.42,3.46-6.82,5.14-10.27a1.51,1.51,0,0,1,1.68-1C176.33,156.82,177.45,156.76,178.71,156.76Zm1.63,17a2.88,2.88,0,0,0,2.83-3h-5.92C177.51,172.71,178.67,173.82,180.34,173.76Z" transform="translate(-18.88 -35.58)"/>
    <path id="light.shelly_shdm_1_f3ebd2" class="cls-7" d="M157.21,310.69V303h3v7.66c1.33,0,2.56,0,3.79,0,.37,0,.93.16,1.07.43,2,3.89,4,7.81,6,11.86h-24.6c.15-.37.26-.73.43-1.06,1.72-3.42,3.46-6.83,5.14-10.27a1.51,1.51,0,0,1,1.68-1C154.83,310.75,156,310.69,157.21,310.69Zm1.63,17a2.87,2.87,0,0,0,2.83-3h-5.92C156,326.64,157.17,327.75,158.84,327.68Z" transform="translate(-18.88 -35.58)"/>
    <path id="light.shelly_shsw_1_c487ec" class="cls-7" d="M299,208.24v-7.66h3v7.66c1.33,0,2.56,0,3.79,0,.37,0,.93.17,1.07.43,2,3.9,3.95,7.82,6,11.86H288.23c.15-.36.27-.72.44-1.05,1.71-3.42,3.46-6.83,5.14-10.27a1.51,1.51,0,0,1,1.68-1C296.59,208.3,297.71,208.24,299,208.24Zm1.63,17a2.87,2.87,0,0,0,2.83-3h-5.92C297.77,224.19,298.93,225.3,300.6,225.24Z" transform="translate(-18.88 -35.58)"/>
    <path id="light.shelly_shdm_1_f3e93b" class="cls-7" d="M239.29,455.62V448h3v7.66c1.33,0,2.57,0,3.8,0,.37,0,.93.16,1.06.43,2,3.89,4,7.81,6,11.85H228.55c.15-.36.27-.72.44-1.05,1.71-3.42,3.46-6.83,5.14-10.27a1.48,1.48,0,0,1,1.67-1C236.91,455.68,238,455.62,239.29,455.62Zm1.62,17a2.87,2.87,0,0,0,2.84-3h-5.92C238.09,471.56,239.25,472.68,240.91,472.61Z" transform="translate(-18.88 -35.58)"/>
    <path id="light.shelly_shdm_1_f3e936" class="cls-7" d="M207.18,650.23v-7.66h3v7.66c1.34,0,2.57,0,3.8,0,.37,0,.93.16,1.06.43,2,3.89,4,7.81,6,11.86H196.44c.15-.37.27-.73.44-1.06,1.71-3.42,3.46-6.83,5.14-10.27a1.5,1.5,0,0,1,1.67-1C204.8,650.29,205.92,650.23,207.18,650.23Zm1.63,17a2.87,2.87,0,0,0,2.83-3h-5.92C206,666.18,207.14,667.29,208.81,667.22Z" transform="translate(-18.88 -35.58)"/>
    <path id="light.shelly_shsw_1_ba680b" class="cls-7" d="M134.12,559v-7.66h3V559c1.33,0,2.56,0,3.79,0,.37,0,.93.16,1.07.43,2,3.89,4,7.81,6,11.86H123.39c.15-.37.27-.73.43-1.06,1.72-3.42,3.47-6.83,5.14-10.27a1.51,1.51,0,0,1,1.68-1C131.74,559.08,132.86,559,134.12,559Zm1.63,17a2.86,2.86,0,0,0,2.83-3h-5.91C132.92,575,134.08,576.08,135.75,576Z" transform="translate(-18.88 -35.58)"/>
    <path id="light.shelly_shsw_1_c4f29c" class="cls-7" d="M297.89,114.66V107h3v7.66c1.33,0,2.57,0,3.8,0,.37,0,.93.17,1.06.43,2,3.89,4,7.81,6,11.86H287.15c.15-.37.27-.72.44-1.06,1.71-3.42,3.46-6.82,5.14-10.27a1.5,1.5,0,0,1,1.67-1C295.51,114.72,296.63,114.66,297.89,114.66Zm1.62,17a2.88,2.88,0,0,0,2.84-3h-5.92C296.69,130.61,297.85,131.72,299.51,131.65Z" transform="translate(-18.88 -35.58)"/>
    <path id="light.kitchen_cupboard_light" class="cls-7" d="M311.4,510.69l3.64-.28.11-2.22h-9.83l-.11,2.19,3.67.3v4.69l-8.3,1.69,4.89,11.75,15.14-8.95-3.05-7.42-6.16,2.41ZM297.75,524l-3.22,1.37,1,2.15C296.91,526.57,299.56,527,297.75,524Zm-2.19-9.08-1.09,2,2.72,1.15.93-2.13Zm9,16.81-1.16,2.49c-2.95-.65-1.5-2-.94-3.46m8.91-53.33,3.64-.27.11-2.23h-9.83l-.11,2.2,3.67.3v4.68l-8.3,1.69,4.89,11.75,15.14-9-3.05-7.42-6.16,2.41Zm-13.65,13.3-3.22,1.37,1,2.15C296.91,493.3,299.56,493.74,297.75,490.72Zm-2.19-9.07-1.09,2,2.72,1.15.93-2.13Zm9,16.8-1.16,2.49c-2.95-.64-1.5-2-.94-3.45" transform="translate(-18.88 -35.58)"/>
    <line id="light.wled_light" class="cls-8" x1="301.3" y1="103.99" x2="301.3" y2="334.25"/>
  </g>
  <g id="openings">
    <path id="binary_sensor.living_room_window_2" class="cls-8" d="M125.84,73.77h54.44" transform="translate(-18.88 -35.58)"/>
    <path id="binary_sensor.living_room_window_3" class="cls-8" d="M178.73,73.77h53.42" transform="translate(-18.88 -35.58)"/>
    <path id="binary_sensor.living_room_window_1" class="cls-8" d="M121.65,105.64V77.43" transform="translate(-18.88 -35.58)"/>
    <path id="binary_sensor.living_room_window_4" class="cls-8" d="M236,105.64V77.43" transform="translate(-18.88 -35.58)"/>
    <path id="binary_sensor.library_door_1" class="cls-8" d="M144.12,387.69h-42" transform="translate(-18.88 -35.58)"/>
    <path id="binary_sensor.kitchen_window_1" class="cls-8" d="M159.34,402.42v42" transform="translate(-18.88 -35.58)"/>
    <path id="binary_sensor.kitchen_window_2" class="cls-8" d="M159.34,460.28v42" transform="translate(-18.88 -35.58)"/>
    <path id="binary_sensor.downstairs_bathroom_window_1" class="cls-8" d="M99.54,545.75v35.87" transform="translate(-18.88 -35.58)"/>
    <line id="binary_sensor.kitchen_door_1" class="cls-8" x1="124.55" y1="700.24" x2="248.98" y2="700.24"/>
    <path id="binary_sensor.hallway_door_1" class="cls-8" d="M278.46,133.92h42" transform="translate(-18.88 -35.58)"/>
  </g>
  <g id="text">
    <g>
      <path class="cls-9" d="M311.94,440.68v0l-5.5-3.5v-3l5.89,3.73,7.85-4.15v3.11l-5.64,2.83,1.56,1h4.08v2.77H306.44v-2.77Z" transform="translate(-18.88 -35.58)"/>
      <path class="cls-9" d="M306.44,433v-2.78h13.74V433Z" transform="translate(-18.88 -35.58)"/>
      <path class="cls-9" d="M308.71,420.11v3h11.47v2.77H308.71v3h-2.27v-8.78Z" transform="translate(-18.88 -35.58)"/>
      <path class="cls-9" d="M308.89,413.41a1.34,1.34,0,0,0-.68,1.3,1.26,1.26,0,0,0,.28.85,1.86,1.86,0,0,0,.9.53,7.64,7.64,0,0,0,1.64.27c.67.05,1.5.08,2.47.08a24,24,0,0,0,2.52-.11,5.91,5.91,0,0,0,1.49-.32,1.43,1.43,0,0,0,.72-.56,1.66,1.66,0,0,0,.18-.78,1.68,1.68,0,0,0-.13-.68,1.09,1.09,0,0,0-.5-.55,3.1,3.1,0,0,0-1-.37,9.77,9.77,0,0,0-1.8-.13v-2.78a11.85,11.85,0,0,1,2.11.18,4.74,4.74,0,0,1,1.75.64,3.25,3.25,0,0,1,1.18,1.33,5,5,0,0,1,.42,2.22,5.31,5.31,0,0,1-.5,2.49,3.38,3.38,0,0,1-1.44,1.41,6.39,6.39,0,0,1-2.25.64,29.8,29.8,0,0,1-5.77,0,6.39,6.39,0,0,1-2.26-.64A3.57,3.57,0,0,1,306.7,417a5.06,5.06,0,0,1-.53-2.49,4.78,4.78,0,0,1,.48-2.33,3.21,3.21,0,0,1,1.22-1.28,4.15,4.15,0,0,1,1.6-.53,13.34,13.34,0,0,1,1.61-.11v2.77A5,5,0,0,0,308.89,413.41Z" transform="translate(-18.88 -35.58)"/>
      <path class="cls-9" d="M306.44,405.82h5.25v-3.24h-5.25v-2.77h13.74v2.77h-6.1v3.24h6.1v2.77H306.44Z" transform="translate(-18.88 -35.58)"/>
      <path class="cls-9" d="M308.71,390.21v4.91h3.23V390.5h2.27v4.62h3.7V390h2.27v7.87H306.44v-7.68Z" transform="translate(-18.88 -35.58)"/>
      <path class="cls-9" d="M315.85,382.09v0h-9.41v-2.54h13.74v3.16l-9.62,3.38v0h9.62v2.54H306.44v-3.19Z" transform="translate(-18.88 -35.58)"/>
    </g>
    <g>
      <path class="cls-9" d="M220.28,321.66v-2.77h11.47V314H234v7.68Z" transform="translate(-18.88 -35.58)"/>
      <path class="cls-9" d="M220.28,312.61v-2.77H234v2.77Z" transform="translate(-18.88 -35.58)"/>
      <path class="cls-9" d="M220.28,303.15a7,7,0,0,1,.17-1.57,3.23,3.23,0,0,1,.58-1.24,2.62,2.62,0,0,1,1.08-.81,4.24,4.24,0,0,1,1.65-.29,3.43,3.43,0,0,1,1.92.52,2.62,2.62,0,0,1,1.08,1.56h0a2.72,2.72,0,0,1,1-1.83,3.4,3.4,0,0,1,2.22-.67,5.49,5.49,0,0,1,1.53.21,3.06,3.06,0,0,1,1.28.72,3.56,3.56,0,0,1,.88,1.33,5.42,5.42,0,0,1,.33,2v4.67H220.28Zm5.64,1.07a2.69,2.69,0,0,0-.42-1.68,1.66,1.66,0,0,0-1.39-.53,1.73,1.73,0,0,0-1.39.48,2.34,2.34,0,0,0-.4,1.52v1h3.6Zm6.06-.28a2.68,2.68,0,0,0-.45-1.62,1.87,1.87,0,0,0-1.63-.62,2.55,2.55,0,0,0-1,.17,1.66,1.66,0,0,0-.64.44,1.58,1.58,0,0,0-.33.66,3.25,3.25,0,0,0-.1.85V305H232Z" transform="translate(-18.88 -35.58)"/>
      <path class="cls-9" d="M220.28,292a3.88,3.88,0,0,1,.87-2.7,3.46,3.46,0,0,1,2.67-1,4.16,4.16,0,0,1,2.26.56,2.61,2.61,0,0,1,1.13,1.73h0a2.54,2.54,0,0,1,.68-1.52,2.85,2.85,0,0,1,1.67-.6l.84-.05,1,0c.73,0,1.29-.07,1.67-.12a1,1,0,0,0,.79-.5H234v3a1.46,1.46,0,0,1-.67.27,6.43,6.43,0,0,1-.78.08l-2.63.08a2.16,2.16,0,0,0-1.27.4,1.49,1.49,0,0,0-.46,1.23v1.48H234v2.78H220.28Zm6,1.19a2.29,2.29,0,0,0-.47-1.54,2,2,0,0,0-1.59-.54,1.69,1.69,0,0,0-1.9,1.93v1.3h4Z" transform="translate(-18.88 -35.58)"/>
      <path class="cls-9" d="M220.28,280.29,234,276.65v2.89l-2.91.63v3.66l2.91.63v2.89l-13.74-3.64Zm8.56.36L222.66,282v0l6.18,1.33Z" transform="translate(-18.88 -35.58)"/>
      <path class="cls-9" d="M220.28,270.57a3.85,3.85,0,0,1,.87-2.69,3.43,3.43,0,0,1,2.67-1,4.16,4.16,0,0,1,2.26.56,2.61,2.61,0,0,1,1.13,1.73h0a2.54,2.54,0,0,1,.68-1.52,2.78,2.78,0,0,1,1.67-.59q.39,0,.84-.06l1,0a16.59,16.59,0,0,0,1.67-.12,1,1,0,0,0,.79-.5H234v3a1.58,1.58,0,0,1-.67.27c-.25,0-.51.06-.78.07l-2.63.08a2.23,2.23,0,0,0-1.27.4,1.5,1.5,0,0,0-.46,1.24v1.48H234v2.77H220.28Zm6,1.19a2.3,2.3,0,0,0-.47-1.54,2,2,0,0,0-1.59-.54,1.69,1.69,0,0,0-1.9,1.93v1.31h4Z" transform="translate(-18.88 -35.58)"/>
      <path class="cls-9" d="M225.59,261.31v0l-5.31-1.93v-3l8.33,3.56H234v2.77h-5.41l-8.33,3.56v-3.12Z" transform="translate(-18.88 -35.58)"/>
    </g>
    <g>
      <path class="cls-9" d="M91.54,160.57v-2.73h11.32V153h2.25v7.58Z" transform="translate(-18.88 -35.58)"/>
      <path class="cls-9" d="M91.54,151.64v-2.73h13.57v2.73Z" transform="translate(-18.88 -35.58)"/>
      <path class="cls-9" d="M101.57,142.92v-.06l-10-2V138l13.57,3.11v3.52l-13.57,3.12v-2.93Z" transform="translate(-18.88 -35.58)"/>
      <path class="cls-9" d="M91.54,136.88v-2.74h13.57v2.74Z" transform="translate(-18.88 -35.58)"/>
      <path class="cls-9" d="M100.83,125.65v0H91.54V123.1h13.57v3.12l-9.5,3.34v0h9.5v2.51H91.54V129Z" transform="translate(-18.88 -35.58)"/>
      <path class="cls-9" d="M94.79,115.27a2.45,2.45,0,0,0-.73.27,1.73,1.73,0,0,0-.55.49,1.11,1.11,0,0,0-.22.71,1.48,1.48,0,0,0,1.1,1.42,10.58,10.58,0,0,0,3.65.44c.81,0,1.54,0,2.2-.07a9.44,9.44,0,0,0,1.68-.28,2.36,2.36,0,0,0,1.07-.57,1.34,1.34,0,0,0,.37-1,1.31,1.31,0,0,0-.14-.54,1.68,1.68,0,0,0-.39-.55,2.2,2.2,0,0,0-.68-.43,2.53,2.53,0,0,0-1-.17H99.8v1.8h-2v-4.42h7.32v2h-1.26v0a2.85,2.85,0,0,1,1.13,1.19,3.81,3.81,0,0,1,.33,1.66,4.17,4.17,0,0,1-.43,2,3,3,0,0,1-1.35,1.24,7.35,7.35,0,0,1-2.25.6,28.4,28.4,0,0,1-3.11.15,18.78,18.78,0,0,1-3-.22,6.23,6.23,0,0,1-2.16-.75,3.52,3.52,0,0,1-1.3-1.41,4.86,4.86,0,0,1-.44-2.18,4.09,4.09,0,0,1,1.12-3.23,4.62,4.62,0,0,1,3.18-1v2.62A3.46,3.46,0,0,0,94.79,115.27Z" transform="translate(-18.88 -35.58)"/>
      <path class="cls-9" d="M106.54,151.34a3.83,3.83,0,0,1,.86-2.66,3.38,3.38,0,0,1,2.64-1,4.07,4.07,0,0,1,2.23.55,2.53,2.53,0,0,1,1.11,1.71h0a2.44,2.44,0,0,1,.66-1.5,2.8,2.8,0,0,1,1.66-.59c.25,0,.52-.05.82-.06l1,0c.72,0,1.27-.06,1.65-.11a1.08,1.08,0,0,0,.78-.49h.12v3a1.49,1.49,0,0,1-.66.27c-.25,0-.5.06-.77.07l-2.6.08a2.15,2.15,0,0,0-1.26.4,1.46,1.46,0,0,0-.45,1.21v1.47h5.74v2.73H106.54Zm5.93,1.18A2.23,2.23,0,0,0,112,151a2,2,0,0,0-1.57-.54,1.67,1.67,0,0,0-1.88,1.9v1.3h3.92Z" transform="translate(-18.88 -35.58)"/>
      <path class="cls-9" d="M110.48,146a6.22,6.22,0,0,1-2.23-.63A3.47,3.47,0,0,1,106.8,144a6,6,0,0,1,0-4.91,3.47,3.47,0,0,1,1.45-1.39,6.43,6.43,0,0,1,2.23-.63,29,29,0,0,1,5.69,0,6.5,6.5,0,0,1,2.23.63,3.34,3.34,0,0,1,1.42,1.39,6.4,6.4,0,0,1,0,4.91,3.34,3.34,0,0,1-1.42,1.39,6.28,6.28,0,0,1-2.23.63,29,29,0,0,1-5.69,0Zm5.17-2.66a6,6,0,0,0,1.56-.27,1.66,1.66,0,0,0,.87-.57,1.84,1.84,0,0,0,0-1.95,1.66,1.66,0,0,0-.87-.57,6.4,6.4,0,0,0-1.56-.27c-.64,0-1.42-.07-2.33-.07s-1.68,0-2.31.07a6.4,6.4,0,0,0-1.56.27,1.72,1.72,0,0,0-.89.57,1.9,1.9,0,0,0,0,1.95,1.72,1.72,0,0,0,.89.57,6,6,0,0,0,1.56.27c.63,0,1.4.07,2.31.07S115,143.35,115.65,143.31Z" transform="translate(-18.88 -35.58)"/>
      <path class="cls-9" d="M110.48,135.41a6.43,6.43,0,0,1-2.23-.63,3.43,3.43,0,0,1-1.45-1.4,5.93,5.93,0,0,1,0-4.9,3.49,3.49,0,0,1,1.45-1.4,6.22,6.22,0,0,1,2.23-.62,27.06,27.06,0,0,1,5.69,0,6.28,6.28,0,0,1,2.23.62,3.36,3.36,0,0,1,1.42,1.4,6.37,6.37,0,0,1,0,4.9,3.31,3.31,0,0,1-1.42,1.4,6.5,6.5,0,0,1-2.23.63,29,29,0,0,1-5.69,0Zm5.17-2.66a6.92,6.92,0,0,0,1.56-.27,1.66,1.66,0,0,0,.87-.57,1.56,1.56,0,0,0,.28-1,1.58,1.58,0,0,0-.28-1,1.79,1.79,0,0,0-.87-.57,6.45,6.45,0,0,0-1.56-.26c-.64-.05-1.42-.07-2.33-.07s-1.68,0-2.31.07a6.45,6.45,0,0,0-1.56.26,1.86,1.86,0,0,0-.89.57,1.65,1.65,0,0,0-.27,1,1.63,1.63,0,0,0,.27,1,1.72,1.72,0,0,0,.89.57,6.92,6.92,0,0,0,1.56.27q.94.06,2.31.06C114.23,132.81,115,132.79,115.65,132.75Z" transform="translate(-18.88 -35.58)"/>
      <path class="cls-9" d="M106.54,120.58l9.58-1.94v0l-9.58-2v-4h13.57v2.5H109.28v0l10.83,2.42v2.12l-10.83,2.42v0h10.83v2.51H106.54Z" transform="translate(-18.88 -35.58)"/>
    </g>
    <g>
      <path class="cls-9" d="M276.14,174.61h5.19v-3.19h-5.19v-2.74h13.57v2.74h-6v3.19h6v2.74H276.14Z" transform="translate(-18.88 -35.58)"/>
      <path class="cls-9" d="M276.14,160.76l13.57-3.59V160l-2.87.62v3.61l2.87.63v2.85l-13.57-3.59Zm8.46.36-6.1,1.31v0l6.1,1.31Z" transform="translate(-18.88 -35.58)"/>
      <path class="cls-9" d="M276.14,156.22v-2.74h11.33v-4.84h2.24v7.58Z" transform="translate(-18.88 -35.58)"/>
      <path class="cls-9" d="M276.14,147.42v-2.73h11.33v-4.85h2.24v7.58Z" transform="translate(-18.88 -35.58)"/>
    </g>
  </g>
</svg>
