<svg xmlns="http://www.w3.org/2000/svg" viewBox="0 0 341.95 715">
  <defs>
    <style>
      .cls-1, .cls-2, .cls-5, .cls-6, .cls-7, .cls-8 {
        fill: none;
        stroke-miterlimit: 10;
      }

      .cls-1 {
        stroke: #22232d;
      }

      .cls-2, .cls-5 {
        stroke: #f7f8fa;
      }

      .cls-2 {
        stroke-width: 0.25px;
      }

      .cls-3 {
        fill: #f7f8fa;
        opacity: 0.14;
      }

      .cls-4, .cls-9 {
        fill: #00e4d7;
      }

      .cls-4 {
        opacity: 0.3;
      }

      .cls-6, .cls-7 {
        stroke: #00e4d7;
      }

      .cls-7 {
        stroke-width: 2px;
      }

      .cls-8 {
        stroke: #be1e2d;
        stroke-width: 4px;
      }

      .cls-10 {
        fill: #fbce42;
      }
    </style>
  </defs>
  <title>ground-floorplan-v1</title>
  <g id="Background">
    <rect class="cls-1" width="341.95" height="715"/>
  </g>
  <g id="house-outline">
    <path id="house-border" class="cls-2" d="M73.88,673.88V449.27h59.78V325.73H61.37V45.51H96.13V11.82h114V45.51h91.06V590.45H284.51v83.43Z"/>
    <path id="house-border-2" data-name="house-border" class="cls-3" d="M73.88,673.88V449.27h59.78V325.73H61.37V45.51H96.13V11.82h114V45.51h91.06V590.45H284.51v83.43Z"/>
    <path id="library-border" class="cls-2" d="M61.37,187.14H215.2V325.73H61.37Z"/>
    <path id="hallway-border" class="cls-2" d="M301.19,307.88h-86V187.14L246,157.67V45.51h55.23Z"/>
    <path id="kitchen-border" class="cls-2" d="M133.66,478.85V325.73H215.2V307.88h86V590.45H284.51v83.43H73.88V550.33H148V478.85Z"/>
    <path id="downstairs-bathroom-border" class="cls-2" d="M73.88,449.27h59.78v29.58H148v71.48H73.88Z"/>
    <path id="living-room-border" class="cls-2" d="M191.3,187.14H61.37V45.51H96.13V11.82h114V45.51H246V157.67L215.2,187.14H191.3"/>
  </g>
  <g id="light-fill">
    <path id="library-border-2" data-name="library-border" class="cls-4" d="M61.37,187.14H215.2V325.73H61.37Z"/>
  </g>
  <g id="motion">
    <g>
      <path id="hallway-border-2" data-name="hallway-border" class="cls-5" d="M219,307.88H215.2V230.22M295.78,72h5.41V307.88H249M215.2,201.49V187.14L246,157.67V72h49.82"/>
      <path id="kitchen-border-2" data-name="kitchen-border" class="cls-5" d="M249,307.88h52.15V590.45H284.51v83.43H73.88V550.33H148V478.85H133.66V325.73H215.2V307.88H219"/>
      <path id="downstairs-bathroom-border-2" data-name="downstairs-bathroom-border" class="cls-5" d="M73.88,449.27h59.78v29.58H148v71.48H73.88Z"/>
      <path id="library-border-3" data-name="library-border" class="cls-6" d="M215.2,230.22v95.51H61.37V187.14h25m104.92,0h23.9v14.35"/>
      <path id="living-room-border-2" data-name="living-room-border" class="cls-7" d="M86.38,187.14h-25V45.51H96.13V11.82h114V45.51H246V157.67L215.2,187.14H191.3"/>
    </g>
    <g>
      <path id="hallway-border-3" data-name="hallway-border" class="cls-7" d="M219,307.88H215.2V230.22M295.78,72h5.41V307.88H249M215.2,201.49V187.14L246,157.67V72h49.82"/>
      <path id="kitchen-border-3" data-name="kitchen-border" class="cls-7" d="M249,307.88h52.15V590.45H284.51v83.43H73.88V550.33H148V478.85H133.66V325.73H215.2V307.88H219"/>
      <path id="downstairs-bathroom-border-3" data-name="downstairs-bathroom-border" class="cls-7" d="M73.88,449.27h59.78v29.58H148v71.48H73.88Z"/>
      <path id="library-border-4" data-name="library-border" class="cls-7" d="M215.2,230.22v95.51H61.37V187.14h25m104.92,0h23.9v14.35"/>
      <path id="living-room-border-3" data-name="living-room-border" class="cls-7" d="M86.38,187.14h-25V45.51H96.13V11.82h114V45.51H246V157.67L215.2,187.14H191.3"/>
    </g>
  </g>
  <g id="openings">
    <line class="cls-8" x1="98.22" y1="11.82" x2="154.63" y2="11.82"/>
  </g>
  <g id="Layer_7" data-name="Layer 7">
    <g id="lgEU97">
      <g>
        <path class="cls-9" d="M59.27,25.91l5,8.66c1.24-1.49,2.39-2.8,3.44-4.19a1.37,1.37,0,0,0,0-1.22C67.17,28.09,66.46,27.11,66,26a1.54,1.54,0,0,0-2-1C62.46,25.37,61,25.61,59.27,25.91Z"/>
        <path class="cls-9" d="M88.5,34.76h-7c-2.4,0-3.44-1-3.45-3.4,0-1.63,0-1.63-1.8-3.56-.82.45-1.65.94-2.5,1.4a2.76,2.76,0,0,1-4-1c-.7-1.07-1.31-2.19-1.95-3.3-1.2-2.09-.85-3.45,1.26-4.7s4.12-2.39,6.19-3.59c1.88-1.09,3.75-2.2,5.65-3.26s3.25-.73,4.41,1.17c.66,1.09,1.31,2.19,1.92,3.32a2.71,2.71,0,0,1-1,4.06c-1.14.75-2.34,1.41-3.55,2.14a6.16,6.16,0,0,1,.26,2,4.06,4.06,0,0,1-1,2.37c-1.31,1-1.1,2.14-1,3.55H88.5Z"/>
        <path class="cls-9" d="M59.27,25.91c1.68-.3,3.19-.54,4.69-.84a1.54,1.54,0,0,1,2,1c.48,1.08,1.19,2.06,1.71,3.13a1.37,1.37,0,0,1,0,1.22c-1,1.39-2.2,2.7-3.44,4.19Z"/>
      </g>
    </g>
    <g id="lgEU97-2" data-name="lgEU97">
      <g>
        <path class="cls-9" d="M31.07,660.19l5,8.66c1.24-1.49,2.39-2.8,3.45-4.19a1.44,1.44,0,0,0,0-1.22c-.52-1.07-1.24-2.05-1.72-3.13a1.54,1.54,0,0,0-2-1C34.26,659.65,32.75,659.89,31.07,660.19Z"/>
        <path class="cls-9" d="M60.3,669h-7c-2.4,0-3.45-1-3.46-3.4,0-1.63,0-1.63-1.8-3.56-.81.45-1.65.94-2.5,1.4a2.76,2.76,0,0,1-4-1c-.7-1.07-1.31-2.19-1.95-3.3-1.2-2.09-.85-3.45,1.26-4.7S45,652.11,47,650.91c1.89-1.09,3.76-2.2,5.65-3.26s3.26-.73,4.41,1.17c.67,1.09,1.31,2.19,1.93,3.32a2.71,2.71,0,0,1-1,4.06c-1.13.75-2.33,1.41-3.55,2.14a6.18,6.18,0,0,1,.26,2,4.06,4.06,0,0,1-1,2.36c-1.31,1-1.1,2.15-1,3.55H60.3Z"/>
        <path class="cls-9" d="M31.07,660.19c1.68-.3,3.19-.54,4.69-.84a1.54,1.54,0,0,1,2,1c.48,1.08,1.2,2.06,1.72,3.13a1.44,1.44,0,0,1,0,1.22c-1.06,1.39-2.21,2.7-3.45,4.19Z"/>
      </g>
    </g>
    <g id="lgEU97-3" data-name="lgEU97">
      <g>
        <path class="cls-9" d="M263.31,27.1l5,8.66c1.24-1.48,2.39-2.8,3.45-4.19a1.44,1.44,0,0,0,0-1.22c-.52-1.07-1.24-2-1.72-3.13a1.55,1.55,0,0,0-2-1C266.5,26.56,265,26.8,263.31,27.1Z"/>
        <path class="cls-9" d="M292.54,36h-7c-2.41,0-3.45-1.05-3.46-3.41,0-1.63,0-1.63-1.8-3.56-.81.46-1.65.95-2.5,1.4a2.76,2.76,0,0,1-4-1c-.7-1.07-1.31-2.2-1.95-3.31-1.2-2.09-.85-3.44,1.26-4.69s4.13-2.4,6.19-3.59c1.89-1.09,3.76-2.2,5.65-3.27s3.26-.72,4.41,1.17c.66,1.1,1.31,2.2,1.92,3.32a2.71,2.71,0,0,1-1,4.06c-1.14.75-2.33,1.42-3.55,2.14a6.22,6.22,0,0,1,.26,2,4,4,0,0,1-1,2.36c-1.31,1-1.1,2.15-1,3.55h7.64Z"/>
        <path class="cls-9" d="M263.31,27.1c1.68-.3,3.19-.54,4.69-.84a1.55,1.55,0,0,1,2,1c.48,1.09,1.2,2.06,1.72,3.13a1.44,1.44,0,0,1,0,1.22c-1.06,1.39-2.21,2.71-3.45,4.19Z"/>
      </g>
    </g>
    <g id="ji3E1h">
      <g>
        <path class="cls-10" d="M136.85,264.74h1.52c2.71,0,2.84.16,2.8-2.8a1.5,1.5,0,0,1,.43-1.05,7.45,7.45,0,0,0,2.14-8.81,7.29,7.29,0,0,0-7.81-4.37A7.39,7.39,0,0,0,131.32,260a4,4,0,0,1,1.3,3.41c-.07,1,.37,1.31,1.37,1.32S135.9,264.74,136.85,264.74Zm-3.1,2.22c-.23,1.67.08,2.06,1.65,2.06h2.85c1.67,0,2-.33,1.76-2.06Z"/>
        <path class="cls-10" d="M136.85,264.74c-.95,0-1.91,0-2.86,0s-1.44-.36-1.37-1.32a4,4,0,0,0-1.3-3.41,7.39,7.39,0,0,1,4.61-12.29,7.29,7.29,0,0,1,7.81,4.37,7.45,7.45,0,0,1-2.14,8.81,1.5,1.5,0,0,0-.43,1.05c0,3-.09,2.83-2.8,2.8Z"/>
        <path class="cls-10" d="M133.75,267H140c.21,1.73-.09,2.06-1.76,2.06H135.4C133.83,269,133.52,268.63,133.75,267Z"/>
      </g>
    </g>
    <g id="ji3E1h-2" data-name="ji3E1h">
      <g>
        <path class="cls-9" d="M153.67,110.25h1.52c2.71,0,2.84.17,2.8-2.8a1.52,1.52,0,0,1,.43-1,7.44,7.44,0,0,0,2.14-8.8,7.28,7.28,0,0,0-7.81-4.38,7.39,7.39,0,0,0-4.61,12.3,4,4,0,0,1,1.3,3.4c-.07,1,.37,1.31,1.37,1.33S152.72,110.25,153.67,110.25Zm-3.1,2.22c-.23,1.68.08,2.06,1.65,2.07h2.85c1.67,0,2-.34,1.76-2.07Z"/>
        <path class="cls-9" d="M153.67,110.25c-.95,0-1.91,0-2.86,0s-1.44-.37-1.37-1.33a4,4,0,0,0-1.3-3.4,7.39,7.39,0,0,1,4.61-12.3,7.28,7.28,0,0,1,7.81,4.38,7.44,7.44,0,0,1-2.14,8.8,1.52,1.52,0,0,0-.43,1c0,3-.09,2.83-2.8,2.8Z"/>
        <path class="cls-9" d="M150.57,112.47h6.26c.21,1.73-.09,2.06-1.76,2.07h-2.85C150.65,114.53,150.34,114.15,150.57,112.47Z"/>
      </g>
    </g>
    <g id="ji3E1h-3" data-name="ji3E1h">
      <g>
        <path class="cls-9" d="M274.83,156.89h1.52c2.71,0,2.84.17,2.8-2.79a1.52,1.52,0,0,1,.43-1.06,7.43,7.43,0,0,0,2.14-8.8,7.27,7.27,0,0,0-7.81-4.37,7.39,7.39,0,0,0-4.61,12.29,4,4,0,0,1,1.3,3.4c-.07,1,.37,1.32,1.37,1.33S273.88,156.89,274.83,156.89Zm-3.1,2.23c-.23,1.67.08,2.06,1.65,2.06h2.85c1.68,0,2-.34,1.76-2.06Z"/>
        <path class="cls-9" d="M274.83,156.89c-.95,0-1.91,0-2.86,0s-1.44-.36-1.37-1.33a4,4,0,0,0-1.3-3.4,7.39,7.39,0,0,1,4.61-12.29,7.27,7.27,0,0,1,7.81,4.37,7.43,7.43,0,0,1-2.14,8.8,1.52,1.52,0,0,0-.43,1.06c0,3-.09,2.82-2.8,2.79Z"/>
        <path class="cls-9" d="M271.73,159.12H278c.21,1.72-.08,2.06-1.76,2.06h-2.85C271.81,161.18,271.5,160.79,271.73,159.12Z"/>
      </g>
    </g>
    <g id="ji3E1h-4" data-name="ji3E1h">
      <g>
        <path class="cls-9" d="M222.71,405.2h1.52c2.71,0,2.84.16,2.8-2.8a1.54,1.54,0,0,1,.43-1.06,7.43,7.43,0,0,0,2.14-8.8,7.28,7.28,0,0,0-7.81-4.37,7.39,7.39,0,0,0-4.61,12.29,4,4,0,0,1,1.3,3.41c-.07,1,.37,1.31,1.37,1.32S221.76,405.2,222.71,405.2Zm-3.1,2.22c-.23,1.67.08,2.06,1.65,2.06h2.85c1.68,0,2-.34,1.76-2.06Z"/>
        <path class="cls-9" d="M222.71,405.2c-1,0-1.91,0-2.86,0s-1.44-.36-1.37-1.32a4,4,0,0,0-1.3-3.41,7.39,7.39,0,0,1,4.61-12.29,7.28,7.28,0,0,1,7.81,4.37,7.43,7.43,0,0,1-2.14,8.8,1.54,1.54,0,0,0-.43,1.06c0,3-.09,2.83-2.8,2.8Z"/>
        <path class="cls-9" d="M219.61,407.42h6.26c.21,1.72-.08,2.06-1.76,2.06h-2.85C219.69,409.48,219.38,409.09,219.61,407.42Z"/>
      </g>
    </g>
    <g id="ji3E1h-5" data-name="ji3E1h">
      <g>
        <path class="cls-9" d="M176.77,618.75h1.52c2.71,0,2.84.16,2.81-2.8a1.46,1.46,0,0,1,.43-1.06,7.44,7.44,0,0,0,2.13-8.8,7.27,7.27,0,0,0-7.81-4.37A7.39,7.39,0,0,0,171.24,614a4,4,0,0,1,1.31,3.41c-.08,1,.37,1.31,1.36,1.32S175.82,618.75,176.77,618.75ZM173.68,621c-.24,1.67.08,2.06,1.64,2.06h2.85c1.68,0,2-.34,1.77-2.06Z"/>
        <path class="cls-9" d="M176.77,618.75c-1,0-1.9,0-2.86,0s-1.44-.36-1.36-1.32a4,4,0,0,0-1.31-3.41,7.39,7.39,0,0,1,4.61-12.29,7.27,7.27,0,0,1,7.81,4.37,7.44,7.44,0,0,1-2.13,8.8,1.46,1.46,0,0,0-.43,1.06c0,3-.1,2.82-2.81,2.8Z"/>
        <path class="cls-9" d="M173.68,621h6.26c.2,1.72-.09,2.06-1.77,2.06h-2.85C173.76,623,173.44,622.64,173.68,621Z"/>
      </g>
    </g>
    <g id="ji3E1h-6" data-name="ji3E1h">
      <g>
        <path class="cls-9" d="M111,510.38h1.52c2.7,0,2.84.17,2.8-2.8a1.52,1.52,0,0,1,.43-1.05,7.45,7.45,0,0,0,2.14-8.8,7.28,7.28,0,0,0-7.81-4.38,7.4,7.4,0,0,0-4.62,12.3,4,4,0,0,1,1.31,3.4c-.07,1,.37,1.31,1.37,1.33Zm-3.1,2.22c-.24,1.68.08,2.06,1.65,2.07h2.85c1.67,0,2-.34,1.76-2.07Z"/>
        <path class="cls-9" d="M111,510.38H108.1c-1,0-1.44-.37-1.37-1.33a4,4,0,0,0-1.31-3.4,7.4,7.4,0,0,1,4.62-12.3,7.28,7.28,0,0,1,7.81,4.38,7.45,7.45,0,0,1-2.14,8.8,1.52,1.52,0,0,0-.43,1.05c0,3-.1,2.83-2.8,2.8Z"/>
        <path class="cls-9" d="M107.86,512.6h6.26c.21,1.73-.09,2.06-1.76,2.07h-2.85C107.94,514.66,107.62,514.28,107.86,512.6Z"/>
      </g>
    </g>
    <g id="ji3E1h-7" data-name="ji3E1h">
      <g>
        <path class="cls-9" d="M274.86,64.44h1.52c2.7,0,2.84.16,2.8-2.8a1.5,1.5,0,0,1,.43-1,7.46,7.46,0,0,0,2.14-8.81,7.29,7.29,0,0,0-7.81-4.37A6.92,6.92,0,0,0,268,51.9a6.9,6.9,0,0,0,1.33,7.81,4,4,0,0,1,1.31,3.4c-.07,1,.37,1.31,1.37,1.33S273.91,64.44,274.86,64.44Zm-3.1,2.22c-.24,1.67.08,2.06,1.65,2.06q1.43,0,2.85,0c1.67,0,2-.33,1.76-2.06Z"/>
        <path class="cls-9" d="M274.86,64.44c-.95,0-1.91,0-2.86,0s-1.44-.37-1.37-1.33a4,4,0,0,0-1.31-3.4A6.9,6.9,0,0,1,268,51.9a6.92,6.92,0,0,1,5.95-4.49,7.29,7.29,0,0,1,7.81,4.37,7.46,7.46,0,0,1-2.14,8.81,1.5,1.5,0,0,0-.43,1c0,3-.1,2.83-2.8,2.8Z"/>
        <path class="cls-9" d="M271.76,66.66H278c.21,1.73-.09,2.06-1.76,2.06q-1.42,0-2.85,0C271.84,68.72,271.52,68.33,271.76,66.66Z"/>
      </g>
    </g>
    <g id="zefc6x">
      <g>
        <path class="cls-9" d="M103.2,684.62a4.52,4.52,0,0,0-.08.63c0,2.57,0,5.15,0,7.72a6.11,6.11,0,0,0,12.22,0c0-2.57,0-5.15,0-7.72a4.46,4.46,0,0,0-.09-.59Zm-2.07-3.06a1.76,1.76,0,0,0,1.76,2c2.43,0,4.86,0,7.28,0,1.81,0,3.62,0,5.43,0a1.65,1.65,0,0,0,1.67-2Zm15.73,9.68a14.09,14.09,0,0,0,0,1.61c0,.19.3.49.47.5.84,0,1.67,0,2.53,0v-2.13Zm-15.32,2.09v-2.08h-3v2.08Zm15.82,5.95-2-2.15-1.45,1.16,2.19,2.19Zm-14.22-2.18-2,1.91,1.28,1.39,2.22-2Zm7,5.92v-3.08h-1.92V703Z"/>
        <path class="cls-9" d="M103.2,684.62h12.07a4.46,4.46,0,0,1,.09.59c0,2.57,0,5.15,0,7.72a6.11,6.11,0,0,1-12.22,0c0-2.57,0-5.15,0-7.72A4.52,4.52,0,0,1,103.2,684.62Z"/>
        <path class="cls-9" d="M101.13,681.56h16.14a1.65,1.65,0,0,1-1.67,2c-1.81.05-3.62,0-5.43,0-2.42,0-4.85,0-7.28,0A1.76,1.76,0,0,1,101.13,681.56Z"/>
        <path class="cls-9" d="M116.86,691.24h3v2.13c-.86,0-1.69,0-2.53,0-.17,0-.44-.31-.47-.5A14.09,14.09,0,0,1,116.86,691.24Z"/>
        <path class="cls-9" d="M101.54,693.33h-3v-2.08h3Z"/>
        <path class="cls-9" d="M117.36,699.28l-1.24,1.2-2.19-2.19,1.45-1.16Z"/>
        <path class="cls-9" d="M103.14,697.1l1.46,1.25-2.22,2L101.1,699Z"/>
        <path class="cls-9" d="M110.19,703h-1.92v-3.08h1.92Z"/>
      </g>
    </g>
    <g id="zefc6x-2" data-name="zefc6x">
      <g>
        <path class="cls-9" d="M243,684.08a4.52,4.52,0,0,0-.08.63c0,2.58,0,5.15,0,7.73a6.11,6.11,0,0,0,12.22,0c0-2.58,0-5.15,0-7.73a3.54,3.54,0,0,0-.09-.59ZM241,681a1.76,1.76,0,0,0,1.76,2c2.43.05,4.86,0,7.29,0,1.8,0,3.61,0,5.42,0a1.64,1.64,0,0,0,1.67-2Zm15.73,9.69a11.87,11.87,0,0,0,0,1.6.72.72,0,0,0,.46.51c.84,0,1.68,0,2.54,0v-2.13Zm-15.32,2.08v-2.07h-3v2.07Zm15.82,6-2-2.14-1.45,1.16,2.19,2.18ZM243,696.56l-2.05,1.92,1.28,1.39,2.22-2Zm7,5.93V699.4h-1.92v3.09Z"/>
        <path class="cls-9" d="M243,684.08h12.07a3.54,3.54,0,0,1,.09.59c0,2.58,0,5.15,0,7.73a6.11,6.11,0,0,1-12.22,0c0-2.58,0-5.15,0-7.73A4.52,4.52,0,0,1,243,684.08Z"/>
        <path class="cls-9" d="M241,681h16.14a1.64,1.64,0,0,1-1.67,2c-1.81.05-3.62,0-5.42,0-2.43,0-4.86,0-7.29,0A1.76,1.76,0,0,1,241,681Z"/>
        <path class="cls-9" d="M256.68,690.71h3v2.13c-.86,0-1.7,0-2.54,0a.72.72,0,0,1-.46-.51A11.87,11.87,0,0,1,256.68,690.71Z"/>
        <path class="cls-9" d="M241.36,692.79h-3v-2.07h3Z"/>
        <path class="cls-9" d="M257.18,698.74l-1.24,1.2-2.19-2.18,1.45-1.16Z"/>
        <path class="cls-9" d="M243,696.56l1.45,1.26-2.22,2-1.28-1.39Z"/>
        <path class="cls-9" d="M250,702.49h-1.92V699.4H250Z"/>
      </g>
    </g>
    <g id="zefc6x-3" data-name="zefc6x">
      <g>
        <path class="cls-9" d="M236.4,31.81a4.62,4.62,0,0,0,.09-.65c0-2.64,0-5.28,0-7.91a6.27,6.27,0,0,0-12.53,0c0,2.64,0,5.28,0,7.91a3.46,3.46,0,0,0,.09.61Zm2.12,3.13a1.8,1.8,0,0,0-1.8-2c-2.49,0-5,0-7.47,0-1.85,0-3.7,0-5.56,0a1.69,1.69,0,0,0-1.71,2ZM222.4,25a12.73,12.73,0,0,0,0-1.65c0-.19-.31-.5-.48-.51-.86-.06-1.72,0-2.6,0V25Zm15.7-2.14V25h3V22.88Zm-16.21-6.1,2,2.2,1.48-1.19-2.24-2.24ZM236.46,19l2.1-2-1.32-1.42L235,17.73Zm-7.22-6.08V16.1h2V12.94Z"/>
        <path class="cls-9" d="M236.4,31.81H224a3.46,3.46,0,0,1-.09-.61c0-2.63,0-5.27,0-7.91a6.27,6.27,0,0,1,12.53,0c0,2.63,0,5.27,0,7.91A4.62,4.62,0,0,1,236.4,31.81Z"/>
        <path class="cls-9" d="M238.52,34.94H222a1.69,1.69,0,0,1,1.71-2c1.86,0,3.71,0,5.56,0,2.49,0,5,0,7.47,0A1.8,1.8,0,0,1,238.52,34.94Z"/>
        <path class="cls-9" d="M222.4,25h-3.1V22.83c.88,0,1.74,0,2.6,0,.17,0,.45.32.48.51A12.73,12.73,0,0,1,222.4,25Z"/>
        <path class="cls-9" d="M238.1,22.88h3V25h-3Z"/>
        <path class="cls-9" d="M221.89,16.78l1.27-1.23,2.24,2.24L223.92,19Z"/>
        <path class="cls-9" d="M236.46,19,235,17.73l2.27-2.1,1.32,1.42Z"/>
        <path class="cls-9" d="M229.24,12.94h2V16.1h-2Z"/>
      </g>
    </g>
  </g>
</svg>
