<svg xmlns="http://www.w3.org/2000/svg" viewBox="0 0 354.86 716">
  <defs>
    <style>
      .cls-1 {
        fill: #22232d;
      }

      .cls-2, .cls-3, .cls-6, .cls-7, .cls-8, .cls-9 {
        fill: none;
        stroke-miterlimit: 10;
      }

      .cls-2 {
        stroke: #22232d;
      }

      .cls-3, .cls-6 {
        stroke: #f7f8fa;
      }

      .cls-3 {
        stroke-width: 0.25px;
      }

      .cls-12, .cls-13, .cls-4 {
        fill: #f7f8fa;
      }

      .cls-4 {
        opacity: 0.14;
      }

      .cls-10, .cls-5 {
        fill: #00e4d7;
      }

      .cls-5 {
        opacity: 0.3;
      }

      .cls-7, .cls-8 {
        stroke: #00e4d7;
      }

      .cls-8 {
        stroke-width: 2px;
      }

      .cls-9 {
        stroke: #be1e2d;
        stroke-width: 4px;
      }

      .cls-11 {
        fill: #fbce42;
      }

      .cls-12 {
        font-size: 10px;
      }

      .cls-12, .cls-13 {
        font-family: Helvetica, Helvetica;
      }

      .cls-13 {
        font-size: 14px;
      }
    </style>
  </defs>
  <title>ground-floorplan</title>
  <g id="Background">
    <rect class="cls-1" y="0.5" width="354.36" height="715"/>
    <rect class="cls-2" x="12.41" y="0.5" width="341.95" height="715"/>
  </g>
  <g id="house-outline">
    <path id="house-border" class="cls-3" d="M84.12,673.88V449.27H143.9V325.73H71.6V45.51h34.76V11.82h114V45.51h91.06V590.45H294.74v83.43Z" transform="translate(2.18 0.5)"/>
    <path id="house-border-2" data-name="house-border" class="cls-4" d="M84.12,673.88V449.27H143.9V325.73H71.6V45.51h34.76V11.82h114V45.51h91.06V590.45H294.74v83.43Z" transform="translate(2.18 0.5)"/>
    <path id="library-border" class="cls-3" d="M71.6,187.14H225.44V325.73H71.6Z" transform="translate(2.18 0.5)"/>
    <path id="hallway-border" class="cls-3" d="M311.42,307.88h-86V187.14l30.76-29.47V45.51h55.22Z" transform="translate(2.18 0.5)"/>
    <path id="kitchen-border" class="cls-3" d="M143.9,478.85V325.73h81.54V307.88h86V590.45H294.74v83.43H84.12V550.33h74.14V478.85Z" transform="translate(2.18 0.5)"/>
    <path id="downstairs-bathroom-border" class="cls-3" d="M84.12,449.27H143.9v29.58h14.36v71.48H84.12Z" transform="translate(2.18 0.5)"/>
    <path id="living-room-border" class="cls-3" d="M201.53,187.14H71.6V45.51h34.76V11.82h114V45.51H256.2V157.67l-30.76,29.47H201.53" transform="translate(2.18 0.5)"/>
  </g>
  <g id="light-fill">
    <path id="library-border-2" data-name="library-border" class="cls-5" d="M71.6,187.14H225.44V325.73H71.6Z" transform="translate(2.18 0.5)"/>
  </g>
  <g id="motion">
    <g>
      <path id="hallway-border-2" data-name="hallway-border" class="cls-6" d="M229.27,307.88h-3.83V230.22M306,72h5.41V307.88H273.29M225.44,201.49V187.14l30.76-29.47V72H306" transform="translate(2.18 0.5)"/>
      <path id="kitchen-border-2" data-name="kitchen-border" class="cls-6" d="M273.29,307.88h38.13V590.45H294.74v83.43H84.12V550.33h74.14V478.85H143.9V325.73h81.54V307.88h3.83" transform="translate(2.18 0.5)"/>
      <path id="downstairs-bathroom-border-2" data-name="downstairs-bathroom-border" class="cls-6" d="M84.12,449.27H143.9v29.58h14.36v71.48H84.12Z" transform="translate(2.18 0.5)"/>
      <path id="library-border-3" data-name="library-border" class="cls-7" d="M225.44,230.22v95.51H71.6V187.14h25m104.92,0h23.91v14.35" transform="translate(2.18 0.5)"/>
      <path id="living-room-border-2" data-name="living-room-border" class="cls-8" d="M96.61,187.14h-25V45.51h34.76V11.82h114V45.51H256.2V157.67l-30.76,29.47H201.53" transform="translate(2.18 0.5)"/>
    </g>
    <g>
      <path id="hallway-border-3" data-name="hallway-border" class="cls-8" d="M229.27,307.88h-3.83V230.22M306,72h5.41V307.88H273.29M225.44,201.49V187.14l30.76-29.47V72H306" transform="translate(2.18 0.5)"/>
      <path id="kitchen-border-3" data-name="kitchen-border" class="cls-8" d="M273.29,307.88h38.13V590.45H294.74v83.43H84.12V550.33h74.14V478.85H143.9V325.73h81.54V307.88h3.83" transform="translate(2.18 0.5)"/>
      <path id="downstairs-bathroom-border-3" data-name="downstairs-bathroom-border" class="cls-8" d="M84.12,449.27H143.9v29.58h14.36v71.48H84.12Z" transform="translate(2.18 0.5)"/>
      <path id="library-border-4" data-name="library-border" class="cls-8" d="M225.44,230.22v95.51H71.6V187.14h25m104.92,0h23.91v14.35" transform="translate(2.18 0.5)"/>
      <path id="living-room-border-3" data-name="living-room-border" class="cls-8" d="M96.61,187.14h-25V45.51h34.76V11.82h114V45.51H256.2V157.67l-30.76,29.47H201.53" transform="translate(2.18 0.5)"/>
    </g>
  </g>
  <g id="openings">
    <line class="cls-9" x1="110.63" y1="12.32" x2="167.04" y2="12.32"/>
  </g>
  <g id="icons">
    <g id="lgEU97">
      <g>
        <path class="cls-10" d="M69.5,25.91l5,8.66c1.24-1.49,2.39-2.8,3.45-4.19a1.41,1.41,0,0,0,0-1.22c-.51-1.07-1.23-2.05-1.71-3.13a1.54,1.54,0,0,0-2-1C72.69,25.37,71.18,25.61,69.5,25.91Z" transform="translate(2.18 0.5)"/>
        <path class="cls-10" d="M98.73,34.76h-7c-2.4,0-3.44-1-3.45-3.4,0-1.63,0-1.63-1.8-3.56-.82.45-1.65.94-2.5,1.4a2.76,2.76,0,0,1-4-1c-.7-1.07-1.31-2.19-2-3.3-1.2-2.09-.85-3.45,1.26-4.7s4.13-2.39,6.19-3.59c1.88-1.09,3.75-2.2,5.65-3.26s3.25-.73,4.41,1.17c.66,1.09,1.31,2.19,1.92,3.32a2.71,2.71,0,0,1-1,4.06c-1.14.75-2.33,1.41-3.55,2.14a6.16,6.16,0,0,1,.26,2,4.06,4.06,0,0,1-1,2.37c-1.31,1-1.1,2.14-1,3.55h7.64Z" transform="translate(2.18 0.5)"/>
        <path class="cls-10" d="M69.5,25.91c1.68-.3,3.19-.54,4.69-.84a1.54,1.54,0,0,1,2,1c.48,1.08,1.2,2.06,1.71,3.13a1.41,1.41,0,0,1,0,1.22c-1.06,1.39-2.21,2.7-3.45,4.19Z" transform="translate(2.18 0.5)"/>
      </g>
    </g>
    <g id="lgEU97-2" data-name="lgEU97">
      <g>
        <path class="cls-10" d="M41.31,660.19l5,8.66c1.25-1.49,2.4-2.8,3.45-4.19a1.44,1.44,0,0,0,0-1.22c-.52-1.07-1.24-2.05-1.71-3.13a1.55,1.55,0,0,0-2-1C44.5,659.65,43,659.89,41.31,660.19Z" transform="translate(2.18 0.5)"/>
        <path class="cls-10" d="M70.54,669H63.49c-2.4,0-3.45-1-3.46-3.4,0-1.63,0-1.63-1.8-3.56-.81.45-1.65.94-2.5,1.4a2.76,2.76,0,0,1-4-1c-.7-1.07-1.31-2.19-1.94-3.3-1.2-2.09-.85-3.45,1.25-4.7s4.13-2.39,6.2-3.59c1.88-1.09,3.75-2.2,5.64-3.26s3.26-.73,4.41,1.17c.67,1.09,1.32,2.19,1.93,3.32a2.71,2.71,0,0,1-1,4.06c-1.14.75-2.34,1.41-3.56,2.14a6.5,6.5,0,0,1,.27,2,4.07,4.07,0,0,1-1,2.36c-1.3,1-1.09,2.15-1,3.55h7.65Z" transform="translate(2.18 0.5)"/>
        <path class="cls-10" d="M41.31,660.19c1.68-.3,3.19-.54,4.68-.84a1.55,1.55,0,0,1,2,1c.47,1.08,1.19,2.06,1.71,3.13a1.44,1.44,0,0,1,0,1.22c-1,1.39-2.2,2.7-3.45,4.19Z" transform="translate(2.18 0.5)"/>
      </g>
    </g>
    <g id="lgEU97-3" data-name="lgEU97">
      <g>
        <path class="cls-10" d="M273.55,27.1l5,8.66c1.25-1.48,2.4-2.8,3.45-4.19a1.44,1.44,0,0,0,0-1.22c-.52-1.07-1.24-2-1.71-3.13a1.56,1.56,0,0,0-2-1C276.74,26.56,275.23,26.8,273.55,27.1Z" transform="translate(2.18 0.5)"/>
        <path class="cls-10" d="M302.77,36h-7c-2.4,0-3.45-1.05-3.46-3.41,0-1.63,0-1.63-1.8-3.56-.81.46-1.65.95-2.5,1.4a2.76,2.76,0,0,1-4-1c-.7-1.07-1.31-2.2-1.94-3.31-1.2-2.09-.86-3.44,1.25-4.69s4.13-2.4,6.2-3.59c1.88-1.09,3.75-2.2,5.64-3.27s3.26-.72,4.41,1.17c.67,1.1,1.31,2.2,1.93,3.32a2.71,2.71,0,0,1-1,4.06c-1.13.75-2.33,1.42-3.55,2.14a6.22,6.22,0,0,1,.26,2,4,4,0,0,1-1,2.36c-1.3,1-1.09,2.15-1,3.55h7.64Z" transform="translate(2.18 0.5)"/>
        <path class="cls-10" d="M273.55,27.1c1.68-.3,3.19-.54,4.69-.84a1.56,1.56,0,0,1,2,1c.47,1.09,1.19,2.06,1.71,3.13a1.44,1.44,0,0,1,0,1.22c-1.05,1.39-2.2,2.71-3.45,4.19Z" transform="translate(2.18 0.5)"/>
      </g>
    </g>
    <g id="ji3E1h">
      <g>
        <path class="cls-11" d="M147.08,264.74h1.52c2.71,0,2.84.16,2.81-2.8a1.45,1.45,0,0,1,.42-1.05,7.45,7.45,0,0,0,2.14-8.81,7.28,7.28,0,0,0-7.81-4.37A7.39,7.39,0,0,0,141.55,260a4,4,0,0,1,1.3,3.41c-.07,1,.37,1.31,1.37,1.32S146.13,264.74,147.08,264.74ZM144,267c-.23,1.67.08,2.06,1.65,2.06h2.85c1.68,0,2-.33,1.76-2.06Z" transform="translate(2.18 0.5)"/>
        <path class="cls-11" d="M147.08,264.74c-1,0-1.9,0-2.86,0s-1.44-.36-1.37-1.32a4,4,0,0,0-1.3-3.41,7.39,7.39,0,0,1,4.61-12.29,7.28,7.28,0,0,1,7.81,4.37,7.45,7.45,0,0,1-2.14,8.81,1.45,1.45,0,0,0-.42,1.05c0,3-.1,2.83-2.81,2.8Z" transform="translate(2.18 0.5)"/>
        <path class="cls-11" d="M144,267h6.26c.21,1.73-.08,2.06-1.76,2.06h-2.85C144.06,269,143.75,268.63,144,267Z" transform="translate(2.18 0.5)"/>
      </g>
    </g>
    <g id="ji3E1h-2" data-name="ji3E1h">
      <g>
        <path class="cls-10" d="M163.9,110.25h1.52c2.71,0,2.84.17,2.81-2.8a1.46,1.46,0,0,1,.42-1,7.44,7.44,0,0,0,2.14-8.8A7.27,7.27,0,0,0,163,93.22a7.39,7.39,0,0,0-4.61,12.3,4,4,0,0,1,1.3,3.4c-.07,1,.37,1.31,1.37,1.33S163,110.25,163.9,110.25Zm-3.1,2.22c-.23,1.68.08,2.06,1.65,2.07h2.85c1.68,0,2-.34,1.76-2.07Z" transform="translate(2.18 0.5)"/>
        <path class="cls-10" d="M163.9,110.25c-1,0-1.91,0-2.86,0s-1.44-.37-1.37-1.33a4,4,0,0,0-1.3-3.4A7.39,7.39,0,0,1,163,93.22a7.27,7.27,0,0,1,7.81,4.38,7.44,7.44,0,0,1-2.14,8.8,1.46,1.46,0,0,0-.42,1c0,3-.1,2.83-2.81,2.8Z" transform="translate(2.18 0.5)"/>
        <path class="cls-10" d="M160.8,112.47h6.26c.21,1.73-.08,2.06-1.76,2.07h-2.85C160.88,114.53,160.57,114.15,160.8,112.47Z" transform="translate(2.18 0.5)"/>
      </g>
    </g>
    <g id="ji3E1h-3" data-name="ji3E1h">
      <g>
        <path class="cls-10" d="M285.06,156.89h1.52c2.71,0,2.84.17,2.81-2.79a1.44,1.44,0,0,1,.43-1.06,7.45,7.45,0,0,0,2.13-8.8,7.27,7.27,0,0,0-7.81-4.37,7.39,7.39,0,0,0-4.61,12.29,4,4,0,0,1,1.31,3.4c-.08,1,.37,1.32,1.36,1.33S284.11,156.89,285.06,156.89ZM282,159.12c-.24,1.67.08,2.06,1.64,2.06h2.85c1.68,0,2-.34,1.77-2.06Z" transform="translate(2.18 0.5)"/>
        <path class="cls-10" d="M285.06,156.89c-.95,0-1.9,0-2.86,0s-1.44-.36-1.36-1.33a4,4,0,0,0-1.31-3.4,7.39,7.39,0,0,1,4.61-12.29,7.27,7.27,0,0,1,7.81,4.37,7.45,7.45,0,0,1-2.13,8.8,1.44,1.44,0,0,0-.43,1.06c0,3-.1,2.82-2.81,2.79Z" transform="translate(2.18 0.5)"/>
        <path class="cls-10" d="M282,159.12h6.26c.2,1.72-.09,2.06-1.77,2.06h-2.85C282.05,161.18,281.73,160.79,282,159.12Z" transform="translate(2.18 0.5)"/>
      </g>
    </g>
    <g id="ji3E1h-4" data-name="ji3E1h">
      <g>
        <path class="cls-10" d="M232.94,405.2h1.52c2.71,0,2.84.16,2.81-2.8a1.46,1.46,0,0,1,.43-1.06,7.44,7.44,0,0,0,2.13-8.8,7.28,7.28,0,0,0-7.81-4.37,7.39,7.39,0,0,0-4.61,12.29,4,4,0,0,1,1.31,3.41c-.08,1,.37,1.31,1.36,1.32S232,405.2,232.94,405.2Zm-3.09,2.22c-.24,1.67.08,2.06,1.64,2.06h2.85c1.68,0,2-.34,1.77-2.06Z" transform="translate(2.18 0.5)"/>
        <path class="cls-10" d="M232.94,405.2c-.95,0-1.9,0-2.86,0s-1.44-.36-1.36-1.32a4,4,0,0,0-1.31-3.41A7.39,7.39,0,0,1,232,388.17a7.28,7.28,0,0,1,7.81,4.37,7.44,7.44,0,0,1-2.13,8.8,1.46,1.46,0,0,0-.43,1.06c0,3-.1,2.83-2.81,2.8Z" transform="translate(2.18 0.5)"/>
        <path class="cls-10" d="M229.85,407.42h6.26c.2,1.72-.09,2.06-1.77,2.06h-2.85C229.93,409.48,229.61,409.09,229.85,407.42Z" transform="translate(2.18 0.5)"/>
      </g>
    </g>
    <g id="ji3E1h-5" data-name="ji3E1h">
      <g>
        <path class="cls-10" d="M187,618.75h1.51c2.71,0,2.84.16,2.81-2.8a1.5,1.5,0,0,1,.43-1.06,7.43,7.43,0,0,0,2.13-8.8,7.26,7.26,0,0,0-7.81-4.37A7.39,7.39,0,0,0,181.47,614a4,4,0,0,1,1.31,3.41c-.08,1,.37,1.31,1.37,1.32S186.05,618.75,187,618.75Zm-3.1,2.22c-.24,1.67.08,2.06,1.65,2.06h2.84c1.68,0,2-.34,1.77-2.06Z" transform="translate(2.18 0.5)"/>
        <path class="cls-10" d="M187,618.75c-1,0-1.91,0-2.86,0s-1.45-.36-1.37-1.32a4,4,0,0,0-1.31-3.41,7.39,7.39,0,0,1,4.61-12.29,7.26,7.26,0,0,1,7.81,4.37,7.43,7.43,0,0,1-2.13,8.8,1.5,1.5,0,0,0-.43,1.06c0,3-.1,2.82-2.81,2.8Z" transform="translate(2.18 0.5)"/>
        <path class="cls-10" d="M183.91,621h6.26c.21,1.72-.09,2.06-1.77,2.06h-2.84C184,623,183.67,622.64,183.91,621Z" transform="translate(2.18 0.5)"/>
      </g>
    </g>
    <g id="ji3E1h-6" data-name="ji3E1h">
      <g>
        <path class="cls-10" d="M121.19,510.38h1.52c2.71,0,2.84.17,2.8-2.8a1.52,1.52,0,0,1,.43-1.05,7.44,7.44,0,0,0,2.14-8.8,7.28,7.28,0,0,0-7.81-4.38,7.39,7.39,0,0,0-4.61,12.3,4,4,0,0,1,1.3,3.4c-.07,1,.37,1.31,1.37,1.33Zm-3.1,2.22c-.23,1.68.08,2.06,1.65,2.07h2.85c1.67,0,2-.34,1.76-2.07Z" transform="translate(2.18 0.5)"/>
        <path class="cls-10" d="M121.19,510.38h-2.86c-1,0-1.44-.37-1.37-1.33a4,4,0,0,0-1.3-3.4,7.39,7.39,0,0,1,4.61-12.3,7.28,7.28,0,0,1,7.81,4.38,7.44,7.44,0,0,1-2.14,8.8,1.52,1.52,0,0,0-.43,1.05c0,3-.09,2.83-2.8,2.8Z" transform="translate(2.18 0.5)"/>
        <path class="cls-10" d="M118.09,512.6h6.26c.21,1.73-.09,2.06-1.76,2.07h-2.85C118.17,514.66,117.86,514.28,118.09,512.6Z" transform="translate(2.18 0.5)"/>
      </g>
    </g>
    <g id="ji3E1h-7" data-name="ji3E1h">
      <g>
        <path class="cls-10" d="M285.09,64.44h1.52c2.71,0,2.84.16,2.8-2.8a1.5,1.5,0,0,1,.43-1A7.45,7.45,0,0,0,292,51.78a7.29,7.29,0,0,0-7.81-4.37,7.39,7.39,0,0,0-4.61,12.3,4,4,0,0,1,1.3,3.4c-.07,1,.37,1.31,1.37,1.33S284.14,64.44,285.09,64.44ZM282,66.66c-.23,1.67.08,2.06,1.65,2.06q1.42,0,2.85,0c1.67,0,2-.33,1.76-2.06Z" transform="translate(2.18 0.5)"/>
        <path class="cls-10" d="M285.09,64.44c-.95,0-1.91,0-2.86,0s-1.44-.37-1.37-1.33a4,4,0,0,0-1.3-3.4,7.39,7.39,0,0,1,4.61-12.3A7.29,7.29,0,0,1,292,51.78a7.45,7.45,0,0,1-2.14,8.81,1.5,1.5,0,0,0-.43,1c0,3-.09,2.83-2.8,2.8Z" transform="translate(2.18 0.5)"/>
        <path class="cls-10" d="M282,66.66h6.26c.21,1.73-.09,2.06-1.76,2.06q-1.42,0-2.85,0C282.07,68.72,281.76,68.33,282,66.66Z" transform="translate(2.18 0.5)"/>
      </g>
    </g>
    <g id="zefc6x">
      <g>
        <path class="cls-10" d="M113.43,684.62a4.52,4.52,0,0,0-.08.63c0,2.57,0,5.15,0,7.72a6.11,6.11,0,0,0,12.22,0c0-2.57,0-5.15,0-7.72a3.25,3.25,0,0,0-.09-.59Zm-2.07-3.06a1.76,1.76,0,0,0,1.76,2c2.43,0,4.86,0,7.29,0,1.8,0,3.61,0,5.42,0a1.65,1.65,0,0,0,1.67-2Zm15.73,9.68a14.09,14.09,0,0,0,0,1.61c0,.19.3.49.47.5.84,0,1.68,0,2.53,0v-2.13Zm-15.32,2.09v-2.08h-3v2.08Zm15.82,5.95-2-2.15-1.45,1.16,2.19,2.19Zm-14.22-2.18-2,1.91,1.28,1.39,2.22-2Zm7,5.92v-3.08H118.5V703Z" transform="translate(2.18 0.5)"/>
        <path class="cls-10" d="M113.43,684.62H125.5a3.25,3.25,0,0,1,.09.59c0,2.57,0,5.15,0,7.72a6.11,6.11,0,0,1-12.22,0c0-2.57,0-5.15,0-7.72A4.52,4.52,0,0,1,113.43,684.62Z" transform="translate(2.18 0.5)"/>
        <path class="cls-10" d="M111.36,681.56H127.5a1.65,1.65,0,0,1-1.67,2c-1.81.05-3.62,0-5.42,0-2.43,0-4.86,0-7.29,0A1.76,1.76,0,0,1,111.36,681.56Z" transform="translate(2.18 0.5)"/>
        <path class="cls-10" d="M127.09,691.24h3v2.13c-.85,0-1.69,0-2.53,0-.17,0-.44-.31-.47-.5A14.09,14.09,0,0,1,127.09,691.24Z" transform="translate(2.18 0.5)"/>
        <path class="cls-10" d="M111.77,693.33h-3v-2.08h3Z" transform="translate(2.18 0.5)"/>
        <path class="cls-10" d="M127.59,699.28l-1.24,1.2-2.19-2.19,1.45-1.16Z" transform="translate(2.18 0.5)"/>
        <path class="cls-10" d="M113.37,697.1l1.46,1.25-2.22,2L111.33,699Z" transform="translate(2.18 0.5)"/>
        <path class="cls-10" d="M120.42,703H118.5v-3.08h1.92Z" transform="translate(2.18 0.5)"/>
      </g>
    </g>
    <g id="zefc6x-2" data-name="zefc6x">
      <g>
        <path class="cls-10" d="M253.25,684.08c0,.21-.08.42-.08.63,0,2.58,0,5.15,0,7.73a6.11,6.11,0,0,0,12.22,0c0-2.58,0-5.15,0-7.73a4.84,4.84,0,0,0-.08-.59ZM251.18,681a1.76,1.76,0,0,0,1.76,2c2.43.05,4.86,0,7.29,0,1.81,0,3.62,0,5.42,0a1.64,1.64,0,0,0,1.67-2Zm15.73,9.69a11.87,11.87,0,0,0,0,1.6.71.71,0,0,0,.47.51c.83,0,1.67,0,2.53,0v-2.13Zm-15.31,2.08v-2.07h-3v2.07Zm15.81,6-2-2.14L264,697.76l2.18,2.18Zm-14.21-2.18-2,1.92,1.28,1.39,2.22-2Zm7,5.93V699.4h-1.91v3.09Z" transform="translate(2.18 0.5)"/>
        <path class="cls-10" d="M253.25,684.08h12.08a4.84,4.84,0,0,1,.08.59c0,2.58,0,5.15,0,7.73a6.11,6.11,0,0,1-12.22,0c-.05-2.58,0-5.15,0-7.73C253.17,684.5,253.23,684.29,253.25,684.08Z" transform="translate(2.18 0.5)"/>
        <path class="cls-10" d="M251.18,681h16.14a1.64,1.64,0,0,1-1.67,2c-1.8.05-3.61,0-5.42,0-2.43,0-4.86,0-7.29,0A1.76,1.76,0,0,1,251.18,681Z" transform="translate(2.18 0.5)"/>
        <path class="cls-10" d="M266.91,690.71h3v2.13c-.86,0-1.7,0-2.53,0a.71.71,0,0,1-.47-.51A11.87,11.87,0,0,1,266.91,690.71Z" transform="translate(2.18 0.5)"/>
        <path class="cls-10" d="M251.6,692.79h-3v-2.07h3Z" transform="translate(2.18 0.5)"/>
        <path class="cls-10" d="M267.41,698.74l-1.24,1.2L264,697.76l1.45-1.16Z" transform="translate(2.18 0.5)"/>
        <path class="cls-10" d="M253.2,696.56l1.45,1.26-2.22,2-1.28-1.39Z" transform="translate(2.18 0.5)"/>
        <path class="cls-10" d="M260.24,702.49h-1.91V699.4h1.91Z" transform="translate(2.18 0.5)"/>
      </g>
    </g>
    <g id="zefc6x-3" data-name="zefc6x">
      <g>
        <path class="cls-10" d="M246.63,31.81a4.62,4.62,0,0,0,.09-.65c0-2.64,0-5.28,0-7.91a6.27,6.27,0,0,0-12.53,0c0,2.64,0,5.28,0,7.91a4.74,4.74,0,0,0,.09.61Zm2.13,3.13a1.81,1.81,0,0,0-1.81-2c-2.49,0-5,0-7.47,0-1.85,0-3.7,0-5.55,0a1.68,1.68,0,0,0-1.71,2ZM232.63,25a12.73,12.73,0,0,0,0-1.65c0-.19-.3-.5-.48-.51-.86-.06-1.72,0-2.6,0V25Zm15.7-2.14V25h3V22.88Zm-16.21-6.1,2,2.2,1.48-1.19-2.24-2.24ZM246.69,19l2.1-2-1.31-1.42-2.28,2.1Zm-7.22-6.08V16.1h2V12.94Z" transform="translate(2.18 0.5)"/>
        <path class="cls-10" d="M246.63,31.81H234.26a4.74,4.74,0,0,1-.09-.61c0-2.63,0-5.27,0-7.91a6.27,6.27,0,0,1,12.53,0c0,2.63,0,5.27,0,7.91A4.62,4.62,0,0,1,246.63,31.81Z" transform="translate(2.18 0.5)"/>
        <path class="cls-10" d="M248.76,34.94H232.22a1.68,1.68,0,0,1,1.71-2c1.85,0,3.7,0,5.55,0,2.49,0,5,0,7.47,0A1.81,1.81,0,0,1,248.76,34.94Z" transform="translate(2.18 0.5)"/>
        <path class="cls-10" d="M232.63,25h-3.1V22.83c.88,0,1.74,0,2.6,0,.18,0,.45.32.48.51A12.73,12.73,0,0,1,232.63,25Z" transform="translate(2.18 0.5)"/>
        <path class="cls-10" d="M248.33,22.88h3V25h-3Z" transform="translate(2.18 0.5)"/>
        <path class="cls-10" d="M232.12,16.78l1.27-1.23,2.24,2.24L234.15,19Z" transform="translate(2.18 0.5)"/>
        <path class="cls-10" d="M246.69,19l-1.49-1.29,2.28-2.1,1.31,1.42Z" transform="translate(2.18 0.5)"/>
        <path class="cls-10" d="M239.47,12.94h2V16.1h-2Z" transform="translate(2.18 0.5)"/>
      </g>
    </g>
  </g>
  <g id="temp">
    <g id="_0BCMNP" data-name="0BCMNP">
      <path class="cls-10" d="M88.2,178.28h-.36a3.22,3.22,0,0,0-.5-.16A5,5,0,0,1,83,174.64a5.2,5.2,0,0,1,1.32-5.56A1.81,1.81,0,0,0,84.8,168c0-2.53,0-5.06,0-7.59s1.73-3.91,4-3.42a3.25,3.25,0,0,1,2.41,3.42c0,2.5,0,5,0,7.5a1.87,1.87,0,0,0,.51,1.21,5.2,5.2,0,0,1-.36,7.78A14.1,14.1,0,0,1,88.2,178.28Zm-1.26-15c0,2,0,3.86,0,5.74a1.11,1.11,0,0,1-.6,1.14,3.05,3.05,0,0,0-1.5,3.5,3.26,3.26,0,0,0,6.12.62,2.84,2.84,0,0,0-.78-3.7c-1.18-.73-1.11-1.64-1.09-2.69,0-1.29,0-2.57,0-3.85,0-.26,0-.51,0-.76Z" transform="translate(2.18 0.5)"/>
    </g>
    <text class="cls-12" transform="translate(98.78 166.35)">19.6ºC<tspan x="0" y="12">10%</tspan></text>
    <g id="_0BCMNP-2" data-name="0BCMNP">
      <path class="cls-10" d="M86.57,318.57h-.36a2.42,2.42,0,0,0-.5-.16,5,5,0,0,1-4.32-3.48,5.22,5.22,0,0,1,1.32-5.57,1.79,1.79,0,0,0,.46-1.06c0-2.53,0-5.06,0-7.59s1.73-3.91,4-3.43a3.25,3.25,0,0,1,2.41,3.43c0,2.5,0,5,0,7.5a1.89,1.89,0,0,0,.51,1.21,5.2,5.2,0,0,1-.36,7.78A14.56,14.56,0,0,1,86.57,318.57Zm-1.26-15c0,2,0,3.86,0,5.73a1.09,1.09,0,0,1-.6,1.14,3.07,3.07,0,0,0-1.5,3.51,3.26,3.26,0,0,0,6.12.61,2.83,2.83,0,0,0-.78-3.69c-1.18-.73-1.11-1.64-1.09-2.7,0-1.28,0-2.56,0-3.84,0-.26,0-.52,0-.76Z" transform="translate(2.18 0.5)"/>
    </g>
    <text class="cls-12" transform="translate(97.15 306.63)">19.6ºC<tspan x="0" y="12">10%</tspan></text>
    <g id="_0BCMNP-3" data-name="0BCMNP">
      <path class="cls-10" d="M97.28,664.07h-.36a2.67,2.67,0,0,0-.5-.17,4.94,4.94,0,0,1-4.31-3.48,5.19,5.19,0,0,1,1.32-5.56,1.77,1.77,0,0,0,.45-1.06c0-2.53,0-5.06,0-7.59s1.72-3.91,4-3.43a3.23,3.23,0,0,1,2.4,3.43c0,2.5,0,5,0,7.5a1.94,1.94,0,0,0,.51,1.21,5.19,5.19,0,0,1-.36,7.78A14.36,14.36,0,0,1,97.28,664.07Zm-1.26-15c0,2,0,3.87,0,5.74a1.07,1.07,0,0,1-.6,1.14,3.06,3.06,0,0,0-1.5,3.51,3.29,3.29,0,0,0,2.76,2.46,3.25,3.25,0,0,0,3.36-1.85,2.84,2.84,0,0,0-.78-3.7c-1.17-.72-1.11-1.63-1.09-2.69,0-1.28,0-2.56,0-3.85,0-.25,0-.51-.05-.76Z" transform="translate(2.18 0.5)"/>
    </g>
    <text class="cls-12" transform="translate(107.86 652.13)">19.6ºC<tspan x="0" y="12">10%</tspan></text>
    <g id="_0BCMNP-4" data-name="0BCMNP">
      <path class="cls-10" d="M95.66,478H95.3a2.16,2.16,0,0,0-.49-.16,5,5,0,0,1-4.32-3.48,5.2,5.2,0,0,1,1.32-5.57,1.72,1.72,0,0,0,.45-1.06c0-2.53,0-5.06,0-7.59s1.73-3.91,4-3.43a3.23,3.23,0,0,1,2.4,3.43c0,2.5,0,5,0,7.5a1.9,1.9,0,0,0,.52,1.21,5.2,5.2,0,0,1-.37,7.78A14.36,14.36,0,0,1,95.66,478ZM94.4,463c0,2,0,3.87,0,5.74a1.07,1.07,0,0,1-.6,1.14,3.08,3.08,0,0,0-1.5,3.51,3.27,3.27,0,0,0,2.76,2.46A3.23,3.23,0,0,0,98.43,474a2.83,2.83,0,0,0-.78-3.69c-1.17-.73-1.11-1.64-1.09-2.7,0-1.28,0-2.56,0-3.85,0-.25,0-.51,0-.76Z" transform="translate(2.18 0.5)"/>
    </g>
    <text class="cls-12" transform="translate(106.24 466.03)">19.6ºC<tspan x="0" y="12">10%</tspan></text>
    <g id="_0BCMNP-5" data-name="0BCMNP">
      <path class="cls-10" d="M299.62,303.89h-.36a2.24,2.24,0,0,0-.5-.16,5,5,0,0,1-4.32-3.48,5.2,5.2,0,0,1,1.33-5.57,1.75,1.75,0,0,0,.45-1.06c0-2.53,0-5.06,0-7.59s1.73-3.91,4-3.43a3.23,3.23,0,0,1,2.41,3.43c0,2.5,0,5,0,7.5a1.89,1.89,0,0,0,.51,1.21,5.19,5.19,0,0,1-.36,7.78A14.36,14.36,0,0,1,299.62,303.89Zm-1.26-15c0,2,0,3.86,0,5.73a1.07,1.07,0,0,1-.6,1.14,3.07,3.07,0,0,0-1.5,3.51,3.26,3.26,0,0,0,6.12.61,2.83,2.83,0,0,0-.78-3.69c-1.17-.73-1.11-1.64-1.09-2.7,0-1.28,0-2.56,0-3.84,0-.26,0-.52,0-.76Z" transform="translate(2.18 0.5)"/>
    </g>
    <text class="cls-12" transform="translate(266.28 290.95)">19.6ºC<tspan x="0" y="12">10%</tspan></text>
  </g>
  <g id="text">
    <text class="cls-13" transform="translate(339.56 160.35) rotate(-90)">GROUND FLOOR</text>
  </g>
</svg>
