<svg xmlns="http://www.w3.org/2000/svg" viewBox="0 0 343.14 715">
  <defs>
    <style>
      .cls-1 {
        fill: #22232d;
      }

      .cls-2, .cls-3, .cls-6, .cls-7, .cls-8, .cls-9 {
        fill: none;
        stroke-miterlimit: 10;
      }

      .cls-2 {
        stroke: #22232d;
      }

      .cls-3, .cls-6 {
        stroke: #f7f8fa;
      }

      .cls-3 {
        stroke-width: 0.25px;
      }

      .cls-12, .cls-13, .cls-4 {
        fill: #f7f8fa;
      }

      .cls-4 {
        opacity: 0.14;
      }

      .cls-10, .cls-5 {
        fill: #00e4d7;
      }

      .cls-5 {
        opacity: 0.3;
      }

      .cls-7, .cls-8 {
        stroke: #00e4d7;
      }

      .cls-8 {
        stroke-width: 2px;
      }

      .cls-9 {
        stroke: #be1e2d;
        stroke-width: 4px;
      }

      .cls-11 {
        fill: #fbce42;
      }

      .cls-12 {
        font-size: 10px;
      }

      .cls-12, .cls-13 {
        font-family: Helvetica, Helvetica;
      }

      .cls-13 {
        font-size: 14px;
      }
    </style>
  </defs>
  <title>ground-floorplan</title>
  <g id="Background">
    <rect class="cls-1" width="343.14" height="715"/>
    <rect class="cls-2" x="1.19" width="341.95" height="715"/>
  </g>
  <g id="house-outline">
    <path id="house-border" class="cls-3" d="M75.07,673.88V449.27h59.78V325.73H62.56V45.51H97.32V11.82h114V45.51h91.06V590.45H285.69v83.43Z"/>
    <path id="house-border-2" data-name="house-border" class="cls-4" d="M75.07,673.88V449.27h59.78V325.73H62.56V45.51H97.32V11.82h114V45.51h91.06V590.45H285.69v83.43Z"/>
    <path id="library-border" class="cls-3" d="M62.56,187.14H216.39V325.73H62.56Z"/>
    <path id="hallway-border" class="cls-3" d="M302.38,307.88h-86V187.14l30.76-29.47V45.51h55.23Z"/>
    <path id="kitchen-border" class="cls-3" d="M134.85,478.85V325.73h81.54V307.88h86V590.45H285.69v83.43H75.07V550.33h74.15V478.85Z"/>
    <path id="downstairs-bathroom-border" class="cls-3" d="M75.07,449.27h59.78v29.58h14.37v71.48H75.07Z"/>
    <path id="living-room-border" class="cls-3" d="M192.49,187.14H62.56V45.51H97.32V11.82h114V45.51h35.83V157.67l-30.76,29.47h-23.9"/>
  </g>
  <g id="light-fill">
    <path id="library-border-2" data-name="library-border" class="cls-5" d="M62.56,187.14H216.39V325.73H62.56Z"/>
  </g>
  <g id="motion">
    <g>
      <path id="hallway-border-2" data-name="hallway-border" class="cls-6" d="M220.23,307.88h-3.84V230.22M297,72h5.41V307.88H264.25M216.39,201.49V187.14l30.76-29.47V72H297"/>
      <path id="kitchen-border-2" data-name="kitchen-border" class="cls-6" d="M264.25,307.88h38.13V590.45H285.69v83.43H75.07V550.33h74.15V478.85H134.85V325.73h81.54V307.88h3.84"/>
      <path id="downstairs-bathroom-border-2" data-name="downstairs-bathroom-border" class="cls-6" d="M75.07,449.27h59.78v29.58h14.37v71.48H75.07Z"/>
      <path id="library-border-3" data-name="library-border" class="cls-7" d="M216.39,230.22v95.51H62.56V187.14h25m104.92,0h23.9v14.35"/>
      <path id="living-room-border-2" data-name="living-room-border" class="cls-8" d="M87.57,187.14h-25V45.51H97.32V11.82h114V45.51h35.83V157.67l-30.76,29.47h-23.9"/>
    </g>
    <g>
      <path id="hallway-border-3" data-name="hallway-border" class="cls-8" d="M220.23,307.88h-3.84V230.22M297,72h5.41V307.88H264.25M216.39,201.49V187.14l30.76-29.47V72H297"/>
      <path id="kitchen-border-3" data-name="kitchen-border" class="cls-8" d="M264.25,307.88h38.13V590.45H285.69v83.43H75.07V550.33h74.15V478.85H134.85V325.73h81.54V307.88h3.84"/>
      <path id="downstairs-bathroom-border-3" data-name="downstairs-bathroom-border" class="cls-8" d="M75.07,449.27h59.78v29.58h14.37v71.48H75.07Z"/>
      <path id="library-border-4" data-name="library-border" class="cls-8" d="M216.39,230.22v95.51H62.56V187.14h25m104.92,0h23.9v14.35"/>
      <path id="living-room-border-3" data-name="living-room-border" class="cls-8" d="M87.57,187.14h-25V45.51H97.32V11.82h114V45.51h35.83V157.67l-30.76,29.47h-23.9"/>
    </g>
  </g>
  <g id="openings">
    <line class="cls-9" x1="99.41" y1="11.82" x2="155.82" y2="11.82"/>
  </g>
  <g id="icons">
    <g id="lgEU97">
      <g>
        <path class="cls-10" d="M60.46,25.91l5,8.66c1.24-1.49,2.39-2.8,3.44-4.19a1.41,1.41,0,0,0,0-1.22c-.52-1.07-1.23-2.05-1.71-3.13a1.54,1.54,0,0,0-2-1C63.65,25.37,62.14,25.61,60.46,25.91Z"/>
        <path class="cls-10" d="M89.69,34.76h-7c-2.4,0-3.45-1-3.45-3.4,0-1.63,0-1.63-1.81-3.56-.81.45-1.64.94-2.5,1.4a2.75,2.75,0,0,1-4-1c-.7-1.07-1.32-2.19-2-3.3-1.2-2.09-.85-3.45,1.25-4.7s4.13-2.39,6.2-3.59c1.88-1.09,3.75-2.2,5.65-3.26s3.25-.73,4.41,1.17c.66,1.09,1.31,2.19,1.92,3.32a2.71,2.71,0,0,1-1,4.06c-1.14.75-2.34,1.41-3.55,2.14a6.16,6.16,0,0,1,.26,2,4.06,4.06,0,0,1-1,2.37c-1.31,1-1.1,2.14-1,3.55h7.65Z"/>
        <path class="cls-10" d="M60.46,25.91c1.68-.3,3.19-.54,4.69-.84a1.54,1.54,0,0,1,2,1c.48,1.08,1.19,2.06,1.71,3.13a1.41,1.41,0,0,1,0,1.22c-1,1.39-2.2,2.7-3.44,4.19Z"/>
      </g>
    </g>
    <g id="lgEU97-2" data-name="lgEU97">
      <g>
        <path class="cls-10" d="M32.26,660.19l5,8.66c1.24-1.49,2.39-2.8,3.45-4.19a1.44,1.44,0,0,0,0-1.22c-.52-1.07-1.24-2.05-1.72-3.13a1.54,1.54,0,0,0-2-1C35.45,659.65,33.94,659.89,32.26,660.19Z"/>
        <path class="cls-10" d="M61.49,669h-7c-2.4,0-3.45-1-3.46-3.4,0-1.63,0-1.63-1.8-3.56-.81.45-1.65.94-2.5,1.4a2.76,2.76,0,0,1-4-1c-.7-1.07-1.31-2.19-2-3.3-1.2-2.09-.85-3.45,1.26-4.7s4.13-2.39,6.19-3.59c1.89-1.09,3.76-2.2,5.65-3.26s3.26-.73,4.41,1.17c.67,1.09,1.31,2.19,1.93,3.32a2.72,2.72,0,0,1-1,4.06c-1.14.75-2.33,1.41-3.55,2.14a6.18,6.18,0,0,1,.26,2,4.06,4.06,0,0,1-1,2.36c-1.31,1-1.1,2.15-1,3.55h7.64Z"/>
        <path class="cls-10" d="M32.26,660.19c1.68-.3,3.19-.54,4.69-.84a1.54,1.54,0,0,1,2,1c.48,1.08,1.2,2.06,1.72,3.13a1.44,1.44,0,0,1,0,1.22c-1.06,1.39-2.21,2.7-3.45,4.19Z"/>
      </g>
    </g>
    <g id="lgEU97-3" data-name="lgEU97">
      <g>
        <path class="cls-10" d="M264.5,27.1l5,8.66c1.24-1.48,2.39-2.8,3.45-4.19a1.44,1.44,0,0,0,0-1.22c-.52-1.07-1.24-2-1.72-3.13a1.55,1.55,0,0,0-2-1C267.69,26.56,266.18,26.8,264.5,27.1Z"/>
        <path class="cls-10" d="M293.73,36h-7c-2.41,0-3.45-1.05-3.46-3.41,0-1.63,0-1.63-1.8-3.56-.81.46-1.65.95-2.5,1.4a2.76,2.76,0,0,1-4-1c-.7-1.07-1.31-2.2-1.95-3.31-1.2-2.09-.85-3.44,1.26-4.69s4.13-2.4,6.19-3.59c1.88-1.09,3.76-2.2,5.65-3.27s3.26-.72,4.41,1.17c.66,1.1,1.31,2.2,1.92,3.32a2.71,2.71,0,0,1-1,4.06c-1.14.75-2.33,1.42-3.55,2.14a6.22,6.22,0,0,1,.26,2,4,4,0,0,1-1,2.36c-1.31,1-1.1,2.15-1,3.55h7.64Z"/>
        <path class="cls-10" d="M264.5,27.1c1.68-.3,3.19-.54,4.69-.84a1.55,1.55,0,0,1,2,1c.48,1.09,1.2,2.06,1.72,3.13a1.44,1.44,0,0,1,0,1.22c-1.06,1.39-2.21,2.71-3.45,4.19Z"/>
      </g>
    </g>
    <g id="ji3E1h">
      <g>
        <path class="cls-11" d="M138,264.74h1.52c2.71,0,2.84.16,2.8-2.8a1.5,1.5,0,0,1,.43-1.05,7.45,7.45,0,0,0,2.14-8.81,7.29,7.29,0,0,0-7.81-4.37A7.39,7.39,0,0,0,132.51,260a4,4,0,0,1,1.3,3.41c-.07,1,.37,1.31,1.37,1.32S137.09,264.74,138,264.74Zm-3.1,2.22c-.23,1.67.08,2.06,1.65,2.06h2.85c1.67,0,2-.33,1.76-2.06Z"/>
        <path class="cls-11" d="M138,264.74c-.95,0-1.91,0-2.86,0s-1.44-.36-1.37-1.32a4,4,0,0,0-1.3-3.41,7.39,7.39,0,0,1,4.61-12.29,7.29,7.29,0,0,1,7.81,4.37,7.45,7.45,0,0,1-2.14,8.81,1.5,1.5,0,0,0-.43,1.05c0,3-.09,2.83-2.8,2.8Z"/>
        <path class="cls-11" d="M134.94,267h6.26c.21,1.73-.09,2.06-1.76,2.06h-2.85C135,269,134.71,268.63,134.94,267Z"/>
      </g>
    </g>
    <g id="ji3E1h-2" data-name="ji3E1h">
      <g>
        <path class="cls-10" d="M154.86,110.25h1.52c2.7,0,2.84.17,2.8-2.8a1.52,1.52,0,0,1,.43-1,7.45,7.45,0,0,0,2.14-8.8,7.28,7.28,0,0,0-7.81-4.38,7.4,7.4,0,0,0-4.62,12.3,4,4,0,0,1,1.31,3.4c-.07,1,.37,1.31,1.37,1.33S153.91,110.25,154.86,110.25Zm-3.1,2.22c-.24,1.68.08,2.06,1.65,2.07h2.85c1.67,0,2-.34,1.76-2.07Z"/>
        <path class="cls-10" d="M154.86,110.25c-1,0-1.91,0-2.86,0s-1.44-.37-1.37-1.33a4,4,0,0,0-1.31-3.4,7.4,7.4,0,0,1,4.62-12.3,7.28,7.28,0,0,1,7.81,4.38,7.45,7.45,0,0,1-2.14,8.8,1.52,1.52,0,0,0-.43,1c0,3-.1,2.83-2.8,2.8Z"/>
        <path class="cls-10" d="M151.76,112.47H158c.21,1.73-.09,2.06-1.76,2.07h-2.85C151.84,114.53,151.52,114.15,151.76,112.47Z"/>
      </g>
    </g>
    <g id="ji3E1h-3" data-name="ji3E1h">
      <g>
        <path class="cls-10" d="M276,156.89h1.52c2.71,0,2.84.17,2.8-2.79a1.52,1.52,0,0,1,.43-1.06,7.43,7.43,0,0,0,2.14-8.8,7.28,7.28,0,0,0-7.81-4.37,7.39,7.39,0,0,0-4.61,12.29,4,4,0,0,1,1.3,3.4c-.07,1,.37,1.32,1.37,1.33S275.07,156.89,276,156.89Zm-3.1,2.23c-.23,1.67.08,2.06,1.65,2.06h2.85c1.67,0,2-.34,1.76-2.06Z"/>
        <path class="cls-10" d="M276,156.89c-.95,0-1.91,0-2.86,0s-1.44-.36-1.37-1.33a4,4,0,0,0-1.3-3.4,7.39,7.39,0,0,1,4.61-12.29,7.28,7.28,0,0,1,7.81,4.37,7.43,7.43,0,0,1-2.14,8.8,1.52,1.52,0,0,0-.43,1.06c0,3-.09,2.82-2.8,2.79Z"/>
        <path class="cls-10" d="M272.92,159.12h6.26c.21,1.72-.09,2.06-1.76,2.06h-2.85C273,161.18,272.69,160.79,272.92,159.12Z"/>
      </g>
    </g>
    <g id="ji3E1h-4" data-name="ji3E1h">
      <g>
        <path class="cls-10" d="M223.9,405.2h1.52c2.71,0,2.84.16,2.8-2.8a1.54,1.54,0,0,1,.43-1.06,7.43,7.43,0,0,0,2.14-8.8,7.29,7.29,0,0,0-7.81-4.37,7.39,7.39,0,0,0-4.61,12.29,4,4,0,0,1,1.3,3.41c-.07,1,.37,1.31,1.37,1.32S223,405.2,223.9,405.2Zm-3.1,2.22c-.23,1.67.08,2.06,1.65,2.06h2.85c1.67,0,2-.34,1.76-2.06Z"/>
        <path class="cls-10" d="M223.9,405.2c-1,0-1.91,0-2.86,0s-1.44-.36-1.37-1.32a4,4,0,0,0-1.3-3.41A7.39,7.39,0,0,1,223,388.17a7.29,7.29,0,0,1,7.81,4.37,7.43,7.43,0,0,1-2.14,8.8,1.54,1.54,0,0,0-.43,1.06c0,3-.09,2.83-2.8,2.8Z"/>
        <path class="cls-10" d="M220.8,407.42h6.26c.21,1.72-.09,2.06-1.76,2.06h-2.85C220.88,409.48,220.57,409.09,220.8,407.42Z"/>
      </g>
    </g>
    <g id="ji3E1h-5" data-name="ji3E1h">
      <g>
        <path class="cls-10" d="M178,618.75h1.52c2.71,0,2.84.16,2.81-2.8a1.49,1.49,0,0,1,.42-1.06,7.43,7.43,0,0,0,2.14-8.8,7.27,7.27,0,0,0-7.81-4.37A7.39,7.39,0,0,0,172.43,614a4,4,0,0,1,1.3,3.41c-.07,1,.38,1.31,1.37,1.32S177,618.75,178,618.75Zm-3.1,2.22c-.23,1.67.08,2.06,1.65,2.06h2.85c1.68,0,2-.34,1.76-2.06Z"/>
        <path class="cls-10" d="M178,618.75c-1,0-1.9,0-2.86,0s-1.44-.36-1.37-1.32a4,4,0,0,0-1.3-3.41A7.39,7.39,0,0,1,177,601.72a7.27,7.27,0,0,1,7.81,4.37,7.43,7.43,0,0,1-2.14,8.8,1.49,1.49,0,0,0-.42,1.06c0,3-.1,2.82-2.81,2.8Z"/>
        <path class="cls-10" d="M174.86,621h6.26c.21,1.72-.08,2.06-1.76,2.06h-2.85C174.94,623,174.63,622.64,174.86,621Z"/>
      </g>
    </g>
    <g id="ji3E1h-6" data-name="ji3E1h">
      <g>
        <path class="cls-10" d="M112.15,510.38h1.52c2.7,0,2.84.17,2.8-2.8a1.52,1.52,0,0,1,.43-1.05,7.43,7.43,0,0,0,2.13-8.8,7.26,7.26,0,0,0-7.8-4.38,7.4,7.4,0,0,0-4.62,12.3,4,4,0,0,1,1.31,3.4c-.07,1,.37,1.31,1.37,1.33Zm-3.1,2.22c-.24,1.68.08,2.06,1.65,2.07h2.85c1.67,0,2-.34,1.76-2.07Z"/>
        <path class="cls-10" d="M112.15,510.38h-2.86c-1,0-1.44-.37-1.37-1.33a4,4,0,0,0-1.31-3.4,7.4,7.4,0,0,1,4.62-12.3,7.26,7.26,0,0,1,7.8,4.38,7.43,7.43,0,0,1-2.13,8.8,1.52,1.52,0,0,0-.43,1.05c0,3-.1,2.83-2.8,2.8Z"/>
        <path class="cls-10" d="M109.05,512.6h6.26c.21,1.73-.09,2.06-1.76,2.07H110.7C109.13,514.66,108.81,514.28,109.05,512.6Z"/>
      </g>
    </g>
    <g id="ji3E1h-7" data-name="ji3E1h">
      <g>
        <path class="cls-10" d="M276.05,64.44h1.52c2.7,0,2.84.16,2.8-2.8a1.5,1.5,0,0,1,.43-1,7.45,7.45,0,0,0,2.13-8.81,7.27,7.27,0,0,0-7.8-4.37,6.92,6.92,0,0,0-5.95,4.49,6.9,6.9,0,0,0,1.33,7.81,4,4,0,0,1,1.31,3.4c-.07,1,.37,1.31,1.37,1.33S275.09,64.44,276.05,64.44ZM273,66.66c-.24,1.67.08,2.06,1.65,2.06q1.42,0,2.85,0c1.67,0,2-.33,1.76-2.06Z"/>
        <path class="cls-10" d="M276.05,64.44c-1,0-1.91,0-2.86,0s-1.44-.37-1.37-1.33a4,4,0,0,0-1.31-3.4,6.9,6.9,0,0,1-1.33-7.81,6.92,6.92,0,0,1,5.95-4.49,7.27,7.27,0,0,1,7.8,4.37,7.45,7.45,0,0,1-2.13,8.81,1.5,1.5,0,0,0-.43,1c0,3-.1,2.83-2.8,2.8Z"/>
        <path class="cls-10" d="M273,66.66h6.26c.21,1.73-.09,2.06-1.76,2.06q-1.43,0-2.85,0C273,68.72,272.71,68.33,273,66.66Z"/>
      </g>
    </g>
    <g id="zefc6x">
      <g>
        <path class="cls-10" d="M104.39,684.62a4.52,4.52,0,0,0-.08.63c0,2.57,0,5.15,0,7.72a6.12,6.12,0,0,0,12.23,0c0-2.57,0-5.15,0-7.72a4.37,4.37,0,0,0-.08-.59Zm-2.07-3.06a1.76,1.76,0,0,0,1.76,2c2.43,0,4.86,0,7.28,0,1.81,0,3.62,0,5.43,0a1.65,1.65,0,0,0,1.67-2Zm15.73,9.68a12.12,12.12,0,0,0,0,1.61c0,.19.3.49.47.5.83,0,1.67,0,2.53,0v-2.13Zm-15.32,2.09v-2.08h-3v2.08Zm15.82,5.95-2-2.15-1.45,1.16,2.19,2.19Zm-14.22-2.18-2,1.91,1.28,1.39,2.22-2Zm7,5.92v-3.08h-1.91V703Z"/>
        <path class="cls-10" d="M104.39,684.62h12.07a4.37,4.37,0,0,1,.08.59c0,2.57,0,5.15,0,7.72a6.12,6.12,0,0,1-12.23,0c0-2.57,0-5.15,0-7.72A4.52,4.52,0,0,1,104.39,684.62Z"/>
        <path class="cls-10" d="M102.32,681.56h16.14a1.65,1.65,0,0,1-1.67,2c-1.81.05-3.62,0-5.43,0-2.42,0-4.85,0-7.28,0A1.76,1.76,0,0,1,102.32,681.56Z"/>
        <path class="cls-10" d="M118.05,691.24h3v2.13c-.86,0-1.7,0-2.53,0-.17,0-.44-.31-.47-.5A12.12,12.12,0,0,1,118.05,691.24Z"/>
        <path class="cls-10" d="M102.73,693.33h-3v-2.08h3Z"/>
        <path class="cls-10" d="M118.55,699.28l-1.24,1.2-2.19-2.19,1.45-1.16Z"/>
        <path class="cls-10" d="M104.33,697.1l1.46,1.25-2.22,2L102.29,699Z"/>
        <path class="cls-10" d="M111.37,703h-1.91v-3.08h1.91Z"/>
      </g>
    </g>
    <g id="zefc6x-2" data-name="zefc6x">
      <g>
        <path class="cls-10" d="M244.21,684.08a4.52,4.52,0,0,0-.08.63c0,2.58,0,5.15,0,7.73a6.11,6.11,0,0,0,12.22,0c0-2.58,0-5.15,0-7.73a3.54,3.54,0,0,0-.09-.59ZM242.14,681a1.76,1.76,0,0,0,1.76,2c2.43.05,4.86,0,7.29,0,1.8,0,3.61,0,5.42,0a1.64,1.64,0,0,0,1.67-2Zm15.73,9.69a13.92,13.92,0,0,0,0,1.6.75.75,0,0,0,.47.51c.84,0,1.68,0,2.53,0v-2.13Zm-15.32,2.08v-2.07h-3v2.07Zm15.82,6-2-2.14-1.45,1.16,2.19,2.18Zm-14.22-2.18-2,1.92,1.28,1.39,2.22-2Zm7,5.93V699.4h-1.92v3.09Z"/>
        <path class="cls-10" d="M244.21,684.08h12.07a3.54,3.54,0,0,1,.09.59c0,2.58,0,5.15,0,7.73a6.11,6.11,0,0,1-12.22,0c0-2.58,0-5.15,0-7.73A4.52,4.52,0,0,1,244.21,684.08Z"/>
        <path class="cls-10" d="M242.14,681h16.14a1.64,1.64,0,0,1-1.67,2c-1.81.05-3.62,0-5.42,0-2.43,0-4.86,0-7.29,0A1.76,1.76,0,0,1,242.14,681Z"/>
        <path class="cls-10" d="M257.87,690.71h3v2.13c-.85,0-1.69,0-2.53,0a.75.75,0,0,1-.47-.51A13.92,13.92,0,0,1,257.87,690.71Z"/>
        <path class="cls-10" d="M242.55,692.79h-3v-2.07h3Z"/>
        <path class="cls-10" d="M258.37,698.74l-1.24,1.2-2.19-2.18,1.45-1.16Z"/>
        <path class="cls-10" d="M244.15,696.56l1.46,1.26-2.22,2-1.28-1.39Z"/>
        <path class="cls-10" d="M251.2,702.49h-1.92V699.4h1.92Z"/>
      </g>
    </g>
    <g id="zefc6x-3" data-name="zefc6x">
      <g>
        <path class="cls-10" d="M237.59,31.81a4.62,4.62,0,0,0,.09-.65c0-2.64,0-5.28,0-7.91a6.27,6.27,0,0,0-12.53,0c0,2.64,0,5.28,0,7.91a3.46,3.46,0,0,0,.09.61Zm2.12,3.13a1.8,1.8,0,0,0-1.8-2c-2.49,0-5,0-7.47,0-1.85,0-3.7,0-5.56,0a1.69,1.69,0,0,0-1.71,2ZM223.59,25a14.81,14.81,0,0,0,0-1.65c0-.19-.31-.5-.48-.51-.86-.06-1.72,0-2.6,0V25Zm15.7-2.14V25h3V22.88Zm-16.21-6.1,2,2.2,1.49-1.19-2.24-2.24ZM237.65,19l2.1-2-1.32-1.42-2.27,2.1Zm-7.22-6.08V16.1h2V12.94Z"/>
        <path class="cls-10" d="M237.59,31.81H225.22a3.46,3.46,0,0,1-.09-.61c0-2.63,0-5.27,0-7.91a6.27,6.27,0,0,1,12.53,0c0,2.63,0,5.27,0,7.91A4.62,4.62,0,0,1,237.59,31.81Z"/>
        <path class="cls-10" d="M239.71,34.94H223.17a1.69,1.69,0,0,1,1.71-2c1.86,0,3.71,0,5.56,0,2.49,0,5,0,7.47,0A1.8,1.8,0,0,1,239.71,34.94Z"/>
        <path class="cls-10" d="M223.59,25h-3.1V22.83c.88,0,1.74,0,2.6,0,.17,0,.45.32.48.51A14.81,14.81,0,0,1,223.59,25Z"/>
        <path class="cls-10" d="M239.29,22.88h3V25h-3Z"/>
        <path class="cls-10" d="M223.08,16.78l1.27-1.23,2.24,2.24L225.1,19Z"/>
        <path class="cls-10" d="M237.65,19l-1.49-1.29,2.27-2.1,1.32,1.42Z"/>
        <path class="cls-10" d="M230.43,12.94h2V16.1h-2Z"/>
      </g>
    </g>
  </g>
  <g id="temp">
    <g id="_0BCMNP" data-name="0BCMNP">
      <path class="cls-10" d="M79.16,178.28H78.8a3.22,3.22,0,0,0-.5-.16A5,5,0,0,1,74,174.64a5.2,5.2,0,0,1,1.32-5.56,1.74,1.74,0,0,0,.45-1.07c0-2.53,0-5.06,0-7.59s1.73-3.91,4-3.42a3.23,3.23,0,0,1,2.4,3.42c0,2.5,0,5,0,7.5a1.93,1.93,0,0,0,.52,1.21,5.2,5.2,0,0,1-.36,7.78A14.1,14.1,0,0,1,79.16,178.28Zm-1.27-15c0,2,0,3.86,0,5.74a1.09,1.09,0,0,1-.59,1.14,3.05,3.05,0,0,0-1.5,3.5,3.26,3.26,0,0,0,6.12.62,2.84,2.84,0,0,0-.79-3.7C80,169.86,80,169,80.05,167.9c0-1.29,0-2.57,0-3.85,0-.26,0-.51,0-.76Z"/>
    </g>
    <text class="cls-12" transform="translate(87.55 165.85)">19.6ºC<tspan x="0" y="12">10%</tspan></text>
    <g id="_0BCMNP-2" data-name="0BCMNP">
      <path class="cls-10" d="M77.53,318.57h-.36a2.42,2.42,0,0,0-.5-.16,5,5,0,0,1-4.32-3.48,5.22,5.22,0,0,1,1.32-5.57,1.72,1.72,0,0,0,.45-1.06c0-2.53,0-5.06,0-7.59s1.73-3.91,4-3.43a3.23,3.23,0,0,1,2.4,3.43c0,2.5,0,5,0,7.5a2,2,0,0,0,.52,1.21,5.21,5.21,0,0,1-.36,7.78A14.56,14.56,0,0,1,77.53,318.57Zm-1.27-15c0,2,0,3.86,0,5.73a1.07,1.07,0,0,1-.59,1.14A3.09,3.09,0,0,0,74.17,314a3.27,3.27,0,0,0,6.13.61,2.83,2.83,0,0,0-.79-3.69c-1.17-.73-1.1-1.64-1.09-2.7,0-1.28,0-2.56,0-3.84,0-.26,0-.52-.05-.76Z"/>
    </g>
    <text class="cls-12" transform="translate(85.92 306.13)">19.6ºC<tspan x="0" y="12">10%</tspan></text>
    <g id="_0BCMNP-3" data-name="0BCMNP">
      <path class="cls-10" d="M88.24,664.07h-.36a3.28,3.28,0,0,0-.5-.17,5,5,0,0,1-4.32-3.48,5.2,5.2,0,0,1,1.32-5.56,1.79,1.79,0,0,0,.46-1.06c0-2.53,0-5.06,0-7.59s1.73-3.91,4-3.43a3.25,3.25,0,0,1,2.41,3.43c0,2.5,0,5,0,7.5a1.89,1.89,0,0,0,.51,1.21,5.19,5.19,0,0,1-.36,7.78A14.36,14.36,0,0,1,88.24,664.07Zm-1.26-15c0,2,0,3.87,0,5.74a1.1,1.1,0,0,1-.6,1.14,3.06,3.06,0,0,0-1.5,3.51,3.29,3.29,0,0,0,2.75,2.46A3.25,3.25,0,0,0,91,660.07a2.84,2.84,0,0,0-.78-3.7c-1.18-.72-1.11-1.63-1.09-2.69,0-1.28,0-2.56,0-3.85,0-.25,0-.51,0-.76Z"/>
    </g>
    <text class="cls-12" transform="translate(96.64 651.63)">19.6ºC<tspan x="0" y="12">10%</tspan></text>
    <g id="_0BCMNP-4" data-name="0BCMNP">
      <path class="cls-10" d="M86.62,478h-.36a2.24,2.24,0,0,0-.5-.16,5,5,0,0,1-4.32-3.48,5.2,5.2,0,0,1,1.33-5.57,1.77,1.77,0,0,0,.45-1.06c0-2.53,0-5.06,0-7.59s1.73-3.91,4-3.43a3.23,3.23,0,0,1,2.41,3.43c0,2.5,0,5,0,7.5a1.89,1.89,0,0,0,.51,1.21,5.19,5.19,0,0,1-.36,7.78A14.36,14.36,0,0,1,86.62,478Zm-1.26-15c0,2,0,3.87,0,5.74a1.07,1.07,0,0,1-.6,1.14,3.07,3.07,0,0,0-1.5,3.51A3.27,3.27,0,0,0,86,475.82,3.24,3.24,0,0,0,89.39,474a2.83,2.83,0,0,0-.78-3.69c-1.17-.73-1.11-1.64-1.09-2.7,0-1.28,0-2.56,0-3.85,0-.25,0-.51,0-.76Z"/>
    </g>
    <text class="cls-12" transform="translate(95.02 465.53)">19.6ºC<tspan x="0" y="12">10%</tspan></text>
    <g id="_0BCMNP-5" data-name="0BCMNP">
      <path class="cls-10" d="M290.58,303.89h-.36a2.42,2.42,0,0,0-.5-.16,5,5,0,0,1-4.32-3.48,5.22,5.22,0,0,1,1.32-5.57,1.76,1.76,0,0,0,.46-1.06c0-2.53,0-5.06,0-7.59s1.73-3.91,4-3.43A3.25,3.25,0,0,1,293.6,286c0,2.5,0,5,0,7.5a2,2,0,0,0,.52,1.21,5.2,5.2,0,0,1-.36,7.78A14.56,14.56,0,0,1,290.58,303.89Zm-1.26-15c0,2,0,3.86,0,5.73a1.09,1.09,0,0,1-.6,1.14,3.07,3.07,0,0,0-1.5,3.51,3.26,3.26,0,0,0,6.12.61,2.83,2.83,0,0,0-.78-3.69c-1.18-.73-1.11-1.64-1.09-2.7,0-1.28,0-2.56,0-3.84,0-.26,0-.52-.05-.76Z"/>
    </g>
    <text class="cls-12" transform="translate(255.05 290.45)">19.6ºC<tspan x="0" y="12">10%</tspan></text>
  </g>
  <g id="text">
    <text class="cls-13" transform="translate(328.33 159.85) rotate(-90)">GROUND FLOOR</text>
  </g>
</svg>
